<svg width="1164" height="356" viewBox="0 0 1164 356" fill="none" xmlns="http://www.w3.org/2000/svg">
<path d="M386.442 191.896C377.994 191.896 370.229 189.933 363.146 186.008C356.149 182.083 350.559 176.621 346.378 169.624C342.282 162.541 340.234 154.605 340.234 145.816C340.234 137.027 342.282 129.133 346.378 122.136C350.559 115.139 356.149 109.677 363.146 105.752C370.229 101.827 377.994 99.864 386.442 99.864C394.89 99.864 402.613 101.827 409.61 105.752C416.693 109.677 422.239 115.139 426.25 122.136C430.346 129.133 432.394 137.027 432.394 145.816C432.394 154.605 430.346 162.541 426.25 169.624C422.154 176.621 416.607 182.083 409.61 186.008C402.613 189.933 394.89 191.896 386.442 191.896ZM386.442 171.928C393.61 171.928 399.327 169.539 403.594 164.76C407.946 159.981 410.122 153.667 410.122 145.816C410.122 137.88 407.946 131.565 403.594 126.872C399.327 122.093 393.61 119.704 386.442 119.704C379.189 119.704 373.386 122.051 369.034 126.744C364.767 131.437 362.634 137.795 362.634 145.816C362.634 153.752 364.767 160.109 369.034 164.888C373.386 169.581 379.189 171.928 386.442 171.928ZM504.475 191L485.787 157.08H480.539V191H458.651V101.144H495.387C502.47 101.144 508.486 102.381 513.435 104.856C518.47 107.331 522.224 110.744 524.699 115.096C527.174 119.363 528.411 124.141 528.411 129.432C528.411 135.405 526.704 140.739 523.291 145.432C519.963 150.125 515.014 153.453 508.443 155.416L529.179 191H504.475ZM480.539 141.592H494.107C498.118 141.592 501.104 140.611 503.067 138.648C505.115 136.685 506.139 133.912 506.139 130.328C506.139 126.915 505.115 124.227 503.067 122.264C501.104 120.301 498.118 119.32 494.107 119.32H480.539V141.592ZM620.871 101.144V118.68H597.063V191H575.175V118.68H551.367V101.144H620.871ZM688.432 191.896C679.984 191.896 672.219 189.933 665.136 186.008C658.139 182.083 652.549 176.621 648.368 169.624C644.272 162.541 642.224 154.605 642.224 145.816C642.224 137.027 644.272 129.133 648.368 122.136C652.549 115.139 658.139 109.677 665.136 105.752C672.219 101.827 679.984 99.864 688.432 99.864C696.88 99.864 704.603 101.827 711.6 105.752C718.683 109.677 724.229 115.139 728.24 122.136C732.336 129.133 734.384 137.027 734.384 145.816C734.384 154.605 732.336 162.541 728.24 169.624C724.144 176.621 718.597 182.083 711.6 186.008C704.603 189.933 696.88 191.896 688.432 191.896ZM688.432 171.928C695.6 171.928 701.317 169.539 705.584 164.76C709.936 159.981 712.112 153.667 712.112 145.816C712.112 137.88 709.936 131.565 705.584 126.872C701.317 122.093 695.6 119.704 688.432 119.704C681.179 119.704 675.376 122.051 671.024 126.744C666.757 131.437 664.624 137.795 664.624 145.816C664.624 153.752 666.757 160.109 671.024 164.888C675.376 169.581 681.179 171.928 688.432 171.928ZM794.305 101.144C803.777 101.144 812.054 103.021 819.137 106.776C826.22 110.531 831.681 115.821 835.521 122.648C839.446 129.389 841.409 137.197 841.409 146.072C841.409 154.861 839.446 162.669 835.521 169.496C831.681 176.323 826.177 181.613 819.009 185.368C811.926 189.123 803.692 191 794.305 191H760.641V101.144H794.305ZM792.897 172.056C801.174 172.056 807.617 169.795 812.225 165.272C816.833 160.749 819.137 154.349 819.137 146.072C819.137 137.795 816.833 131.352 812.225 126.744C807.617 122.136 801.174 119.832 792.897 119.832H782.529V172.056H792.897ZM910.217 191.896C901.769 191.896 894.004 189.933 886.921 186.008C879.924 182.083 874.334 176.621 870.153 169.624C866.057 162.541 864.009 154.605 864.009 145.816C864.009 137.027 866.057 129.133 870.153 122.136C874.334 115.139 879.924 109.677 886.921 105.752C894.004 101.827 901.769 99.864 910.217 99.864C918.665 99.864 926.388 101.827 933.385 105.752C940.468 109.677 946.014 115.139 950.025 122.136C954.121 129.133 956.169 137.027 956.169 145.816C956.169 154.605 954.121 162.541 950.025 169.624C945.929 176.621 940.382 182.083 933.385 186.008C926.388 189.933 918.665 191.896 910.217 191.896ZM910.217 171.928C917.385 171.928 923.102 169.539 927.369 164.76C931.721 159.981 933.897 153.667 933.897 145.816C933.897 137.88 931.721 131.565 927.369 126.872C923.102 122.093 917.385 119.704 910.217 119.704C902.964 119.704 897.161 122.051 892.809 126.744C888.542 131.437 886.409 137.795 886.409 145.816C886.409 153.752 888.542 160.109 892.809 164.888C897.161 169.581 902.964 171.928 910.217 171.928ZM978.714 145.944C978.714 137.069 980.634 129.176 984.474 122.264C988.314 115.267 993.647 109.848 1000.47 106.008C1007.39 102.083 1015.19 100.12 1023.9 100.12C1034.56 100.12 1043.7 102.936 1051.29 108.568C1058.88 114.2 1063.96 121.88 1066.52 131.608H1042.46C1040.67 127.853 1038.11 124.995 1034.78 123.032C1031.54 121.069 1027.82 120.088 1023.64 120.088C1016.9 120.088 1011.44 122.435 1007.26 127.128C1003.08 131.821 1000.99 138.093 1000.99 145.944C1000.99 153.795 1003.08 160.067 1007.26 164.76C1011.44 169.453 1016.9 171.8 1023.64 171.8C1027.82 171.8 1031.54 170.819 1034.78 168.856C1038.11 166.893 1040.67 164.035 1042.46 160.28H1066.52C1063.96 170.008 1058.88 177.688 1051.29 183.32C1043.7 188.867 1034.56 191.64 1023.9 191.64C1015.19 191.64 1007.39 189.72 1000.47 185.88C993.647 181.955 988.314 176.536 984.474 169.624C980.634 162.712 978.714 154.819 978.714 145.944Z" fill="#06A2FF"/>
<path d="M244.414 0.0827384C225.669 1.08453 206.73 3.95079 187.253 8.73715C178.784 10.8242 157.998 17.2524 157.998 17.809C157.998 17.8925 160.308 17.3916 163.118 16.7515C203.42 7.20662 218.547 4.75779 242.451 3.78382C275.401 2.44809 298.497 8.98759 311.815 23.458C321.015 33.4481 325.519 47.0837 325.519 65.1717C325.557 84.6232 320.207 100.318 307.312 118.74C302.577 125.53 299.844 128.814 290.798 138.776C282.253 148.182 279.019 152.05 275.363 157.253C268.857 166.437 265.085 175.174 263.276 184.97C262.314 190.257 261.929 194.876 261.544 205.701C261.082 219.448 260.812 223.455 260.158 229.077C256.078 264.251 247.609 291.578 234.06 313.255C231.327 317.624 225.438 325.639 222.281 329.256C214.429 338.328 205.652 344.283 196.953 346.482L195.336 346.899V341.695C195.336 338.829 195.529 335.044 195.721 333.291C196.722 325.193 197.184 322.633 201.649 300.594C204.998 284.175 205.498 279.834 205.498 267.896C205.498 257.878 205.229 254.511 203.766 246.747C200.687 230.329 194.258 217.751 183.711 207.455C181.363 205.145 171.894 197.938 171.548 198.188C171.432 198.244 172.972 199.718 174.974 201.444C181.248 206.926 185.174 211.517 188.715 217.528C193.95 226.405 196.722 234.587 198.878 247.721C199.57 251.895 199.57 273.406 198.878 278.193C196.337 295.807 194.066 305.491 188.792 321.186C186.252 328.7 185.367 331.761 184.558 335.824C182.403 346.565 184.789 353.077 191.602 355.303C194.566 356.277 199.57 356.221 202.958 355.192C207.5 353.828 211.734 351.518 218.085 346.955C229.672 338.606 239.911 328.115 248.302 315.982C260.658 298.117 269.127 276.996 275.594 247.721C278.442 234.865 279.712 226.043 281.175 209.736C283.369 184.914 284.023 180.796 286.795 173.839C289.913 165.908 294.994 158.144 306.388 143.813C314.587 133.489 318.205 128.535 321.592 123.192C330.176 109.64 334.795 97.9527 337.066 84.0945C337.721 79.9482 337.721 62.3332 337.066 58.2148C335.681 49.8943 334.295 44.4122 332.101 38.8745C322.67 15.1375 305.04 4.11775 270.782 0.583637C266.933 0.194049 248.841 -0.167711 244.414 0.0827384Z" fill="#06A2FF"/>
<path d="M224.013 20.5639C209.656 26.0738 189.562 28.6618 167.698 27.7713C154.957 27.2704 147.143 26.6582 127.589 24.5154C121.353 23.8476 113.308 22.9849 109.69 22.6231C103.955 22.0109 101.414 21.7883 94.6778 21.1761C90.4051 20.8143 77.587 20.23 73.5068 20.23C58.4946 20.23 44.4833 22.2892 34.2442 25.9903C23.6972 29.8027 14.8439 36.8431 8.41558 46.5271C4.29685 52.7049 1.98729 58.3539 0.524566 65.7282C-0.168303 69.0954 -0.168303 82.9257 0.486074 86.4598C2.83413 98.9545 6.6834 107.943 14.5744 119.714C20.7717 128.925 28.2008 137.858 41.9042 152.69C57.3398 169.358 62.6133 176.482 65.5003 184.525C66.3471 186.806 66.5011 187.947 66.5011 190.674C66.5011 194.737 66.0392 196.017 61.3046 204.867C59.4954 208.234 57.5708 212.102 57.0319 213.493C54.1064 220.867 51.6814 228.186 50.3726 233.529C47.0238 247.499 48.602 266.394 55.1842 290.576C55.6077 292.106 56.647 296.169 57.4938 299.62C60.5347 311.697 62.9598 318.014 66.6166 323.44C73.3143 333.403 84.0538 334.711 89.7892 326.251C92.9071 321.715 94.1389 318.153 98.3731 301.289C98.835 299.536 99.9513 295.64 100.914 292.663C110.691 261.774 122.239 238.455 136.635 220.283C151.839 201.166 171.74 186.139 195.991 175.425C198.685 174.256 200.764 173.282 200.61 173.282C200.109 173.282 195.105 175.174 189.909 177.317C159.423 190.007 135.095 210.154 116.388 238.288C103.762 257.266 93.292 279.723 82.5526 310.862C80.8589 315.732 79.4347 319.795 79.3577 319.851C79.0882 320.045 75.6239 309.471 73.8917 303.126C69.4265 286.791 67.6944 273.239 68.0408 256.821C68.3103 242.879 69.696 234.642 73.5068 223.65C75.2774 218.586 76.6632 215.775 80.32 210.043C87.0177 199.468 87.7491 197.659 87.7106 191.37C87.6721 183.996 85.709 178.653 80.0505 170.36C75.3159 163.431 69.9654 157.587 58.7256 147.041C44.5987 133.795 39.8641 128.591 32.666 118.601C14.4974 93.2498 8.53105 69.8467 16.1526 53.4562C20.5793 43.9391 30.2025 36.0083 42.7126 31.6115C48.9484 29.4409 54.4914 28.3 63.8066 27.2704C69.8115 26.6025 92.1373 26.6025 103.339 27.2982C107.688 27.5486 113.231 27.8826 115.656 28.0217C118.081 28.1609 123.817 28.4948 128.359 28.7731C138.867 29.4131 179.131 29.4966 186.675 28.9122C200.148 27.8826 208.539 26.519 215.814 24.2372C219.048 23.2075 225.168 20.703 225.553 20.2021C225.861 19.8682 225.822 19.8682 224.013 20.5639Z" fill="#06A2FF"/>
<path d="M241.758 30.0549C232.049 30.719 222.24 32.6191 212.152 35.792C207.766 37.1756 197 41.437 197 41.8059C197 41.8613 198.196 41.5292 199.652 41.1049C220.525 34.7774 228.361 33.154 240.741 32.5084C257.807 31.6229 269.769 35.9581 276.667 45.5508C281.432 52.1735 283.765 61.2128 283.765 73.2037C283.785 86.0985 281.014 96.503 274.335 108.715C271.882 113.216 270.467 115.393 265.782 121.997C261.356 128.233 259.681 130.797 257.787 134.247C254.418 140.334 252.464 146.127 251.527 152.62C251.029 156.125 250.829 159.188 250.63 166.364C250.391 175.477 250.251 178.133 249.912 181.86C247.799 205.178 243.413 223.293 236.395 237.664C234.98 240.56 231.929 245.873 230.294 248.271C226.227 254.285 221.682 258.233 217.176 259.69L216.339 259.967V256.517C216.339 254.617 216.438 252.108 216.538 250.946C217.056 245.578 217.296 243.881 219.608 229.27C221.343 218.386 221.602 215.508 221.602 207.594C221.602 200.953 221.462 198.721 220.705 193.574C219.11 182.69 215.78 174.352 210.318 167.526C209.102 165.995 204.197 161.217 204.018 161.383C203.958 161.42 204.755 162.398 205.792 163.541C209.042 167.176 211.075 170.219 212.91 174.204C215.621 180.089 217.056 185.512 218.173 194.22C218.532 196.987 218.532 211.247 218.173 214.42C216.857 226.097 215.681 232.517 212.949 242.921C211.634 247.902 211.175 249.931 210.756 252.625C209.64 259.745 210.876 264.062 214.405 265.538C215.94 266.184 218.532 266.147 220.286 265.464C222.639 264.56 224.832 263.029 228.121 260.004C234.122 254.469 239.425 247.515 243.772 239.472C250.171 227.628 254.557 213.627 257.907 194.22C259.382 185.697 260.04 179.849 260.798 169.039C261.934 152.584 262.273 149.853 263.708 145.241C265.323 139.984 267.955 134.837 273.856 125.336C278.103 118.492 279.977 115.209 281.731 111.667C286.177 102.683 288.57 94.9349 289.746 85.748C290.085 82.9993 290.085 71.322 289.746 68.5918C289.028 63.076 288.31 59.4418 287.174 55.7707C282.289 40.035 273.158 32.7297 255.415 30.3869C253.421 30.1286 244.051 29.8888 241.758 30.0549Z" fill="#06A2FF"/>
<path d="M333.697 270.775C333.396 273.988 332.483 276.877 330.958 279.442C329.432 282.008 327.283 284.03 324.51 285.509C321.736 286.965 318.304 287.693 314.213 287.693C310.169 287.693 306.644 286.723 303.639 284.781C300.635 282.84 298.301 280.101 296.636 276.565C294.996 273.006 294.175 268.846 294.175 264.084V259.474C294.175 254.689 295.007 250.529 296.671 246.993C298.358 243.457 300.739 240.718 303.813 238.777C306.887 236.812 310.515 235.83 314.698 235.83C318.628 235.83 321.944 236.558 324.648 238.014C327.352 239.47 329.455 241.493 330.958 244.081C332.46 246.646 333.373 249.605 333.697 252.956H325.966C325.526 249.582 324.475 246.935 322.811 245.017C321.17 243.076 318.466 242.105 314.698 242.105C311.902 242.105 309.556 242.81 307.661 244.22C305.789 245.606 304.367 247.594 303.397 250.183C302.449 252.748 301.975 255.822 301.975 259.404V264.084C301.975 267.436 302.403 270.417 303.258 273.029C304.136 275.64 305.465 277.697 307.245 279.2C309.048 280.679 311.37 281.418 314.213 281.418C316.871 281.418 318.997 281.002 320.592 280.17C322.21 279.338 323.423 278.125 324.232 276.53C325.064 274.936 325.642 273.017 325.966 270.775H333.697ZM357.072 287H349.619V233.75H357.072V287ZM382.563 287H375.11V249.489H382.563V287ZM374.589 239.574C374.589 238.419 374.959 237.448 375.699 236.662C376.438 235.876 377.502 235.483 378.888 235.483C380.252 235.483 381.315 235.876 382.078 236.662C382.84 237.448 383.222 238.419 383.222 239.574C383.222 240.707 382.84 241.666 382.078 242.452C381.315 243.237 380.252 243.63 378.888 243.63C377.502 243.63 376.438 243.237 375.699 242.452C374.959 241.666 374.589 240.707 374.589 239.574ZM407.464 287H400.011V249.489H407.048L407.464 257.498V287ZM403.2 266.789C403.246 263.276 403.894 260.167 405.142 257.463C406.413 254.759 408.169 252.644 410.411 251.119C412.676 249.57 415.311 248.796 418.315 248.796C420.765 248.796 422.88 249.258 424.66 250.183C426.462 251.084 427.849 252.54 428.82 254.551C429.814 256.562 430.311 259.254 430.311 262.628V287H422.857V262.559C422.857 260.687 422.58 259.196 422.025 258.087C421.493 256.978 420.708 256.18 419.668 255.695C418.628 255.186 417.345 254.932 415.819 254.932C414.294 254.932 412.93 255.244 411.729 255.868C410.527 256.492 409.487 257.359 408.608 258.468C407.753 259.578 407.095 260.849 406.632 262.282C406.17 263.715 405.939 265.229 405.939 266.823L403.2 266.789ZM455.316 287H447.862V249.489H455.316V287ZM454.727 233.958H463.394L453.999 244.254H447.966L454.727 233.958ZM488.434 281.696C489.866 281.696 491.184 281.407 492.386 280.829C493.588 280.228 494.558 279.419 495.298 278.402C496.061 277.362 496.488 276.172 496.581 274.832H503.618C503.526 277.166 502.786 279.315 501.399 281.28C500.013 283.221 498.187 284.781 495.922 285.96C493.68 287.116 491.195 287.693 488.468 287.693C484.678 287.693 481.523 286.838 479.004 285.128C476.508 283.418 474.647 281.141 473.422 278.298C472.197 275.432 471.585 272.301 471.585 268.903V267.586C471.585 264.165 472.197 261.034 473.422 258.191C474.67 255.348 476.542 253.072 479.039 251.361C481.535 249.651 484.678 248.796 488.468 248.796C491.427 248.796 494.027 249.397 496.269 250.599C498.51 251.777 500.267 253.407 501.538 255.487C502.832 257.567 503.526 259.959 503.618 262.663H496.581C496.488 261.207 496.095 259.89 495.402 258.711C494.732 257.509 493.796 256.562 492.594 255.868C491.415 255.152 490.017 254.793 488.399 254.793C485.972 254.793 484.077 255.417 482.713 256.666C481.35 257.914 480.391 259.52 479.836 261.484C479.304 263.449 479.039 265.483 479.039 267.586V268.903C479.039 271.03 479.304 273.075 479.836 275.04C480.367 277.004 481.315 278.61 482.679 279.858C484.065 281.083 485.984 281.696 488.434 281.696ZM539.821 261.45C539.821 259.347 539.209 257.671 537.984 256.423C536.782 255.175 534.979 254.551 532.576 254.551C531.12 254.551 529.837 254.805 528.727 255.313C527.641 255.822 526.798 256.492 526.197 257.324C525.596 258.156 525.295 259.092 525.295 260.132H517.807C517.807 258.214 518.431 256.4 519.679 254.689C520.927 252.956 522.684 251.546 524.949 250.46C527.237 249.351 529.929 248.796 533.026 248.796C535.8 248.796 538.25 249.27 540.376 250.217C542.525 251.142 544.212 252.552 545.437 254.447C546.662 256.319 547.275 258.676 547.275 261.519V278.576C547.275 280.055 547.39 281.488 547.621 282.875C547.853 284.238 548.199 285.428 548.662 286.445V287H540.965C540.595 286.191 540.307 285.128 540.099 283.811C539.914 282.47 539.821 281.199 539.821 279.997V261.45ZM541.069 269.077H534.864C531.489 269.077 528.912 269.654 527.133 270.81C525.353 271.943 524.463 273.572 524.463 275.698C524.463 277.339 525.018 278.726 526.127 279.858C527.26 280.991 528.878 281.557 530.981 281.557C532.83 281.557 534.448 281.176 535.834 280.413C537.221 279.65 538.319 278.714 539.128 277.605C539.937 276.472 540.364 275.398 540.411 274.381L543.149 277.813C542.941 278.761 542.491 279.801 541.797 280.933C541.104 282.066 540.191 283.152 539.058 284.192C537.926 285.209 536.574 286.052 535.002 286.723C533.454 287.37 531.697 287.693 529.733 287.693C527.214 287.693 524.995 287.208 523.077 286.237C521.181 285.243 519.691 283.903 518.604 282.216C517.541 280.529 517.01 278.645 517.01 276.565C517.01 272.543 518.512 269.481 521.516 267.378C524.544 265.275 528.716 264.223 534.032 264.223H541L541.069 269.077ZM585.974 276.912C585.974 276.056 585.766 275.271 585.35 274.554C584.957 273.815 584.16 273.144 582.958 272.543C581.779 271.919 580 271.365 577.619 270.879C574.915 270.325 572.546 269.597 570.512 268.695C568.501 267.771 566.941 266.604 565.832 265.194C564.723 263.784 564.168 262.039 564.168 259.959C564.168 257.925 564.746 256.076 565.901 254.412C567.057 252.725 568.698 251.373 570.824 250.356C572.95 249.316 575.458 248.796 578.347 248.796C581.421 248.796 584.056 249.327 586.251 250.391C588.447 251.431 590.123 252.84 591.278 254.62C592.457 256.4 593.046 258.387 593.046 260.583H585.593C585.593 259.081 584.969 257.694 583.721 256.423C582.496 255.152 580.704 254.516 578.347 254.516C576.775 254.516 575.481 254.77 574.464 255.279C573.447 255.764 572.696 256.4 572.211 257.186C571.749 257.948 571.517 258.769 571.517 259.647C571.517 260.525 571.737 261.288 572.176 261.935C572.638 262.582 573.459 263.16 574.638 263.668C575.816 264.154 577.503 264.639 579.699 265.125C582.657 265.772 585.153 266.569 587.187 267.517C589.221 268.464 590.758 269.666 591.798 271.122C592.838 272.555 593.358 274.346 593.358 276.496C593.358 278.668 592.746 280.61 591.521 282.32C590.296 284.007 588.563 285.324 586.321 286.272C584.102 287.22 581.49 287.693 578.486 287.693C575.134 287.693 572.292 287.092 569.957 285.891C567.646 284.689 565.89 283.152 564.688 281.28C563.486 279.385 562.885 277.409 562.885 275.352H570.2C570.316 276.969 570.789 278.264 571.621 279.234C572.453 280.205 573.493 280.91 574.742 281.349C575.99 281.765 577.261 281.973 578.555 281.973C580.173 281.973 581.525 281.754 582.611 281.314C583.721 280.875 584.553 280.274 585.107 279.512C585.685 278.749 585.974 277.882 585.974 276.912ZM638.862 287L638.931 280.76H649.505C652.879 280.76 655.688 280.043 657.929 278.61C660.194 277.177 661.893 275.155 663.026 272.543C664.181 269.909 664.759 266.789 664.759 263.183V260.271C664.759 256.55 664.181 253.395 663.026 250.807C661.893 248.195 660.217 246.207 657.999 244.844C655.803 243.48 653.134 242.798 649.99 242.798H638.654V236.523H649.99C654.451 236.523 658.369 237.506 661.743 239.47C665.117 241.412 667.752 244.174 669.647 247.756C671.542 251.315 672.49 255.51 672.49 260.34V263.183C672.49 268.037 671.542 272.243 669.647 275.802C667.752 279.361 665.083 282.123 661.639 284.088C658.195 286.029 654.151 287 649.505 287H638.862ZM643.126 287H635.361V236.523H643.126V287ZM704.88 287.693C701.274 287.693 698.154 286.908 695.519 285.336C692.884 283.741 690.839 281.58 689.383 278.853C687.95 276.126 687.234 273.029 687.234 269.562V268.106C687.234 264.108 687.996 260.664 689.522 257.775C691.047 254.886 693.081 252.667 695.623 251.119C698.166 249.57 700.939 248.796 703.944 248.796C707.549 248.796 710.507 249.593 712.819 251.188C715.153 252.76 716.886 254.932 718.019 257.706C719.151 260.456 719.717 263.611 719.717 267.17V270.429H691.22V264.778H712.298V264.188C712.229 262.617 711.917 261.115 711.362 259.682C710.808 258.249 709.93 257.082 708.728 256.18C707.549 255.256 705.954 254.793 703.944 254.793C702.048 254.793 700.407 255.325 699.021 256.388C697.657 257.451 696.594 258.977 695.831 260.964C695.092 262.952 694.722 265.333 694.722 268.106V269.562C694.722 271.827 695.138 273.872 695.97 275.698C696.802 277.524 698.004 278.98 699.575 280.066C701.17 281.153 703.077 281.696 705.296 281.696C707.445 281.696 709.294 281.268 710.842 280.413C712.414 279.558 713.778 278.368 714.933 276.842L719.128 280.552C717.949 282.378 716.204 284.03 713.893 285.509C711.582 286.965 708.577 287.693 704.88 287.693ZM741.949 287H734.496V249.489H741.533L741.949 257.498V287ZM737.685 266.789C737.731 263.276 738.379 260.167 739.627 257.463C740.898 254.759 742.654 252.644 744.896 251.119C747.161 249.57 749.796 248.796 752.8 248.796C755.25 248.796 757.365 249.258 759.145 250.183C760.947 251.084 762.334 252.54 763.305 254.551C764.299 256.562 764.796 259.254 764.796 262.628V287H757.342V262.559C757.342 260.687 757.065 259.196 756.51 258.087C755.978 256.978 755.192 256.18 754.152 255.695C753.112 255.186 751.83 254.932 750.304 254.932C748.779 254.932 747.415 255.244 746.213 255.868C745.012 256.492 743.972 257.359 743.093 258.468C742.238 259.578 741.58 260.849 741.117 262.282C740.655 263.715 740.424 265.229 740.424 266.823L737.685 266.789ZM798.225 255.036H777.459V249.489H798.225V255.036ZM791.396 240.337V277.12C791.396 278.345 791.569 279.269 791.916 279.893C792.285 280.517 792.771 280.933 793.372 281.141C793.996 281.349 794.689 281.453 795.452 281.453C796.006 281.453 796.561 281.418 797.116 281.349C797.67 281.257 798.098 281.176 798.398 281.106L798.433 286.931C797.832 287.139 797.093 287.312 796.214 287.451C795.359 287.612 794.342 287.693 793.164 287.693C791.43 287.693 789.859 287.37 788.449 286.723C787.062 286.052 785.964 284.966 785.155 283.464C784.346 281.938 783.942 279.916 783.942 277.397V240.337H791.396ZM834.602 261.45C834.602 259.347 833.989 257.671 832.764 256.423C831.562 255.175 829.76 254.551 827.356 254.551C825.9 254.551 824.617 254.805 823.508 255.313C822.422 255.822 821.578 256.492 820.977 257.324C820.376 258.156 820.076 259.092 820.076 260.132H812.587C812.587 258.214 813.211 256.4 814.459 254.689C815.708 252.956 817.464 251.546 819.729 250.46C822.017 249.351 824.71 248.796 827.807 248.796C830.58 248.796 833.03 249.27 835.156 250.217C837.306 251.142 838.993 252.552 840.218 254.447C841.443 256.319 842.055 258.676 842.055 261.519V278.576C842.055 280.055 842.171 281.488 842.402 282.875C842.633 284.238 842.98 285.428 843.442 286.445V287H835.746C835.376 286.191 835.087 285.128 834.879 283.811C834.694 282.47 834.602 281.199 834.602 279.997V261.45ZM835.85 269.077H829.644C826.27 269.077 823.693 269.654 821.913 270.81C820.133 271.943 819.244 273.572 819.244 275.698C819.244 277.339 819.798 278.726 820.908 279.858C822.04 280.991 823.658 281.557 825.761 281.557C827.61 281.557 829.228 281.176 830.615 280.413C832.001 279.65 833.099 278.714 833.908 277.605C834.717 276.472 835.145 275.398 835.191 274.381L837.93 277.813C837.722 278.761 837.271 279.801 836.578 280.933C835.884 282.066 834.971 283.152 833.839 284.192C832.706 285.209 831.354 286.052 829.783 286.723C828.234 287.37 826.478 287.693 824.513 287.693C821.994 287.693 819.775 287.208 817.857 286.237C815.962 285.243 814.471 283.903 813.385 282.216C812.322 280.529 811.79 278.645 811.79 276.565C811.79 272.543 813.292 269.481 816.297 267.378C819.325 265.275 823.496 264.223 828.812 264.223H835.78L835.85 269.077ZM831.343 233.75H840.01L830.615 244.046H824.583L831.343 233.75ZM866.783 287H859.33V249.489H866.506L866.783 256.042V287ZM878.293 256.215C877.761 256.122 877.23 256.053 876.698 256.007C876.167 255.961 875.612 255.938 875.034 255.938C873.093 255.938 871.463 256.319 870.146 257.082C868.852 257.821 867.846 258.861 867.13 260.202C866.436 261.542 866.02 263.102 865.882 264.882L863.975 265.471C863.975 262.374 864.379 259.578 865.188 257.082C866.02 254.562 867.28 252.552 868.967 251.049C870.654 249.547 872.804 248.796 875.415 248.796C875.878 248.796 876.409 248.842 877.01 248.935C877.634 249.027 878.073 249.143 878.328 249.281L878.293 256.215ZM899.762 287H892.308V249.489H899.762V287ZM891.788 239.574C891.788 238.419 892.158 237.448 892.898 236.662C893.637 235.876 894.701 235.483 896.087 235.483C897.451 235.483 898.514 235.876 899.277 236.662C900.039 237.448 900.421 238.419 900.421 239.574C900.421 240.707 900.039 241.666 899.277 242.452C898.514 243.237 897.451 243.63 896.087 243.63C894.701 243.63 893.637 243.237 892.898 242.452C892.158 241.666 891.788 240.707 891.788 239.574ZM938.877 261.45C938.877 259.347 938.265 257.671 937.04 256.423C935.838 255.175 934.035 254.551 931.632 254.551C930.176 254.551 928.893 254.805 927.784 255.313C926.697 255.822 925.854 256.492 925.253 257.324C924.652 258.156 924.351 259.092 924.351 260.132H916.863C916.863 258.214 917.487 256.4 918.735 254.689C919.983 252.956 921.74 251.546 924.005 250.46C926.293 249.351 928.985 248.796 932.082 248.796C934.856 248.796 937.306 249.27 939.432 250.217C941.581 251.142 943.269 252.552 944.493 254.447C945.718 256.319 946.331 258.676 946.331 261.519V278.576C946.331 280.055 946.446 281.488 946.678 282.875C946.909 284.238 947.255 285.428 947.718 286.445V287H940.021C939.652 286.191 939.363 285.128 939.155 283.811C938.97 282.47 938.877 281.199 938.877 279.997V261.45ZM940.125 269.077H933.92C930.545 269.077 927.968 269.654 926.189 270.81C924.409 271.943 923.519 273.572 923.519 275.698C923.519 277.339 924.074 278.726 925.183 279.858C926.316 280.991 927.934 281.557 930.037 281.557C931.886 281.557 933.504 281.176 934.89 280.413C936.277 279.65 937.375 278.714 938.184 277.605C938.993 276.472 939.42 275.398 939.467 274.381L942.205 277.813C941.997 278.761 941.547 279.801 940.853 280.933C940.16 282.066 939.247 283.152 938.115 284.192C936.982 285.209 935.63 286.052 934.058 286.723C932.51 287.37 930.753 287.693 928.789 287.693C926.27 287.693 924.051 287.208 922.133 286.237C920.237 285.243 918.747 283.903 917.66 282.216C916.597 280.529 916.066 278.645 916.066 276.565C916.066 272.543 917.568 269.481 920.573 267.378C923.6 265.275 927.772 264.223 933.088 264.223H940.056L940.125 269.077ZM985.03 276.912C985.03 276.056 984.822 275.271 984.406 274.554C984.013 273.815 983.216 273.144 982.014 272.543C980.835 271.919 979.056 271.365 976.675 270.879C973.971 270.325 971.602 269.597 969.568 268.695C967.557 267.771 965.997 266.604 964.888 265.194C963.779 263.784 963.224 262.039 963.224 259.959C963.224 257.925 963.802 256.076 964.957 254.412C966.113 252.725 967.754 251.373 969.88 250.356C972.006 249.316 974.514 248.796 977.403 248.796C980.477 248.796 983.112 249.327 985.307 250.391C987.503 251.431 989.179 252.84 990.334 254.62C991.513 256.4 992.102 258.387 992.102 260.583H984.649C984.649 259.081 984.025 257.694 982.777 256.423C981.552 255.152 979.76 254.516 977.403 254.516C975.831 254.516 974.537 254.77 973.52 255.279C972.503 255.764 971.752 256.4 971.267 257.186C970.805 257.948 970.573 258.769 970.573 259.647C970.573 260.525 970.793 261.288 971.232 261.935C971.694 262.582 972.515 263.16 973.694 263.668C974.872 264.154 976.559 264.639 978.755 265.125C981.713 265.772 984.21 266.569 986.243 267.517C988.277 268.464 989.814 269.666 990.854 271.122C991.894 272.555 992.414 274.346 992.414 276.496C992.414 278.668 991.802 280.61 990.577 282.32C989.352 284.007 987.619 285.324 985.377 286.272C983.158 287.22 980.546 287.693 977.542 287.693C974.191 287.693 971.348 287.092 969.013 285.891C966.702 284.689 964.946 283.152 963.744 281.28C962.542 279.385 961.941 277.409 961.941 275.352H969.256C969.372 276.969 969.845 278.264 970.677 279.234C971.51 280.205 972.55 280.91 973.798 281.349C975.046 281.765 976.317 281.973 977.611 281.973C979.229 281.973 980.581 281.754 981.667 281.314C982.777 280.875 983.609 280.274 984.163 279.512C984.741 278.749 985.03 277.882 985.03 276.912Z" fill="#06A2FF"/>
<path d="M103.977 76.3785L103.932 76.371C100.045 75.7048 96.1798 75.3783 92.3194 75.1823C90.9249 75.1136 89.5318 75.0757 88.1386 75.0362C88.781 74.4079 89.4279 73.784 90.0656 73.1511C92.4603 70.768 94.8011 68.3408 96.9635 65.71C97.2082 65.4108 97.2437 65.0068 97.0076 64.6747C96.6788 64.2122 95.9561 64.0563 95.3937 64.3265C92.0164 65.9483 88.9718 67.908 86.1026 70.0077C85.2364 70.6444 84.4116 71.3161 83.5731 71.9764C83.474 68.2317 83.3405 64.4872 83.0847 60.7433C82.7332 55.3013 82.2574 49.86 81.3978 44.4211C81.3312 43.997 80.9203 43.648 80.3803 43.5971C79.7441 43.5372 79.1695 43.9125 79.0964 44.4355C78.3374 49.8843 77.9613 55.3309 77.7099 60.7768C77.5307 64.3755 77.4642 67.9738 77.4308 71.5719L76.762 70.9356C76.9262 70.8143 76.8731 70.8321 76.7335 70.9082L76.0843 70.2902L75.5746 69.83L75.3253 69.6044L75.271 69.5561C75.271 69.5574 75.2684 69.554 75.2669 69.5528C75.281 69.5689 75.3278 69.628 75.4361 69.7737L75.329 69.6416L75.2053 69.494L75.1958 69.4834C74.8798 69.4348 75.8566 69.5131 73.6378 68.6976C73.2387 68.3734 72.8475 68.0435 72.4326 67.7298C70.9359 66.5704 69.407 65.4418 67.684 64.411C67.3024 64.1837 66.7723 64.1599 66.3554 64.3857C65.8177 64.6771 65.6694 65.2718 66.0236 65.7139L66.043 65.7376L69.3573 69.87L70.2092 70.9062C69.7914 71.7057 71.4304 71.7204 70.5649 71.7537L70.6925 71.967C70.9737 72.342 70.9168 72.2388 70.9335 72.2707L70.9942 72.3461L71.0206 72.3793C71.0118 72.3609 71.0097 72.3468 71.0166 72.3376L71.0865 72.398L71.2455 72.5398C71.1444 72.4851 71.0756 72.441 71.046 72.4108L71.2089 72.6136L71.6297 73.1379L72.1207 73.7142C72.1728 73.6758 72.2563 73.6174 72.3672 73.5416L72.3677 73.5421C72.3903 73.5623 72.411 73.5781 72.411 73.5781L72.4125 73.5784C72.4141 73.5774 72.4146 73.5772 72.4162 73.5762L72.4192 73.5796C72.3155 73.6408 72.2181 73.6971 72.1418 73.7386L73.3745 75.1845C73.3909 75.2045 73.4095 75.2235 73.4259 75.2435C72.0179 75.3139 70.61 75.3811 69.2012 75.4935C65.3484 75.7843 61.4945 76.1773 57.6312 76.8854L57.5862 76.8934C57.1466 76.9745 56.7852 77.2613 56.6931 77.6477C56.5685 78.1693 56.9821 78.6751 57.6167 78.7774C61.4777 79.3998 65.3484 79.7069 69.2204 79.9118C71.0152 80.0145 72.8114 80.0713 74.6064 80.1093C73.3301 81.4335 72.0948 82.7849 70.9366 84.1856C68.7616 86.788 66.7505 89.4982 65.1615 92.4256C64.9806 92.7634 65.0418 93.1758 65.3625 93.4675C65.7977 93.864 66.5414 93.8952 67.0237 93.5375C69.8921 91.4259 72.5198 89.206 75.1135 86.9664C75.9373 86.2629 76.7366 85.5452 77.5426 84.831C77.6303 87.7011 77.7561 90.571 77.9437 93.4404C78.2844 98.8825 78.7833 104.324 79.6965 109.762C79.7669 110.18 80.1711 110.525 80.7049 110.579C81.341 110.643 81.9201 110.271 81.9979 109.748C82.8111 104.299 83.2103 98.8519 83.4509 93.4063C83.5684 90.9035 83.6334 88.4009 83.6737 85.8986C84.0248 86.2264 84.3618 86.5631 84.7154 86.8889C87.4367 89.3603 90.2786 91.7546 93.4692 93.925C93.811 94.157 94.3004 94.2205 94.7275 94.0533C95.315 93.8232 95.5644 93.2451 95.2846 92.762C93.5033 89.6873 91.3685 86.839 89.1147 84.0675C87.9984 82.7154 86.8601 81.3775 85.6908 80.0596C87.9451 79.9805 90.1977 79.8687 92.4486 79.708C96.3129 79.4262 100.172 79.0139 104.009 78.2618C104.437 78.1774 104.79 77.8977 104.886 77.5201C105.019 76.9986 104.611 76.4873 103.977 76.3785ZM75.9702 70.4297L75.8611 70.2958C75.9053 70.3345 75.9427 70.3793 75.9702 70.4297Z" fill="#06A2FF"/>
<path d="M72.1419 73.7387L72.1209 73.7142C71.9814 73.817 72.0231 73.8035 72.1419 73.7387Z" fill="#06A2FF"/>
<path d="M71.0466 72.4114L71.0206 72.3792C71.0256 72.3887 71.0343 72.3989 71.0466 72.4114Z" fill="#06A2FF"/>
<path d="M75.2675 69.5535C75.2535 69.5378 75.261 69.5484 75.2675 69.5535V69.5535Z" fill="#06A2FF"/>
<path d="M126.575 76.7019C125.468 76.1716 124.336 75.9173 123.215 75.7582C122.091 75.5924 120.97 75.5522 119.852 75.5834C118.735 75.6328 117.618 75.7256 116.51 75.9525C115.402 76.1703 114.291 76.4646 113.218 77.0172C113.062 77.0977 112.936 77.221 112.87 77.3752C112.715 77.7371 112.946 78.1336 113.386 78.261L113.412 78.2685C115.634 78.9112 117.798 79.0477 119.973 79.0367C122.147 78.9946 124.293 78.7596 126.469 77.9603L126.494 77.9513C126.651 77.8934 126.79 77.7957 126.883 77.6634C127.121 77.3279 126.983 76.8975 126.575 76.7019Z" fill="#06A2FF"/>
<path d="M48.0727 76.1736C47.2324 75.9493 46.3813 75.8552 45.5289 75.8024C44.6751 75.7672 43.8174 75.8015 42.9562 75.9575C42.0973 76.1057 41.2287 76.3492 40.3844 76.8463C40.2964 76.8984 40.2152 76.9658 40.1517 77.0447C39.8726 77.393 39.9895 77.8615 40.4134 78.0912L40.4419 78.1068C41.2723 78.5567 42.08 78.8056 42.8967 78.975C43.7115 79.1537 44.5286 79.231 45.3492 79.254C46.9976 79.2677 48.6302 79.1405 50.3577 78.4553L50.3765 78.4481C50.4921 78.4017 50.5975 78.3343 50.6834 78.2465C50.9957 77.9272 50.9344 77.4604 50.5464 77.2037C49.7519 76.6784 48.9119 76.3876 48.0727 76.1736Z" fill="#06A2FF"/>
<path d="M79.3378 40.5093C79.411 40.6222 79.5236 40.7231 79.6675 40.793C80.0859 40.9959 80.6249 40.8816 80.872 40.5379C81.4705 39.7041 81.793 38.8653 82.01 38.0244C82.2373 37.1837 82.329 36.3406 82.3457 35.4959C82.3336 33.8059 82.1331 32.1124 81.1518 30.4043C81.0752 30.2711 80.9474 30.1562 80.7768 30.0821C80.3583 29.8998 79.8389 30.0313 79.6177 30.3756C78.5431 32.0453 78.2493 33.7297 78.1439 35.4175C78.1139 36.2618 78.1591 37.1075 78.3392 37.9559C78.5095 38.8039 78.7858 39.6541 79.3378 40.5093Z" fill="#06A2FF"/>
<path d="M80.6183 114.786C80.1997 114.61 79.6862 114.747 79.4727 115.091C78.3964 116.825 78.1008 118.573 77.9937 120.325C77.9628 121.202 78.0071 122.079 78.1868 122.96C78.3562 123.84 78.6312 124.722 79.1822 125.609C79.2567 125.73 79.3733 125.834 79.5275 125.906C79.9456 126.102 80.478 125.982 80.7164 125.638C81.3158 124.772 81.6392 123.901 81.8571 123.028C82.0852 122.156 82.1779 121.28 82.1954 120.404C82.1851 118.65 81.9864 116.892 81.0069 115.12C80.9298 114.981 80.7971 114.861 80.6183 114.786Z" fill="#06A2FF"/>
<path d="M1059.98 285.379L1059.93 285.371C1056.05 284.705 1052.18 284.378 1048.32 284.182C1046.92 284.114 1045.53 284.076 1044.14 284.036C1044.78 283.408 1045.43 282.784 1046.07 282.151C1048.46 279.768 1050.8 277.341 1052.96 274.71C1053.21 274.411 1053.24 274.007 1053.01 273.675C1052.68 273.212 1051.96 273.056 1051.39 273.326C1048.02 274.948 1044.97 276.908 1042.1 279.008C1041.24 279.644 1040.41 280.316 1039.57 280.976C1039.47 277.232 1039.34 273.487 1039.08 269.743C1038.73 264.301 1038.26 258.86 1037.4 253.421C1037.33 252.997 1036.92 252.648 1036.38 252.597C1035.74 252.537 1035.17 252.913 1035.1 253.435C1034.34 258.884 1033.96 264.331 1033.71 269.777C1033.53 273.376 1033.46 276.974 1033.43 280.572L1032.76 279.936C1032.93 279.814 1032.87 279.832 1032.73 279.908L1032.08 279.29L1031.57 278.83L1031.33 278.604L1031.27 278.556C1031.27 278.557 1031.27 278.554 1031.27 278.553C1031.28 278.569 1031.33 278.628 1031.44 278.774L1031.33 278.642L1031.21 278.494L1031.2 278.483C1030.88 278.435 1031.86 278.513 1029.64 277.698C1029.24 277.373 1028.85 277.044 1028.43 276.73C1026.94 275.57 1025.41 274.442 1023.68 273.411C1023.3 273.184 1022.77 273.16 1022.36 273.386C1021.82 273.677 1021.67 274.272 1022.02 274.714L1022.04 274.738L1025.36 278.87L1026.21 279.906C1025.79 280.706 1027.43 280.72 1026.56 280.754L1026.69 280.967C1026.97 281.342 1026.92 281.239 1026.93 281.271L1026.99 281.346L1027.02 281.379C1027.01 281.361 1027.01 281.347 1027.02 281.338L1027.09 281.398L1027.25 281.54C1027.14 281.485 1027.08 281.441 1027.05 281.411L1027.21 281.614L1027.63 282.138L1028.12 282.714C1028.17 282.676 1028.26 282.617 1028.37 282.542L1028.37 282.542C1028.39 282.562 1028.41 282.578 1028.41 282.578L1028.41 282.578C1028.41 282.577 1028.41 282.577 1028.42 282.576L1028.42 282.58C1028.32 282.641 1028.22 282.697 1028.14 282.739L1029.37 284.185C1029.39 284.205 1029.41 284.224 1029.43 284.244C1028.02 284.314 1026.61 284.381 1025.2 284.493C1021.35 284.784 1017.49 285.177 1013.63 285.885L1013.59 285.893C1013.15 285.974 1012.79 286.261 1012.69 286.648C1012.57 287.169 1012.98 287.675 1013.62 287.777C1017.48 288.4 1021.35 288.707 1025.22 288.912C1027.02 289.014 1028.81 289.071 1030.61 289.109C1029.33 290.434 1028.09 291.785 1026.94 293.186C1024.76 295.788 1022.75 298.498 1021.16 301.426C1020.98 301.763 1021.04 302.176 1021.36 302.467C1021.8 302.864 1022.54 302.895 1023.02 302.537C1025.89 300.426 1028.52 298.206 1031.11 295.966C1031.94 295.263 1032.74 294.545 1033.54 293.831C1033.63 296.701 1033.76 299.571 1033.94 302.44C1034.28 307.882 1034.78 313.324 1035.7 318.762C1035.77 319.18 1036.17 319.525 1036.7 319.579C1037.34 319.643 1037.92 319.271 1038 318.748C1038.81 313.299 1039.21 307.852 1039.45 302.406C1039.57 299.903 1039.63 297.401 1039.67 294.899C1040.02 295.226 1040.36 295.563 1040.72 295.889C1043.44 298.36 1046.28 300.755 1049.47 302.925C1049.81 303.157 1050.3 303.221 1050.73 303.053C1051.32 302.823 1051.56 302.245 1051.28 301.762C1049.5 298.687 1047.37 295.839 1045.11 293.067C1044 291.715 1042.86 290.377 1041.69 289.06C1043.95 288.981 1046.2 288.869 1048.45 288.708C1052.31 288.426 1056.17 288.014 1060.01 287.262C1060.44 287.177 1060.79 286.898 1060.89 286.52C1061.02 285.999 1060.61 285.487 1059.98 285.379ZM1031.97 279.43L1031.86 279.296C1031.91 279.335 1031.94 279.379 1031.97 279.43Z" fill="#06A2FF"/>
<path d="M1028.14 282.739L1028.12 282.714C1027.98 282.817 1028.02 282.803 1028.14 282.739Z" fill="#06A2FF"/>
<path d="M1027.05 281.411L1027.02 281.379C1027.03 281.389 1027.03 281.399 1027.05 281.411Z" fill="#06A2FF"/>
<path d="M1031.27 278.553C1031.25 278.538 1031.26 278.548 1031.27 278.553V278.553Z" fill="#06A2FF"/>
<path d="M1082.58 285.702C1081.47 285.172 1080.34 284.917 1079.21 284.758C1078.09 284.593 1076.97 284.552 1075.85 284.583C1074.73 284.633 1073.62 284.726 1072.51 284.953C1071.4 285.17 1070.29 285.465 1069.22 286.017C1069.06 286.098 1068.94 286.221 1068.87 286.375C1068.71 286.737 1068.95 287.134 1069.39 287.261L1069.41 287.269C1071.63 287.911 1073.8 288.048 1075.97 288.037C1078.15 287.995 1080.29 287.76 1082.47 286.96L1082.49 286.951C1082.65 286.893 1082.79 286.796 1082.88 286.663C1083.12 286.328 1082.98 285.898 1082.58 285.702Z" fill="#06A2FF"/>
<path d="M1004.07 285.174C1003.23 284.949 1002.38 284.855 1001.53 284.802C1000.68 284.767 999.817 284.802 998.956 284.957C998.097 285.106 997.229 285.349 996.384 285.846C996.296 285.898 996.215 285.966 996.152 286.045C995.873 286.393 995.989 286.862 996.413 287.091L996.442 287.107C997.272 287.557 998.08 287.806 998.897 287.975C999.712 288.154 1000.53 288.231 1001.35 288.254C1003 288.268 1004.63 288.141 1006.36 287.455L1006.38 287.448C1006.49 287.402 1006.6 287.334 1006.68 287.246C1007 286.927 1006.93 286.46 1006.55 286.204C1005.75 285.678 1004.91 285.388 1004.07 285.174Z" fill="#06A2FF"/>
<path d="M1035.34 249.509C1035.41 249.622 1035.52 249.723 1035.67 249.793C1036.09 249.996 1036.62 249.882 1036.87 249.538C1037.47 248.704 1037.79 247.865 1038.01 247.024C1038.24 246.184 1038.33 245.341 1038.35 244.496C1038.33 242.806 1038.13 241.112 1037.15 239.404C1037.08 239.271 1036.95 239.156 1036.78 239.082C1036.36 238.9 1035.84 239.031 1035.62 239.376C1034.54 241.045 1034.25 242.73 1034.14 244.417C1034.11 245.262 1034.16 246.108 1034.34 246.956C1034.51 247.804 1034.79 248.654 1035.34 249.509Z" fill="#06A2FF"/>
<path d="M1036.62 323.786C1036.2 323.61 1035.69 323.747 1035.47 324.091C1034.4 325.825 1034.1 327.573 1033.99 329.325C1033.96 330.202 1034.01 331.079 1034.19 331.96C1034.36 332.84 1034.63 333.722 1035.18 334.609C1035.26 334.73 1035.37 334.834 1035.53 334.906C1035.95 335.102 1036.48 334.982 1036.72 334.638C1037.32 333.772 1037.64 332.901 1037.86 332.028C1038.09 331.156 1038.18 330.28 1038.2 329.404C1038.19 327.65 1037.99 325.892 1037.01 324.12C1036.93 323.981 1036.8 323.861 1036.62 323.786Z" fill="#06A2FF"/>
<path d="M244.414 0.0827384C225.669 1.08453 206.73 3.95079 187.253 8.73715C178.784 10.8242 157.998 17.2524 157.998 17.809C157.998 17.8925 160.308 17.3916 163.118 16.7515C203.42 7.20662 218.547 4.75779 242.451 3.78382C275.401 2.44809 298.497 8.98759 311.815 23.458C321.015 33.4481 325.519 47.0837 325.519 65.1717C325.557 84.6232 320.207 100.318 307.312 118.74C302.577 125.53 299.844 128.814 290.798 138.776C282.253 148.182 279.019 152.05 275.363 157.253C268.857 166.437 265.085 175.174 263.276 184.97C262.314 190.257 261.929 194.876 261.544 205.701C261.082 219.448 260.812 223.455 260.158 229.077C256.078 264.251 247.609 291.578 234.06 313.255C231.327 317.624 225.438 325.639 222.281 329.256C214.429 338.328 205.652 344.283 196.953 346.482L195.336 346.899V341.695C195.336 338.829 195.529 335.044 195.721 333.291C196.722 325.193 197.184 322.633 201.649 300.594C204.998 284.175 205.498 279.834 205.498 267.896C205.498 257.878 205.229 254.511 203.766 246.747C200.687 230.329 194.258 217.751 183.711 207.455C181.363 205.145 171.894 197.938 171.548 198.188C171.432 198.244 172.972 199.718 174.974 201.444C181.248 206.926 185.174 211.517 188.715 217.528C193.95 226.405 196.722 234.587 198.878 247.721C199.57 251.895 199.57 273.406 198.878 278.193C196.337 295.807 194.066 305.491 188.792 321.186C186.252 328.7 185.367 331.761 184.558 335.824C182.403 346.565 184.789 353.077 191.602 355.303C194.566 356.277 199.57 356.221 202.958 355.192C207.5 353.828 211.734 351.518 218.085 346.955C229.672 338.606 239.911 328.115 248.302 315.982C260.658 298.117 269.127 276.996 275.594 247.721C278.442 234.865 279.712 226.043 281.175 209.736C283.369 184.914 284.023 180.796 286.795 173.839C289.913 165.908 294.994 158.144 306.388 143.813C314.587 133.489 318.205 128.535 321.592 123.192C330.176 109.64 334.795 97.9527 337.066 84.0945C337.721 79.9482 337.721 62.3332 337.066 58.2148C335.681 49.8943 334.295 44.4122 332.101 38.8745C322.67 15.1375 305.04 4.11775 270.782 0.583637C266.933 0.194049 248.841 -0.167711 244.414 0.0827384Z" fill="#06A2FF"/>
<path d="M224.013 20.5639C209.656 26.0738 189.562 28.6618 167.698 27.7713C154.957 27.2704 147.143 26.6582 127.589 24.5154C121.353 23.8476 113.308 22.9849 109.69 22.6231C103.955 22.0109 101.414 21.7883 94.6778 21.1761C90.4051 20.8143 77.587 20.23 73.5068 20.23C58.4946 20.23 44.4833 22.2892 34.2442 25.9903C23.6972 29.8027 14.8439 36.8431 8.41558 46.5271C4.29685 52.7049 1.98729 58.3539 0.524566 65.7282C-0.168303 69.0954 -0.168303 82.9257 0.486074 86.4598C2.83413 98.9545 6.6834 107.943 14.5744 119.714C20.7717 128.925 28.2008 137.858 41.9042 152.69C57.3398 169.358 62.6133 176.482 65.5003 184.525C66.3471 186.806 66.5011 187.947 66.5011 190.674C66.5011 194.737 66.0392 196.017 61.3046 204.867C59.4954 208.234 57.5708 212.102 57.0319 213.493C54.1064 220.867 51.6814 228.186 50.3726 233.529C47.0238 247.499 48.602 266.394 55.1842 290.576C55.6077 292.106 56.647 296.169 57.4938 299.62C60.5347 311.697 62.9598 318.014 66.6166 323.44C73.3143 333.403 84.0538 334.711 89.7892 326.251C92.9071 321.715 94.1389 318.153 98.3731 301.289C98.835 299.536 99.9513 295.64 100.914 292.663C110.691 261.774 122.239 238.455 136.635 220.283C151.839 201.166 171.74 186.139 195.991 175.425C198.685 174.256 200.764 173.282 200.61 173.282C200.109 173.282 195.105 175.174 189.909 177.317C159.423 190.007 135.095 210.154 116.388 238.288C103.762 257.266 93.292 279.723 82.5526 310.862C80.8589 315.732 79.4347 319.795 79.3577 319.851C79.0882 320.045 75.6239 309.471 73.8917 303.126C69.4265 286.791 67.6944 273.239 68.0408 256.821C68.3103 242.879 69.696 234.642 73.5068 223.65C75.2774 218.586 76.6632 215.775 80.32 210.043C87.0177 199.468 87.7491 197.659 87.7106 191.37C87.6721 183.996 85.709 178.653 80.0505 170.36C75.3159 163.431 69.9654 157.587 58.7256 147.041C44.5987 133.795 39.8641 128.591 32.666 118.601C14.4974 93.2498 8.53105 69.8467 16.1526 53.4562C20.5793 43.9391 30.2025 36.0083 42.7126 31.6115C48.9484 29.4409 54.4914 28.3 63.8066 27.2704C69.8115 26.6025 92.1373 26.6025 103.339 27.2982C107.688 27.5486 113.231 27.8826 115.656 28.0217C118.081 28.1609 123.817 28.4948 128.359 28.7731C138.867 29.4131 179.131 29.4966 186.675 28.9122C200.148 27.8826 208.539 26.519 215.814 24.2372C219.048 23.2075 225.168 20.703 225.553 20.2021C225.861 19.8682 225.822 19.8682 224.013 20.5639Z" fill="#06A2FF"/>
<path d="M241.758 30.0549C232.049 30.719 222.24 32.6191 212.152 35.792C207.766 37.1756 197 41.437 197 41.8059C197 41.8613 198.196 41.5292 199.652 41.1049C220.525 34.7774 228.361 33.154 240.741 32.5084C257.807 31.6229 269.769 35.9581 276.667 45.5508C281.432 52.1735 283.765 61.2128 283.765 73.2037C283.785 86.0985 281.014 96.503 274.335 108.715C271.882 113.216 270.467 115.393 265.782 121.997C261.356 128.233 259.681 130.797 257.787 134.247C254.418 140.334 252.464 146.127 251.527 152.62C251.029 156.125 250.829 159.188 250.63 166.364C250.391 175.477 250.251 178.133 249.912 181.86C247.799 205.178 243.413 223.293 236.395 237.664C234.98 240.56 231.929 245.873 230.294 248.271C226.227 254.285 221.682 258.233 217.176 259.69L216.339 259.967V256.517C216.339 254.617 216.438 252.108 216.538 250.946C217.056 245.578 217.296 243.881 219.608 229.27C221.343 218.386 221.602 215.508 221.602 207.594C221.602 200.953 221.462 198.721 220.705 193.574C219.11 182.69 215.78 174.352 210.318 167.526C209.102 165.995 204.197 161.217 204.018 161.383C203.958 161.42 204.755 162.398 205.792 163.541C209.042 167.176 211.075 170.219 212.91 174.204C215.621 180.089 217.056 185.512 218.173 194.22C218.532 196.987 218.532 211.247 218.173 214.42C216.857 226.097 215.681 232.517 212.949 242.921C211.634 247.902 211.175 249.931 210.756 252.625C209.64 259.745 210.876 264.062 214.405 265.538C215.94 266.184 218.532 266.147 220.286 265.464C222.639 264.56 224.832 263.029 228.121 260.004C234.122 254.469 239.425 247.515 243.772 239.472C250.171 227.628 254.557 213.627 257.907 194.22C259.382 185.697 260.04 179.849 260.798 169.039C261.934 152.584 262.273 149.853 263.708 145.241C265.323 139.984 267.955 134.837 273.856 125.336C278.103 118.492 279.977 115.209 281.731 111.667C286.177 102.683 288.57 94.9349 289.746 85.748C290.085 82.9993 290.085 71.322 289.746 68.5918C289.028 63.076 288.31 59.4418 287.174 55.7707C282.289 40.035 273.158 32.7297 255.415 30.3869C253.421 30.1286 244.051 29.8888 241.758 30.0549Z" fill="#06A2FF"/>
<path d="M333.697 270.775C333.396 273.988 332.483 276.877 330.958 279.442C329.432 282.008 327.283 284.03 324.51 285.509C321.736 286.965 318.304 287.693 314.213 287.693C310.169 287.693 306.644 286.723 303.639 284.781C300.635 282.84 298.301 280.101 296.636 276.565C294.996 273.006 294.175 268.846 294.175 264.084V259.474C294.175 254.689 295.007 250.529 296.671 246.993C298.358 243.457 300.739 240.718 303.813 238.777C306.887 236.812 310.515 235.83 314.698 235.83C318.628 235.83 321.944 236.558 324.648 238.014C327.352 239.47 329.455 241.493 330.958 244.081C332.46 246.646 333.373 249.605 333.697 252.956H325.966C325.526 249.582 324.475 246.935 322.811 245.017C321.17 243.076 318.466 242.105 314.698 242.105C311.902 242.105 309.556 242.81 307.661 244.22C305.789 245.606 304.367 247.594 303.397 250.183C302.449 252.748 301.975 255.822 301.975 259.404V264.084C301.975 267.436 302.403 270.417 303.258 273.029C304.136 275.64 305.465 277.697 307.245 279.2C309.048 280.679 311.37 281.418 314.213 281.418C316.871 281.418 318.997 281.002 320.592 280.17C322.21 279.338 323.423 278.125 324.232 276.53C325.064 274.936 325.642 273.017 325.966 270.775H333.697ZM357.072 287H349.619V233.75H357.072V287ZM382.563 287H375.11V249.489H382.563V287ZM374.589 239.574C374.589 238.419 374.959 237.448 375.699 236.662C376.438 235.876 377.502 235.483 378.888 235.483C380.252 235.483 381.315 235.876 382.078 236.662C382.84 237.448 383.222 238.419 383.222 239.574C383.222 240.707 382.84 241.666 382.078 242.452C381.315 243.237 380.252 243.63 378.888 243.63C377.502 243.63 376.438 243.237 375.699 242.452C374.959 241.666 374.589 240.707 374.589 239.574ZM407.464 287H400.011V249.489H407.048L407.464 257.498V287ZM403.2 266.789C403.246 263.276 403.894 260.167 405.142 257.463C406.413 254.759 408.169 252.644 410.411 251.119C412.676 249.57 415.311 248.796 418.315 248.796C420.765 248.796 422.88 249.258 424.66 250.183C426.462 251.084 427.849 252.54 428.82 254.551C429.814 256.562 430.311 259.254 430.311 262.628V287H422.857V262.559C422.857 260.687 422.58 259.196 422.025 258.087C421.493 256.978 420.708 256.18 419.668 255.695C418.628 255.186 417.345 254.932 415.819 254.932C414.294 254.932 412.93 255.244 411.729 255.868C410.527 256.492 409.487 257.359 408.608 258.468C407.753 259.578 407.095 260.849 406.632 262.282C406.17 263.715 405.939 265.229 405.939 266.823L403.2 266.789ZM455.316 287H447.862V249.489H455.316V287ZM454.727 233.958H463.394L453.999 244.254H447.966L454.727 233.958ZM488.434 281.696C489.866 281.696 491.184 281.407 492.386 280.829C493.588 280.228 494.558 279.419 495.298 278.402C496.061 277.362 496.488 276.172 496.581 274.832H503.618C503.526 277.166 502.786 279.315 501.399 281.28C500.013 283.221 498.187 284.781 495.922 285.96C493.68 287.116 491.195 287.693 488.468 287.693C484.678 287.693 481.523 286.838 479.004 285.128C476.508 283.418 474.647 281.141 473.422 278.298C472.197 275.432 471.585 272.301 471.585 268.903V267.586C471.585 264.165 472.197 261.034 473.422 258.191C474.67 255.348 476.542 253.072 479.039 251.361C481.535 249.651 484.678 248.796 488.468 248.796C491.427 248.796 494.027 249.397 496.269 250.599C498.51 251.777 500.267 253.407 501.538 255.487C502.832 257.567 503.526 259.959 503.618 262.663H496.581C496.488 261.207 496.095 259.89 495.402 258.711C494.732 257.509 493.796 256.562 492.594 255.868C491.415 255.152 490.017 254.793 488.399 254.793C485.972 254.793 484.077 255.417 482.713 256.666C481.35 257.914 480.391 259.52 479.836 261.484C479.304 263.449 479.039 265.483 479.039 267.586V268.903C479.039 271.03 479.304 273.075 479.836 275.04C480.367 277.004 481.315 278.61 482.679 279.858C484.065 281.083 485.984 281.696 488.434 281.696ZM539.821 261.45C539.821 259.347 539.209 257.671 537.984 256.423C536.782 255.175 534.979 254.551 532.576 254.551C531.12 254.551 529.837 254.805 528.727 255.313C527.641 255.822 526.798 256.492 526.197 257.324C525.596 258.156 525.295 259.092 525.295 260.132H517.807C517.807 258.214 518.431 256.4 519.679 254.689C520.927 252.956 522.684 251.546 524.949 250.46C527.237 249.351 529.929 248.796 533.026 248.796C535.8 248.796 538.25 249.27 540.376 250.217C542.525 251.142 544.212 252.552 545.437 254.447C546.662 256.319 547.275 258.676 547.275 261.519V278.576C547.275 280.055 547.39 281.488 547.621 282.875C547.853 284.238 548.199 285.428 548.662 286.445V287H540.965C540.595 286.191 540.307 285.128 540.099 283.811C539.914 282.47 539.821 281.199 539.821 279.997V261.45ZM541.069 269.077H534.864C531.489 269.077 528.912 269.654 527.133 270.81C525.353 271.943 524.463 273.572 524.463 275.698C524.463 277.339 525.018 278.726 526.127 279.858C527.26 280.991 528.878 281.557 530.981 281.557C532.83 281.557 534.448 281.176 535.834 280.413C537.221 279.65 538.319 278.714 539.128 277.605C539.937 276.472 540.364 275.398 540.411 274.381L543.149 277.813C542.941 278.761 542.491 279.801 541.797 280.933C541.104 282.066 540.191 283.152 539.058 284.192C537.926 285.209 536.574 286.052 535.002 286.723C533.454 287.37 531.697 287.693 529.733 287.693C527.214 287.693 524.995 287.208 523.077 286.237C521.181 285.243 519.691 283.903 518.604 282.216C517.541 280.529 517.01 278.645 517.01 276.565C517.01 272.543 518.512 269.481 521.516 267.378C524.544 265.275 528.716 264.223 534.032 264.223H541L541.069 269.077ZM585.974 276.912C585.974 276.056 585.766 275.271 585.35 274.554C584.957 273.815 584.16 273.144 582.958 272.543C581.779 271.919 580 271.365 577.619 270.879C574.915 270.325 572.546 269.597 570.512 268.695C568.501 267.771 566.941 266.604 565.832 265.194C564.723 263.784 564.168 262.039 564.168 259.959C564.168 257.925 564.746 256.076 565.901 254.412C567.057 252.725 568.698 251.373 570.824 250.356C572.95 249.316 575.458 248.796 578.347 248.796C581.421 248.796 584.056 249.327 586.251 250.391C588.447 251.431 590.123 252.84 591.278 254.62C592.457 256.4 593.046 258.387 593.046 260.583H585.593C585.593 259.081 584.969 257.694 583.721 256.423C582.496 255.152 580.704 254.516 578.347 254.516C576.775 254.516 575.481 254.77 574.464 255.279C573.447 255.764 572.696 256.4 572.211 257.186C571.749 257.948 571.517 258.769 571.517 259.647C571.517 260.525 571.737 261.288 572.176 261.935C572.638 262.582 573.459 263.16 574.638 263.668C575.816 264.154 577.503 264.639 579.699 265.125C582.657 265.772 585.153 266.569 587.187 267.517C589.221 268.464 590.758 269.666 591.798 271.122C592.838 272.555 593.358 274.346 593.358 276.496C593.358 278.668 592.746 280.61 591.521 282.32C590.296 284.007 588.563 285.324 586.321 286.272C584.102 287.22 581.49 287.693 578.486 287.693C575.134 287.693 572.292 287.092 569.957 285.891C567.646 284.689 565.89 283.152 564.688 281.28C563.486 279.385 562.885 277.409 562.885 275.352H570.2C570.316 276.969 570.789 278.264 571.621 279.234C572.453 280.205 573.493 280.91 574.742 281.349C575.99 281.765 577.261 281.973 578.555 281.973C580.173 281.973 581.525 281.754 582.611 281.314C583.721 280.875 584.553 280.274 585.107 279.512C585.685 278.749 585.974 277.882 585.974 276.912ZM638.862 287L638.931 280.76H649.505C652.879 280.76 655.688 280.043 657.929 278.61C660.194 277.177 661.893 275.155 663.026 272.543C664.181 269.909 664.759 266.789 664.759 263.183V260.271C664.759 256.55 664.181 253.395 663.026 250.807C661.893 248.195 660.217 246.207 657.999 244.844C655.803 243.48 653.134 242.798 649.99 242.798H638.654V236.523H649.99C654.451 236.523 658.369 237.506 661.743 239.47C665.117 241.412 667.752 244.174 669.647 247.756C671.542 251.315 672.49 255.51 672.49 260.34V263.183C672.49 268.037 671.542 272.243 669.647 275.802C667.752 279.361 665.083 282.123 661.639 284.088C658.195 286.029 654.151 287 649.505 287H638.862ZM643.126 287H635.361V236.523H643.126V287ZM704.88 287.693C701.274 287.693 698.154 286.908 695.519 285.336C692.884 283.741 690.839 281.58 689.383 278.853C687.95 276.126 687.234 273.029 687.234 269.562V268.106C687.234 264.108 687.996 260.664 689.522 257.775C691.047 254.886 693.081 252.667 695.623 251.119C698.166 249.57 700.939 248.796 703.944 248.796C707.549 248.796 710.507 249.593 712.819 251.188C715.153 252.76 716.886 254.932 718.019 257.706C719.151 260.456 719.717 263.611 719.717 267.17V270.429H691.22V264.778H712.298V264.188C712.229 262.617 711.917 261.115 711.362 259.682C710.808 258.249 709.93 257.082 708.728 256.18C707.549 255.256 705.954 254.793 703.944 254.793C702.048 254.793 700.407 255.325 699.021 256.388C697.657 257.451 696.594 258.977 695.831 260.964C695.092 262.952 694.722 265.333 694.722 268.106V269.562C694.722 271.827 695.138 273.872 695.97 275.698C696.802 277.524 698.004 278.98 699.575 280.066C701.17 281.153 703.077 281.696 705.296 281.696C707.445 281.696 709.294 281.268 710.842 280.413C712.414 279.558 713.778 278.368 714.933 276.842L719.128 280.552C717.949 282.378 716.204 284.03 713.893 285.509C711.582 286.965 708.577 287.693 704.88 287.693ZM741.949 287H734.496V249.489H741.533L741.949 257.498V287ZM737.685 266.789C737.731 263.276 738.379 260.167 739.627 257.463C740.898 254.759 742.654 252.644 744.896 251.119C747.161 249.57 749.796 248.796 752.8 248.796C755.25 248.796 757.365 249.258 759.145 250.183C760.947 251.084 762.334 252.54 763.305 254.551C764.299 256.562 764.796 259.254 764.796 262.628V287H757.342V262.559C757.342 260.687 757.065 259.196 756.51 258.087C755.978 256.978 755.192 256.18 754.152 255.695C753.112 255.186 751.83 254.932 750.304 254.932C748.779 254.932 747.415 255.244 746.213 255.868C745.012 256.492 743.972 257.359 743.093 258.468C742.238 259.578 741.58 260.849 741.117 262.282C740.655 263.715 740.424 265.229 740.424 266.823L737.685 266.789ZM798.225 255.036H777.459V249.489H798.225V255.036ZM791.396 240.337V277.12C791.396 278.345 791.569 279.269 791.916 279.893C792.285 280.517 792.771 280.933 793.372 281.141C793.996 281.349 794.689 281.453 795.452 281.453C796.006 281.453 796.561 281.418 797.116 281.349C797.67 281.257 798.098 281.176 798.398 281.106L798.433 286.931C797.832 287.139 797.093 287.312 796.214 287.451C795.359 287.612 794.342 287.693 793.164 287.693C791.43 287.693 789.859 287.37 788.449 286.723C787.062 286.052 785.964 284.966 785.155 283.464C784.346 281.938 783.942 279.916 783.942 277.397V240.337H791.396ZM834.602 261.45C834.602 259.347 833.989 257.671 832.764 256.423C831.562 255.175 829.76 254.551 827.356 254.551C825.9 254.551 824.617 254.805 823.508 255.313C822.422 255.822 821.578 256.492 820.977 257.324C820.376 258.156 820.076 259.092 820.076 260.132H812.587C812.587 258.214 813.211 256.4 814.459 254.689C815.708 252.956 817.464 251.546 819.729 250.46C822.017 249.351 824.71 248.796 827.807 248.796C830.58 248.796 833.03 249.27 835.156 250.217C837.306 251.142 838.993 252.552 840.218 254.447C841.443 256.319 842.055 258.676 842.055 261.519V278.576C842.055 280.055 842.171 281.488 842.402 282.875C842.633 284.238 842.98 285.428 843.442 286.445V287H835.746C835.376 286.191 835.087 285.128 834.879 283.811C834.694 282.47 834.602 281.199 834.602 279.997V261.45ZM835.85 269.077H829.644C826.27 269.077 823.693 269.654 821.913 270.81C820.133 271.943 819.244 273.572 819.244 275.698C819.244 277.339 819.798 278.726 820.908 279.858C822.04 280.991 823.658 281.557 825.761 281.557C827.61 281.557 829.228 281.176 830.615 280.413C832.001 279.65 833.099 278.714 833.908 277.605C834.717 276.472 835.145 275.398 835.191 274.381L837.93 277.813C837.722 278.761 837.271 279.801 836.578 280.933C835.884 282.066 834.971 283.152 833.839 284.192C832.706 285.209 831.354 286.052 829.783 286.723C828.234 287.37 826.478 287.693 824.513 287.693C821.994 287.693 819.775 287.208 817.857 286.237C815.962 285.243 814.471 283.903 813.385 282.216C812.322 280.529 811.79 278.645 811.79 276.565C811.79 272.543 813.292 269.481 816.297 267.378C819.325 265.275 823.496 264.223 828.812 264.223H835.78L835.85 269.077ZM831.343 233.75H840.01L830.615 244.046H824.583L831.343 233.75ZM866.783 287H859.33V249.489H866.506L866.783 256.042V287ZM878.293 256.215C877.761 256.122 877.23 256.053 876.698 256.007C876.167 255.961 875.612 255.938 875.034 255.938C873.093 255.938 871.463 256.319 870.146 257.082C868.852 257.821 867.846 258.861 867.13 260.202C866.436 261.542 866.02 263.102 865.882 264.882L863.975 265.471C863.975 262.374 864.379 259.578 865.188 257.082C866.02 254.562 867.28 252.552 868.967 251.049C870.654 249.547 872.804 248.796 875.415 248.796C875.878 248.796 876.409 248.842 877.01 248.935C877.634 249.027 878.073 249.143 878.328 249.281L878.293 256.215ZM899.762 287H892.308V249.489H899.762V287ZM891.788 239.574C891.788 238.419 892.158 237.448 892.898 236.662C893.637 235.876 894.701 235.483 896.087 235.483C897.451 235.483 898.514 235.876 899.277 236.662C900.039 237.448 900.421 238.419 900.421 239.574C900.421 240.707 900.039 241.666 899.277 242.452C898.514 243.237 897.451 243.63 896.087 243.63C894.701 243.63 893.637 243.237 892.898 242.452C892.158 241.666 891.788 240.707 891.788 239.574ZM938.877 261.45C938.877 259.347 938.265 257.671 937.04 256.423C935.838 255.175 934.035 254.551 931.632 254.551C930.176 254.551 928.893 254.805 927.784 255.313C926.697 255.822 925.854 256.492 925.253 257.324C924.652 258.156 924.351 259.092 924.351 260.132H916.863C916.863 258.214 917.487 256.4 918.735 254.689C919.983 252.956 921.74 251.546 924.005 250.46C926.293 249.351 928.985 248.796 932.082 248.796C934.856 248.796 937.306 249.27 939.432 250.217C941.581 251.142 943.269 252.552 944.493 254.447C945.718 256.319 946.331 258.676 946.331 261.519V278.576C946.331 280.055 946.446 281.488 946.678 282.875C946.909 284.238 947.255 285.428 947.718 286.445V287H940.021C939.652 286.191 939.363 285.128 939.155 283.811C938.97 282.47 938.877 281.199 938.877 279.997V261.45ZM940.125 269.077H933.92C930.545 269.077 927.968 269.654 926.189 270.81C924.409 271.943 923.519 273.572 923.519 275.698C923.519 277.339 924.074 278.726 925.183 279.858C926.316 280.991 927.934 281.557 930.037 281.557C931.886 281.557 933.504 281.176 934.89 280.413C936.277 279.65 937.375 278.714 938.184 277.605C938.993 276.472 939.42 275.398 939.467 274.381L942.205 277.813C941.997 278.761 941.547 279.801 940.853 280.933C940.16 282.066 939.247 283.152 938.115 284.192C936.982 285.209 935.63 286.052 934.058 286.723C932.51 287.37 930.753 287.693 928.789 287.693C926.27 287.693 924.051 287.208 922.133 286.237C920.237 285.243 918.747 283.903 917.66 282.216C916.597 280.529 916.066 278.645 916.066 276.565C916.066 272.543 917.568 269.481 920.573 267.378C923.6 265.275 927.772 264.223 933.088 264.223H940.056L940.125 269.077ZM985.03 276.912C985.03 276.056 984.822 275.271 984.406 274.554C984.013 273.815 983.216 273.144 982.014 272.543C980.835 271.919 979.056 271.365 976.675 270.879C973.971 270.325 971.602 269.597 969.568 268.695C967.557 267.771 965.997 266.604 964.888 265.194C963.779 263.784 963.224 262.039 963.224 259.959C963.224 257.925 963.802 256.076 964.957 254.412C966.113 252.725 967.754 251.373 969.88 250.356C972.006 249.316 974.514 248.796 977.403 248.796C980.477 248.796 983.112 249.327 985.307 250.391C987.503 251.431 989.179 252.84 990.334 254.62C991.513 256.4 992.102 258.387 992.102 260.583H984.649C984.649 259.081 984.025 257.694 982.777 256.423C981.552 255.152 979.76 254.516 977.403 254.516C975.831 254.516 974.537 254.77 973.52 255.279C972.503 255.764 971.752 256.4 971.267 257.186C970.805 257.948 970.573 258.769 970.573 259.647C970.573 260.525 970.793 261.288 971.232 261.935C971.694 262.582 972.515 263.16 973.694 263.668C974.872 264.154 976.559 264.639 978.755 265.125C981.713 265.772 984.21 266.569 986.243 267.517C988.277 268.464 989.814 269.666 990.854 271.122C991.894 272.555 992.414 274.346 992.414 276.496C992.414 278.668 991.802 280.61 990.577 282.32C989.352 284.007 987.619 285.324 985.377 286.272C983.158 287.22 980.546 287.693 977.542 287.693C974.191 287.693 971.348 287.092 969.013 285.891C966.702 284.689 964.946 283.152 963.744 281.28C962.542 279.385 961.941 277.409 961.941 275.352H969.256C969.372 276.969 969.845 278.264 970.677 279.234C971.51 280.205 972.55 280.91 973.798 281.349C975.046 281.765 976.317 281.973 977.611 281.973C979.229 281.973 980.581 281.754 981.667 281.314C982.777 280.875 983.609 280.274 984.163 279.512C984.741 278.749 985.03 277.882 985.03 276.912Z" fill="#06A2FF"/>
<path d="M103.977 76.3785L103.932 76.371C100.045 75.7048 96.1798 75.3783 92.3194 75.1823C90.9249 75.1136 89.5318 75.0757 88.1386 75.0362C88.781 74.4079 89.4279 73.784 90.0656 73.1511C92.4603 70.768 94.8011 68.3408 96.9635 65.71C97.2082 65.4108 97.2437 65.0068 97.0076 64.6747C96.6788 64.2122 95.9561 64.0563 95.3937 64.3265C92.0164 65.9483 88.9718 67.908 86.1026 70.0077C85.2364 70.6444 84.4116 71.3161 83.5731 71.9764C83.474 68.2317 83.3405 64.4872 83.0847 60.7433C82.7332 55.3013 82.2574 49.86 81.3978 44.4211C81.3312 43.997 80.9203 43.648 80.3803 43.5971C79.7441 43.5372 79.1695 43.9125 79.0964 44.4355C78.3374 49.8843 77.9613 55.3309 77.7099 60.7768C77.5307 64.3755 77.4642 67.9738 77.4308 71.5719L76.762 70.9356C76.9262 70.8143 76.8731 70.8321 76.7335 70.9082L76.0843 70.2902L75.5746 69.83L75.3253 69.6044L75.271 69.5561C75.271 69.5574 75.2684 69.554 75.2669 69.5528C75.281 69.5689 75.3278 69.628 75.4361 69.7737L75.329 69.6416L75.2053 69.494L75.1958 69.4834C74.8798 69.4348 75.8566 69.5131 73.6378 68.6976C73.2387 68.3734 72.8475 68.0435 72.4326 67.7298C70.9359 66.5704 69.407 65.4418 67.684 64.411C67.3024 64.1837 66.7723 64.1599 66.3554 64.3857C65.8177 64.6771 65.6694 65.2718 66.0236 65.7139L66.043 65.7376L69.3573 69.87L70.2092 70.9062C69.7914 71.7057 71.4304 71.7204 70.5649 71.7537L70.6925 71.967C70.9737 72.342 70.9168 72.2388 70.9335 72.2707L70.9942 72.3461L71.0206 72.3793C71.0118 72.3609 71.0097 72.3468 71.0166 72.3376L71.0865 72.398L71.2455 72.5398C71.1444 72.4851 71.0756 72.441 71.046 72.4108L71.2089 72.6136L71.6297 73.1379L72.1207 73.7142C72.1728 73.6758 72.2563 73.6174 72.3672 73.5416L72.3677 73.5421C72.3903 73.5623 72.411 73.5781 72.411 73.5781L72.4125 73.5784C72.4141 73.5774 72.4146 73.5772 72.4162 73.5762L72.4192 73.5796C72.3155 73.6408 72.2181 73.6971 72.1418 73.7386L73.3745 75.1845C73.3909 75.2045 73.4095 75.2235 73.4259 75.2435C72.0179 75.3139 70.61 75.3811 69.2012 75.4935C65.3484 75.7843 61.4945 76.1773 57.6312 76.8854L57.5862 76.8934C57.1466 76.9745 56.7852 77.2613 56.6931 77.6477C56.5685 78.1693 56.9821 78.6751 57.6167 78.7774C61.4777 79.3998 65.3484 79.7069 69.2204 79.9118C71.0152 80.0145 72.8114 80.0713 74.6064 80.1093C73.3301 81.4335 72.0948 82.7849 70.9366 84.1856C68.7616 86.788 66.7505 89.4982 65.1615 92.4256C64.9806 92.7634 65.0418 93.1758 65.3625 93.4675C65.7977 93.864 66.5414 93.8952 67.0237 93.5375C69.8921 91.4259 72.5198 89.206 75.1135 86.9664C75.9373 86.2629 76.7366 85.5452 77.5426 84.831C77.6303 87.7011 77.7561 90.571 77.9437 93.4404C78.2844 98.8825 78.7833 104.324 79.6965 109.762C79.7669 110.18 80.1711 110.525 80.7049 110.579C81.341 110.643 81.9201 110.271 81.9979 109.748C82.8111 104.299 83.2103 98.8519 83.4509 93.4063C83.5684 90.9035 83.6334 88.4009 83.6737 85.8986C84.0248 86.2264 84.3618 86.5631 84.7154 86.8889C87.4367 89.3603 90.2786 91.7546 93.4692 93.925C93.811 94.157 94.3004 94.2205 94.7275 94.0533C95.315 93.8232 95.5644 93.2451 95.2846 92.762C93.5033 89.6873 91.3685 86.839 89.1147 84.0675C87.9984 82.7154 86.8601 81.3775 85.6908 80.0596C87.9451 79.9805 90.1977 79.8687 92.4486 79.708C96.3129 79.4262 100.172 79.0139 104.009 78.2618C104.437 78.1774 104.79 77.8977 104.886 77.5201C105.019 76.9986 104.611 76.4873 103.977 76.3785ZM75.9702 70.4297L75.8611 70.2958C75.9053 70.3345 75.9427 70.3793 75.9702 70.4297Z" fill="#06A2FF"/>
<path d="M72.1419 73.7387L72.1209 73.7142C71.9814 73.817 72.0231 73.8035 72.1419 73.7387Z" fill="#06A2FF"/>
<path d="M71.0466 72.4114L71.0206 72.3792C71.0256 72.3887 71.0343 72.3989 71.0466 72.4114Z" fill="#06A2FF"/>
<path d="M75.2675 69.5535C75.2535 69.5378 75.261 69.5484 75.2675 69.5535V69.5535Z" fill="#06A2FF"/>
<path d="M126.575 76.7019C125.468 76.1716 124.336 75.9173 123.215 75.7582C122.091 75.5924 120.97 75.5522 119.852 75.5834C118.735 75.6328 117.618 75.7256 116.51 75.9525C115.402 76.1703 114.291 76.4646 113.218 77.0172C113.062 77.0977 112.936 77.221 112.87 77.3752C112.715 77.7371 112.946 78.1336 113.386 78.261L113.412 78.2685C115.634 78.9112 117.798 79.0477 119.973 79.0367C122.147 78.9946 124.293 78.7596 126.469 77.9603L126.494 77.9513C126.651 77.8934 126.79 77.7957 126.883 77.6634C127.121 77.3279 126.983 76.8975 126.575 76.7019Z" fill="#06A2FF"/>
<path d="M48.0727 76.1736C47.2324 75.9493 46.3813 75.8552 45.5289 75.8024C44.6751 75.7672 43.8174 75.8015 42.9562 75.9575C42.0973 76.1057 41.2287 76.3492 40.3844 76.8463C40.2964 76.8984 40.2152 76.9658 40.1517 77.0447C39.8726 77.393 39.9895 77.8615 40.4134 78.0912L40.4419 78.1068C41.2723 78.5567 42.08 78.8056 42.8967 78.975C43.7115 79.1537 44.5286 79.231 45.3492 79.254C46.9976 79.2677 48.6302 79.1405 50.3577 78.4553L50.3765 78.4481C50.4921 78.4017 50.5975 78.3343 50.6834 78.2465C50.9957 77.9272 50.9344 77.4604 50.5464 77.2037C49.7519 76.6784 48.9119 76.3876 48.0727 76.1736Z" fill="#06A2FF"/>
<path d="M79.3378 40.5093C79.411 40.6222 79.5236 40.7231 79.6675 40.793C80.0859 40.9959 80.6249 40.8816 80.872 40.5379C81.4705 39.7041 81.793 38.8653 82.01 38.0244C82.2373 37.1837 82.329 36.3406 82.3457 35.4959C82.3336 33.8059 82.1331 32.1124 81.1518 30.4043C81.0752 30.2711 80.9474 30.1562 80.7768 30.0821C80.3583 29.8998 79.8389 30.0313 79.6177 30.3756C78.5431 32.0453 78.2493 33.7297 78.1439 35.4175C78.1139 36.2618 78.1591 37.1075 78.3392 37.9559C78.5095 38.8039 78.7858 39.6541 79.3378 40.5093Z" fill="#06A2FF"/>
<path d="M80.6183 114.786C80.1997 114.61 79.6862 114.747 79.4727 115.091C78.3964 116.825 78.1008 118.573 77.9937 120.325C77.9628 121.202 78.0071 122.079 78.1868 122.96C78.3562 123.84 78.6312 124.722 79.1822 125.609C79.2567 125.73 79.3733 125.834 79.5275 125.906C79.9456 126.102 80.478 125.982 80.7164 125.638C81.3158 124.772 81.6392 123.901 81.8571 123.028C82.0852 122.156 82.1779 121.28 82.1954 120.404C82.1851 118.65 81.9864 116.892 81.0069 115.12C80.9298 114.981 80.7971 114.861 80.6183 114.786Z" fill="#06A2FF"/>
<path d="M1059.98 285.379L1059.93 285.371C1056.05 284.705 1052.18 284.378 1048.32 284.182C1046.92 284.114 1045.53 284.076 1044.14 284.036C1044.78 283.408 1045.43 282.784 1046.07 282.151C1048.46 279.768 1050.8 277.341 1052.96 274.71C1053.21 274.411 1053.24 274.007 1053.01 273.675C1052.68 273.212 1051.96 273.056 1051.39 273.326C1048.02 274.948 1044.97 276.908 1042.1 279.008C1041.24 279.644 1040.41 280.316 1039.57 280.976C1039.47 277.232 1039.34 273.487 1039.08 269.743C1038.73 264.301 1038.26 258.86 1037.4 253.421C1037.33 252.997 1036.92 252.648 1036.38 252.597C1035.74 252.537 1035.17 252.913 1035.1 253.435C1034.34 258.884 1033.96 264.331 1033.71 269.777C1033.53 273.376 1033.46 276.974 1033.43 280.572L1032.76 279.936C1032.93 279.814 1032.87 279.832 1032.73 279.908L1032.08 279.29L1031.57 278.83L1031.33 278.604L1031.27 278.556C1031.27 278.557 1031.27 278.554 1031.27 278.553C1031.28 278.569 1031.33 278.628 1031.44 278.774L1031.33 278.642L1031.21 278.494L1031.2 278.483C1030.88 278.435 1031.86 278.513 1029.64 277.698C1029.24 277.373 1028.85 277.044 1028.43 276.73C1026.94 275.57 1025.41 274.442 1023.68 273.411C1023.3 273.184 1022.77 273.16 1022.36 273.386C1021.82 273.677 1021.67 274.272 1022.02 274.714L1022.04 274.738L1025.36 278.87L1026.21 279.906C1025.79 280.706 1027.43 280.72 1026.56 280.754L1026.69 280.967C1026.97 281.342 1026.92 281.239 1026.93 281.271L1026.99 281.346L1027.02 281.379C1027.01 281.361 1027.01 281.347 1027.02 281.338L1027.09 281.398L1027.25 281.54C1027.14 281.485 1027.08 281.441 1027.05 281.411L1027.21 281.614L1027.63 282.138L1028.12 282.714C1028.17 282.676 1028.26 282.617 1028.37 282.542L1028.37 282.542C1028.39 282.562 1028.41 282.578 1028.41 282.578L1028.41 282.578C1028.41 282.577 1028.41 282.577 1028.42 282.576L1028.42 282.58C1028.32 282.641 1028.22 282.697 1028.14 282.739L1029.37 284.185C1029.39 284.205 1029.41 284.224 1029.43 284.244C1028.02 284.314 1026.61 284.381 1025.2 284.493C1021.35 284.784 1017.49 285.177 1013.63 285.885L1013.59 285.893C1013.15 285.974 1012.79 286.261 1012.69 286.648C1012.57 287.169 1012.98 287.675 1013.62 287.777C1017.48 288.4 1021.35 288.707 1025.22 288.912C1027.02 289.014 1028.81 289.071 1030.61 289.109C1029.33 290.434 1028.09 291.785 1026.94 293.186C1024.76 295.788 1022.75 298.498 1021.16 301.426C1020.98 301.763 1021.04 302.176 1021.36 302.467C1021.8 302.864 1022.54 302.895 1023.02 302.537C1025.89 300.426 1028.52 298.206 1031.11 295.966C1031.94 295.263 1032.74 294.545 1033.54 293.831C1033.63 296.701 1033.76 299.571 1033.94 302.44C1034.28 307.882 1034.78 313.324 1035.7 318.762C1035.77 319.18 1036.17 319.525 1036.7 319.579C1037.34 319.643 1037.92 319.271 1038 318.748C1038.81 313.299 1039.21 307.852 1039.45 302.406C1039.57 299.903 1039.63 297.401 1039.67 294.899C1040.02 295.226 1040.36 295.563 1040.72 295.889C1043.44 298.36 1046.28 300.755 1049.47 302.925C1049.81 303.157 1050.3 303.221 1050.73 303.053C1051.32 302.823 1051.56 302.245 1051.28 301.762C1049.5 298.687 1047.37 295.839 1045.11 293.067C1044 291.715 1042.86 290.377 1041.69 289.06C1043.95 288.981 1046.2 288.869 1048.45 288.708C1052.31 288.426 1056.17 288.014 1060.01 287.262C1060.44 287.177 1060.79 286.898 1060.89 286.52C1061.02 285.999 1060.61 285.487 1059.98 285.379ZM1031.97 279.43L1031.86 279.296C1031.91 279.335 1031.94 279.379 1031.97 279.43Z" fill="#06A2FF"/>
<path d="M1028.14 282.739L1028.12 282.714C1027.98 282.817 1028.02 282.803 1028.14 282.739Z" fill="#06A2FF"/>
<path d="M1027.05 281.411L1027.02 281.379C1027.03 281.389 1027.03 281.399 1027.05 281.411Z" fill="#06A2FF"/>
<path d="M1031.27 278.553C1031.25 278.538 1031.26 278.548 1031.27 278.553V278.553Z" fill="#06A2FF"/>
<path d="M1082.58 285.702C1081.47 285.172 1080.34 284.917 1079.21 284.758C1078.09 284.593 1076.97 284.552 1075.85 284.583C1074.73 284.633 1073.62 284.726 1072.51 284.953C1071.4 285.17 1070.29 285.465 1069.22 286.017C1069.06 286.098 1068.94 286.221 1068.87 286.375C1068.71 286.737 1068.95 287.134 1069.39 287.261L1069.41 287.269C1071.63 287.911 1073.8 288.048 1075.97 288.037C1078.15 287.995 1080.29 287.76 1082.47 286.96L1082.49 286.951C1082.65 286.893 1082.79 286.796 1082.88 286.663C1083.12 286.328 1082.98 285.898 1082.58 285.702Z" fill="#06A2FF"/>
<path d="M1004.07 285.174C1003.23 284.949 1002.38 284.855 1001.53 284.802C1000.68 284.767 999.817 284.802 998.956 284.957C998.097 285.106 997.229 285.349 996.384 285.846C996.296 285.898 996.215 285.966 996.152 286.045C995.873 286.393 995.989 286.862 996.413 287.091L996.442 287.107C997.272 287.557 998.08 287.806 998.897 287.975C999.712 288.154 1000.53 288.231 1001.35 288.254C1003 288.268 1004.63 288.141 1006.36 287.455L1006.38 287.448C1006.49 287.402 1006.6 287.334 1006.68 287.246C1007 286.927 1006.93 286.46 1006.55 286.204C1005.75 285.678 1004.91 285.388 1004.07 285.174Z" fill="#06A2FF"/>
<path d="M1035.34 249.509C1035.41 249.622 1035.52 249.723 1035.67 249.793C1036.09 249.996 1036.62 249.882 1036.87 249.538C1037.47 248.704 1037.79 247.865 1038.01 247.024C1038.24 246.184 1038.33 245.341 1038.35 244.496C1038.33 242.806 1038.13 241.112 1037.15 239.404C1037.08 239.271 1036.95 239.156 1036.78 239.082C1036.36 238.9 1035.84 239.031 1035.62 239.376C1034.54 241.045 1034.25 242.73 1034.14 244.417C1034.11 245.262 1034.16 246.108 1034.34 246.956C1034.51 247.804 1034.79 248.654 1035.34 249.509Z" fill="#06A2FF"/>
<path d="M1036.62 323.786C1036.2 323.61 1035.69 323.747 1035.47 324.091C1034.4 325.825 1034.1 327.573 1033.99 329.325C1033.96 330.202 1034.01 331.079 1034.19 331.96C1034.36 332.84 1034.63 333.722 1035.18 334.609C1035.26 334.73 1035.37 334.834 1035.53 334.906C1035.95 335.102 1036.48 334.982 1036.72 334.638C1037.32 333.772 1037.64 332.901 1037.86 332.028C1038.09 331.156 1038.18 330.28 1038.2 329.404C1038.19 327.65 1037.99 325.892 1037.01 324.12C1036.93 323.981 1036.8 323.861 1036.62 323.786Z" fill="#06A2FF"/>
</svg>
