<svg width="1164" height="366" viewBox="0 0 1164 366" fill="none" xmlns="http://www.w3.org/2000/svg">
<path d="M386.442 193.3C377.994 193.3 370.229 191.338 363.146 187.412C356.149 183.487 350.559 178.026 346.378 171.028C342.282 163.946 340.234 156.01 340.234 147.22C340.234 138.431 342.282 130.538 346.378 123.54C350.559 116.543 356.149 111.082 363.146 107.156C370.229 103.231 377.994 101.268 386.442 101.268C394.89 101.268 402.613 103.231 409.61 107.156C416.693 111.082 422.239 116.543 426.25 123.54C430.346 130.538 432.394 138.431 432.394 147.22C432.394 156.01 430.346 163.946 426.25 171.028C422.154 178.026 416.607 183.487 409.61 187.412C402.613 191.338 394.89 193.3 386.442 193.3ZM386.442 173.332C393.61 173.332 399.327 170.943 403.594 166.164C407.946 161.386 410.122 155.071 410.122 147.22C410.122 139.284 407.946 132.97 403.594 128.276C399.327 123.498 393.61 121.108 386.442 121.108C379.189 121.108 373.386 123.455 369.034 128.148C364.767 132.842 362.634 139.199 362.634 147.22C362.634 155.156 364.767 161.514 369.034 166.292C373.386 170.986 379.189 173.332 386.442 173.332ZM504.475 192.404L485.787 158.484H480.539V192.404H458.651V102.548H495.387C502.47 102.548 508.486 103.786 513.435 106.26C518.47 108.735 522.224 112.148 524.699 116.5C527.174 120.767 528.411 125.546 528.411 130.836C528.411 136.81 526.704 142.143 523.291 146.836C519.963 151.53 515.014 154.858 508.443 156.82L529.179 192.404H504.475ZM480.539 142.996H494.107C498.118 142.996 501.104 142.015 503.067 140.052C505.115 138.09 506.139 135.316 506.139 131.732C506.139 128.319 505.115 125.631 503.067 123.668C501.104 121.706 498.118 120.724 494.107 120.724H480.539V142.996ZM620.871 102.548V120.084H597.063V192.404H575.175V120.084H551.367V102.548H620.871ZM688.432 193.3C679.984 193.3 672.219 191.338 665.136 187.412C658.139 183.487 652.549 178.026 648.368 171.028C644.272 163.946 642.224 156.01 642.224 147.22C642.224 138.431 644.272 130.538 648.368 123.54C652.549 116.543 658.139 111.082 665.136 107.156C672.219 103.231 679.984 101.268 688.432 101.268C696.88 101.268 704.603 103.231 711.6 107.156C718.683 111.082 724.229 116.543 728.24 123.54C732.336 130.538 734.384 138.431 734.384 147.22C734.384 156.01 732.336 163.946 728.24 171.028C724.144 178.026 718.597 183.487 711.6 187.412C704.603 191.338 696.88 193.3 688.432 193.3ZM688.432 173.332C695.6 173.332 701.317 170.943 705.584 166.164C709.936 161.386 712.112 155.071 712.112 147.22C712.112 139.284 709.936 132.97 705.584 128.276C701.317 123.498 695.6 121.108 688.432 121.108C681.179 121.108 675.376 123.455 671.024 128.148C666.757 132.842 664.624 139.199 664.624 147.22C664.624 155.156 666.757 161.514 671.024 166.292C675.376 170.986 681.179 173.332 688.432 173.332ZM794.305 102.548C803.777 102.548 812.054 104.426 819.137 108.18C826.22 111.935 831.681 117.226 835.521 124.052C839.446 130.794 841.409 138.602 841.409 147.476C841.409 156.266 839.446 164.074 835.521 170.9C831.681 177.727 826.177 183.018 819.009 186.772C811.926 190.527 803.692 192.404 794.305 192.404H760.641V102.548H794.305ZM792.897 173.46C801.174 173.46 807.617 171.199 812.225 166.676C816.833 162.154 819.137 155.754 819.137 147.476C819.137 139.199 816.833 132.756 812.225 128.148C807.617 123.54 801.174 121.236 792.897 121.236H782.529V173.46H792.897ZM910.217 193.3C901.769 193.3 894.004 191.338 886.921 187.412C879.924 183.487 874.334 178.026 870.153 171.028C866.057 163.946 864.009 156.01 864.009 147.22C864.009 138.431 866.057 130.538 870.153 123.54C874.334 116.543 879.924 111.082 886.921 107.156C894.004 103.231 901.769 101.268 910.217 101.268C918.665 101.268 926.388 103.231 933.385 107.156C940.468 111.082 946.014 116.543 950.025 123.54C954.121 130.538 956.169 138.431 956.169 147.22C956.169 156.01 954.121 163.946 950.025 171.028C945.929 178.026 940.382 183.487 933.385 187.412C926.388 191.338 918.665 193.3 910.217 193.3ZM910.217 173.332C917.385 173.332 923.102 170.943 927.369 166.164C931.721 161.386 933.897 155.071 933.897 147.22C933.897 139.284 931.721 132.97 927.369 128.276C923.102 123.498 917.385 121.108 910.217 121.108C902.964 121.108 897.161 123.455 892.809 128.148C888.542 132.842 886.409 139.199 886.409 147.22C886.409 155.156 888.542 161.514 892.809 166.292C897.161 170.986 902.964 173.332 910.217 173.332ZM978.714 147.348C978.714 138.474 980.634 130.58 984.474 123.668C988.314 116.671 993.647 111.252 1000.47 107.412C1007.39 103.487 1015.19 101.524 1023.9 101.524C1034.56 101.524 1043.7 104.34 1051.29 109.972C1058.88 115.604 1063.96 123.284 1066.52 133.012H1042.46C1040.67 129.258 1038.11 126.399 1034.78 124.436C1031.54 122.474 1027.82 121.492 1023.64 121.492C1016.9 121.492 1011.44 123.839 1007.26 128.532C1003.08 133.226 1000.99 139.498 1000.99 147.348C1000.99 155.199 1003.08 161.471 1007.26 166.164C1011.44 170.858 1016.9 173.204 1023.64 173.204C1027.82 173.204 1031.54 172.223 1034.78 170.26C1038.11 168.298 1040.67 165.439 1042.46 161.684H1066.52C1063.96 171.412 1058.88 179.092 1051.29 184.724C1043.7 190.271 1034.56 193.044 1023.9 193.044C1015.19 193.044 1007.39 191.124 1000.47 187.284C993.647 183.359 988.314 177.94 984.474 171.028C980.634 164.116 978.714 156.223 978.714 147.348Z" fill="white"/>
<path d="M244.414 0.0850683C225.669 1.115 206.73 4.06177 187.253 8.98258C178.784 11.1283 157.998 17.737 157.998 18.3092C157.998 18.3951 160.308 17.8801 163.118 17.2221C203.42 7.40906 218.547 4.89144 242.451 3.89011C275.401 2.51686 298.497 9.24006 311.815 24.1169C321.015 34.3877 325.519 48.4063 325.519 67.0023C325.557 87.0003 320.207 103.136 307.312 122.075C302.577 129.056 299.844 132.432 290.798 142.674C282.253 152.344 279.019 156.321 275.363 161.671C268.857 171.112 265.085 180.095 263.276 190.166C262.314 195.601 261.929 200.351 261.544 211.48C261.082 225.613 260.812 229.732 260.158 235.511C256.078 271.674 247.609 299.768 234.06 322.055C231.327 326.546 225.438 334.786 222.281 338.505C214.429 347.832 205.652 353.954 196.953 356.214L195.336 356.643V351.293C195.336 348.347 195.529 344.456 195.721 342.653C196.722 334.328 197.184 331.696 201.649 309.037C204.998 292.158 205.498 287.695 205.498 275.421C205.498 265.122 205.229 261.66 203.766 253.678C200.687 236.799 194.258 223.867 183.711 213.282C181.363 210.907 171.894 203.498 171.548 203.755C171.432 203.812 172.972 205.329 174.974 207.102C181.248 212.738 185.174 217.459 188.715 223.639C193.95 232.765 196.722 241.176 198.878 254.68C199.57 258.971 199.57 281.086 198.878 286.007C196.337 304.117 194.066 314.073 188.792 330.208C186.252 337.933 185.367 341.08 184.558 345.257C182.403 356.3 184.789 362.995 191.602 365.283C194.566 366.285 199.57 366.228 202.958 365.169C207.5 363.767 211.734 361.393 218.085 356.701C229.672 348.118 239.911 337.332 248.302 324.858C260.658 306.491 269.127 284.777 275.594 254.68C278.442 241.462 279.712 232.393 281.175 215.628C283.369 190.108 284.023 185.874 286.795 178.722C289.913 170.568 294.994 162.586 306.388 147.852C314.587 137.238 318.205 132.146 321.592 126.653C330.176 112.72 334.795 100.704 337.066 86.4567C337.721 82.1939 337.721 64.0842 337.066 59.85C335.681 51.2958 334.295 45.6598 332.101 39.9665C322.67 15.5627 305.04 4.23342 270.782 0.600037C266.933 0.199506 248.841 -0.172416 244.414 0.0850683Z" fill="white"/>
<path d="M224.013 21.1415C209.656 26.8062 189.562 29.4669 167.698 28.5514C154.957 28.0364 147.143 27.407 127.589 25.2041C121.353 24.5174 113.308 23.6306 109.69 23.2586C103.955 22.6292 101.414 22.4004 94.6778 21.771C90.4051 21.399 77.587 20.7982 73.5068 20.7982C58.4946 20.7982 44.4833 22.9153 34.2442 26.7204C23.6972 30.6398 14.8439 37.878 8.41558 47.8341C4.29685 54.1853 1.98729 59.993 0.524566 67.5745C-0.168303 71.0363 -0.168303 85.2551 0.486074 88.8885C2.83413 101.734 6.6834 110.975 14.5744 123.077C20.7717 132.546 28.2008 141.73 41.9042 156.979C57.3398 174.116 62.6133 181.44 65.5003 189.708C66.3471 192.054 66.5011 193.227 66.5011 196.031C66.5011 200.207 66.0392 201.523 61.3046 210.621C59.4954 214.083 57.5708 218.06 57.0319 219.49C54.1064 227.072 51.6814 234.596 50.3726 240.089C47.0238 254.451 48.602 273.877 55.1842 298.738C55.6077 300.312 56.647 304.489 57.4938 308.036C60.5347 320.453 62.9598 326.947 66.6166 332.526C73.3143 342.768 84.0538 344.113 89.7892 335.415C92.9071 330.752 94.1389 327.09 98.3731 309.753C98.835 307.95 99.9513 303.945 100.914 300.884C110.691 269.127 122.239 245.153 136.635 226.471C151.839 206.816 171.74 191.367 195.991 180.353C198.685 179.151 200.764 178.15 200.61 178.15C200.109 178.15 195.105 180.095 189.909 182.298C159.423 195.344 135.095 216.057 116.388 244.981C103.762 264.493 93.292 287.58 82.5526 319.594C80.8589 324.601 79.4347 328.778 79.3577 328.835C79.0882 329.035 75.6239 318.164 73.8917 311.641C69.4265 294.847 67.6944 280.914 68.0408 264.035C68.3103 249.702 69.696 241.233 73.5068 229.933C75.2774 224.726 76.6632 221.836 80.32 215.943C87.0177 205.071 87.7491 203.211 87.7106 196.746C87.6721 189.164 85.709 183.671 80.0505 175.146C75.3159 168.022 69.9654 162.014 58.7256 151.171C44.5987 137.553 39.8641 132.203 32.666 121.932C14.4974 95.8692 8.53105 71.8087 16.1526 54.9578C20.5793 45.1734 30.2025 37.0197 42.7126 32.4995C48.9484 30.2679 54.4914 29.0949 63.8066 28.0364C69.8115 27.3498 92.1373 27.3498 103.339 28.065C107.688 28.3225 113.231 28.6658 115.656 28.8089C118.081 28.9519 123.817 29.2952 128.359 29.5813C138.867 30.2393 179.131 30.3251 186.675 29.7244C200.148 28.6658 208.539 27.2639 215.814 24.918C219.048 23.8594 225.168 21.2846 225.553 20.7696C225.861 20.4263 225.822 20.4263 224.013 21.1415Z" fill="white"/>
<path d="M241.758 30.8991C232.049 31.5819 222.24 33.5353 212.152 36.7975C207.766 38.2199 197 42.601 197 42.9803C197 43.0372 198.196 42.6958 199.652 42.2596C220.525 35.7543 228.361 34.0854 240.741 33.4215C257.807 32.5112 269.769 36.9681 276.667 46.8303C281.432 53.639 283.765 62.9323 283.765 75.26C283.785 88.517 281.014 99.2137 274.335 111.769C271.882 116.397 270.467 118.635 265.782 125.424C261.356 131.835 259.681 134.471 257.787 138.018C254.418 144.276 252.464 150.232 251.527 156.908C251.029 160.511 250.829 163.659 250.63 171.037C250.391 180.406 250.251 183.137 249.912 186.968C247.799 210.941 243.413 229.565 236.395 244.34C234.98 247.317 231.929 252.779 230.294 255.245C226.227 261.428 221.682 265.486 217.176 266.985L216.339 267.269V263.723C216.339 261.769 216.438 259.19 216.538 257.995C217.056 252.476 217.296 250.731 219.608 235.71C221.343 224.52 221.602 221.562 221.602 213.425C221.602 206.598 221.462 204.303 220.705 199.012C219.11 187.822 215.78 179.249 210.318 172.232C209.102 170.658 204.197 165.746 204.018 165.916C203.958 165.954 204.755 166.959 205.792 168.135C209.042 171.872 211.075 175.001 212.91 179.097C215.621 185.148 217.056 190.723 218.173 199.675C218.532 202.52 218.532 217.181 218.173 220.443C216.857 232.448 215.681 239.048 212.949 249.745C211.634 254.866 211.175 256.952 210.756 259.721C209.64 267.042 210.876 271.48 214.405 272.997C215.94 273.661 218.532 273.623 220.286 272.921C222.639 271.992 224.832 270.418 228.121 267.307C234.122 261.617 239.425 254.467 243.772 246.198C250.171 234.022 254.557 219.627 257.907 199.675C259.382 190.913 260.04 184.901 260.798 173.787C261.934 156.87 262.273 154.063 263.708 149.321C265.323 143.916 267.955 138.625 273.856 128.857C278.103 121.821 279.977 118.445 281.731 114.804C286.177 105.567 288.57 97.6016 289.746 88.1567C290.085 85.3308 290.085 73.3255 289.746 70.5186C289.028 64.8478 288.31 61.1115 287.174 57.3374C282.289 41.1596 273.158 33.6491 255.415 31.2405C253.421 30.975 244.051 30.7284 241.758 30.8991Z" fill="white"/>
<path d="M333.697 276.759C333.396 279.971 332.483 282.86 330.958 285.426C329.432 287.991 327.283 290.013 324.51 291.492C321.736 292.948 318.304 293.677 314.213 293.677C310.169 293.677 306.644 292.706 303.639 290.764C300.635 288.823 298.301 286.084 296.636 282.548C294.996 278.989 294.175 274.829 294.175 270.068V265.457C294.175 260.673 295.007 256.512 296.671 252.976C298.358 249.44 300.739 246.701 303.813 244.76C306.887 242.795 310.515 241.813 314.698 241.813C318.628 241.813 321.944 242.541 324.648 243.997C327.352 245.453 329.455 247.476 330.958 250.064C332.46 252.63 333.373 255.588 333.697 258.939H325.966C325.526 255.565 324.475 252.919 322.811 251C321.17 249.059 318.466 248.088 314.698 248.088C311.902 248.088 309.556 248.793 307.661 250.203C305.789 251.59 304.367 253.577 303.397 256.166C302.449 258.731 301.975 261.805 301.975 265.387V270.068C301.975 273.419 302.403 276.4 303.258 279.012C304.136 281.624 305.465 283.681 307.245 285.183C309.048 286.662 311.37 287.402 314.213 287.402C316.871 287.402 318.997 286.986 320.592 286.154C322.21 285.322 323.423 284.108 324.232 282.513C325.064 280.919 325.642 279 325.966 276.759H333.697ZM357.072 292.983H349.619V239.733H357.072V292.983ZM382.563 292.983H375.11V255.472H382.563V292.983ZM374.589 245.557C374.589 244.402 374.959 243.431 375.699 242.645C376.438 241.859 377.502 241.467 378.888 241.467C380.252 241.467 381.315 241.859 382.078 242.645C382.84 243.431 383.222 244.402 383.222 245.557C383.222 246.69 382.84 247.649 382.078 248.435C381.315 249.221 380.252 249.614 378.888 249.614C377.502 249.614 376.438 249.221 375.699 248.435C374.959 247.649 374.589 246.69 374.589 245.557ZM407.464 292.983H400.011V255.472H407.048L407.464 263.481V292.983ZM403.2 272.772C403.246 269.259 403.894 266.15 405.142 263.446C406.413 260.742 408.169 258.627 410.411 257.102C412.676 255.553 415.311 254.779 418.315 254.779C420.765 254.779 422.88 255.241 424.66 256.166C426.462 257.067 427.849 258.523 428.82 260.534C429.814 262.545 430.311 265.237 430.311 268.612V292.983H422.857V268.542C422.857 266.67 422.58 265.179 422.025 264.07C421.493 262.961 420.708 262.163 419.668 261.678C418.628 261.17 417.345 260.915 415.819 260.915C414.294 260.915 412.93 261.227 411.729 261.851C410.527 262.475 409.487 263.342 408.608 264.451C407.753 265.561 407.095 266.832 406.632 268.265C406.17 269.698 405.939 271.212 405.939 272.806L403.2 272.772ZM455.316 292.983H447.862V255.472H455.316V292.983ZM454.727 239.941H463.394L453.999 250.238H447.966L454.727 239.941ZM488.434 287.679C489.866 287.679 491.184 287.39 492.386 286.812C493.588 286.211 494.558 285.402 495.298 284.385C496.061 283.345 496.488 282.155 496.581 280.815H503.618C503.526 283.149 502.786 285.298 501.399 287.263C500.013 289.204 498.187 290.764 495.922 291.943C493.68 293.099 491.195 293.677 488.468 293.677C484.678 293.677 481.523 292.821 479.004 291.111C476.508 289.401 474.647 287.124 473.422 284.281C472.197 281.416 471.585 278.284 471.585 274.886V273.569C471.585 270.149 472.197 267.017 473.422 264.174C474.67 261.331 476.542 259.055 479.039 257.344C481.535 255.634 484.678 254.779 488.468 254.779C491.427 254.779 494.027 255.38 496.269 256.582C498.51 257.76 500.267 259.39 501.538 261.47C502.832 263.55 503.526 265.942 503.618 268.646H496.581C496.488 267.19 496.095 265.873 495.402 264.694C494.732 263.492 493.796 262.545 492.594 261.851C491.415 261.135 490.017 260.777 488.399 260.777C485.972 260.777 484.077 261.401 482.713 262.649C481.35 263.897 480.391 265.503 479.836 267.468C479.304 269.432 479.039 271.466 479.039 273.569V274.886C479.039 277.013 479.304 279.058 479.836 281.023C480.367 282.987 481.315 284.594 482.679 285.842C484.065 287.066 485.984 287.679 488.434 287.679ZM539.821 267.433C539.821 265.33 539.209 263.654 537.984 262.406C536.782 261.158 534.979 260.534 532.576 260.534C531.12 260.534 529.837 260.788 528.727 261.297C527.641 261.805 526.798 262.475 526.197 263.307C525.596 264.139 525.295 265.075 525.295 266.115H517.807C517.807 264.197 518.431 262.383 519.679 260.673C520.927 258.939 522.684 257.529 524.949 256.443C527.237 255.334 529.929 254.779 533.026 254.779C535.8 254.779 538.25 255.253 540.376 256.2C542.525 257.125 544.212 258.535 545.437 260.43C546.662 262.302 547.275 264.659 547.275 267.502V284.559C547.275 286.038 547.39 287.471 547.621 288.858C547.853 290.221 548.199 291.412 548.662 292.428V292.983H540.965C540.595 292.174 540.307 291.111 540.099 289.794C539.914 288.453 539.821 287.182 539.821 285.98V267.433ZM541.069 275.06H534.864C531.489 275.06 528.912 275.638 527.133 276.793C525.353 277.926 524.463 279.555 524.463 281.681C524.463 283.322 525.018 284.709 526.127 285.842C527.26 286.974 528.878 287.54 530.981 287.54C532.83 287.54 534.448 287.159 535.834 286.396C537.221 285.634 538.319 284.698 539.128 283.588C539.937 282.456 540.364 281.381 540.411 280.364L543.149 283.796C542.941 284.744 542.491 285.784 541.797 286.916C541.104 288.049 540.191 289.135 539.058 290.175C537.926 291.192 536.574 292.036 535.002 292.706C533.454 293.353 531.697 293.677 529.733 293.677C527.214 293.677 524.995 293.191 523.077 292.22C521.181 291.227 519.691 289.886 518.604 288.199C517.541 286.512 517.01 284.628 517.01 282.548C517.01 278.527 518.512 275.464 521.516 273.361C524.544 271.258 528.716 270.206 534.032 270.206H541L541.069 275.06ZM585.974 282.895C585.974 282.04 585.766 281.254 585.35 280.537C584.957 279.798 584.16 279.128 582.958 278.527C581.779 277.903 580 277.348 577.619 276.863C574.915 276.308 572.546 275.58 570.512 274.678C568.501 273.754 566.941 272.587 565.832 271.177C564.723 269.767 564.168 268.022 564.168 265.942C564.168 263.908 564.746 262.059 565.901 260.395C567.057 258.708 568.698 257.356 570.824 256.339C572.95 255.299 575.458 254.779 578.347 254.779C581.421 254.779 584.056 255.311 586.251 256.374C588.447 257.414 590.123 258.824 591.278 260.603C592.457 262.383 593.046 264.371 593.046 266.566H585.593C585.593 265.064 584.969 263.677 583.721 262.406C582.496 261.135 580.704 260.499 578.347 260.499C576.775 260.499 575.481 260.753 574.464 261.262C573.447 261.747 572.696 262.383 572.211 263.169C571.749 263.931 571.517 264.752 571.517 265.63C571.517 266.508 571.737 267.271 572.176 267.918C572.638 268.565 573.459 269.143 574.638 269.652C575.816 270.137 577.503 270.622 579.699 271.108C582.657 271.755 585.153 272.552 587.187 273.5C589.221 274.447 590.758 275.649 591.798 277.105C592.838 278.538 593.358 280.329 593.358 282.479C593.358 284.651 592.746 286.593 591.521 288.303C590.296 289.99 588.563 291.308 586.321 292.255C584.102 293.203 581.49 293.677 578.486 293.677C575.134 293.677 572.292 293.076 569.957 291.874C567.646 290.672 565.89 289.135 564.688 287.263C563.486 285.368 562.885 283.392 562.885 281.335H570.2C570.316 282.953 570.789 284.247 571.621 285.218C572.453 286.188 573.493 286.893 574.742 287.332C575.99 287.748 577.261 287.956 578.555 287.956C580.173 287.956 581.525 287.737 582.611 287.298C583.721 286.858 584.553 286.258 585.107 285.495C585.685 284.732 585.974 283.865 585.974 282.895ZM638.862 292.983L638.931 286.743H649.505C652.879 286.743 655.688 286.026 657.929 284.594C660.194 283.161 661.893 281.138 663.026 278.527C664.181 275.892 664.759 272.772 664.759 269.166V266.254C664.759 262.533 664.181 259.378 663.026 256.79C661.893 254.178 660.217 252.191 657.999 250.827C655.803 249.463 653.134 248.781 649.99 248.781H638.654V242.507H649.99C654.451 242.507 658.369 243.489 661.743 245.453C665.117 247.395 667.752 250.157 669.647 253.739C671.542 257.298 672.49 261.493 672.49 266.323V269.166C672.49 274.02 671.542 278.226 669.647 281.785C667.752 285.345 665.083 288.107 661.639 290.071C658.195 292.012 654.151 292.983 649.505 292.983H638.862ZM643.126 292.983H635.361V242.507H643.126V292.983ZM704.88 293.677C701.274 293.677 698.154 292.891 695.519 291.319C692.884 289.724 690.839 287.563 689.383 284.836C687.95 282.109 687.234 279.012 687.234 275.545V274.089C687.234 270.091 687.996 266.647 689.522 263.758C691.047 260.869 693.081 258.65 695.623 257.102C698.166 255.553 700.939 254.779 703.944 254.779C707.549 254.779 710.507 255.576 712.819 257.171C715.153 258.743 716.886 260.915 718.019 263.689C719.151 266.439 719.717 269.594 719.717 273.153V276.412H691.22V270.761H712.298V270.172C712.229 268.6 711.917 267.098 711.362 265.665C710.808 264.232 709.93 263.065 708.728 262.163C707.549 261.239 705.954 260.777 703.944 260.777C702.048 260.777 700.407 261.308 699.021 262.371C697.657 263.434 696.594 264.96 695.831 266.948C695.092 268.935 694.722 271.316 694.722 274.089V275.545C694.722 277.81 695.138 279.856 695.97 281.681C696.802 283.507 698.004 284.963 699.575 286.05C701.17 287.136 703.077 287.679 705.296 287.679C707.445 287.679 709.294 287.251 710.842 286.396C712.414 285.541 713.778 284.351 714.933 282.825L719.128 286.535C717.949 288.361 716.204 290.013 713.893 291.492C711.582 292.948 708.577 293.677 704.88 293.677ZM741.949 292.983H734.496V255.472H741.533L741.949 263.481V292.983ZM737.685 272.772C737.731 269.259 738.379 266.15 739.627 263.446C740.898 260.742 742.654 258.627 744.896 257.102C747.161 255.553 749.796 254.779 752.8 254.779C755.25 254.779 757.365 255.241 759.145 256.166C760.947 257.067 762.334 258.523 763.305 260.534C764.299 262.545 764.796 265.237 764.796 268.612V292.983H757.342V268.542C757.342 266.67 757.065 265.179 756.51 264.07C755.978 262.961 755.192 262.163 754.152 261.678C753.112 261.17 751.83 260.915 750.304 260.915C748.779 260.915 747.415 261.227 746.213 261.851C745.012 262.475 743.972 263.342 743.093 264.451C742.238 265.561 741.58 266.832 741.117 268.265C740.655 269.698 740.424 271.212 740.424 272.806L737.685 272.772ZM798.225 261.019H777.459V255.472H798.225V261.019ZM791.396 246.32V283.103C791.396 284.328 791.569 285.252 791.916 285.876C792.285 286.5 792.771 286.916 793.372 287.124C793.996 287.332 794.689 287.436 795.452 287.436C796.006 287.436 796.561 287.402 797.116 287.332C797.67 287.24 798.098 287.159 798.398 287.09L798.433 292.914C797.832 293.122 797.093 293.295 796.214 293.434C795.359 293.596 794.342 293.677 793.164 293.677C791.43 293.677 789.859 293.353 788.449 292.706C787.062 292.036 785.964 290.949 785.155 289.447C784.346 287.922 783.942 285.899 783.942 283.38V246.32H791.396ZM834.602 267.433C834.602 265.33 833.989 263.654 832.764 262.406C831.562 261.158 829.76 260.534 827.356 260.534C825.9 260.534 824.617 260.788 823.508 261.297C822.422 261.805 821.578 262.475 820.977 263.307C820.376 264.139 820.076 265.075 820.076 266.115H812.587C812.587 264.197 813.211 262.383 814.459 260.673C815.708 258.939 817.464 257.529 819.729 256.443C822.017 255.334 824.71 254.779 827.807 254.779C830.58 254.779 833.03 255.253 835.156 256.2C837.306 257.125 838.993 258.535 840.218 260.43C841.443 262.302 842.055 264.659 842.055 267.502V284.559C842.055 286.038 842.171 287.471 842.402 288.858C842.633 290.221 842.98 291.412 843.442 292.428V292.983H835.746C835.376 292.174 835.087 291.111 834.879 289.794C834.694 288.453 834.602 287.182 834.602 285.98V267.433ZM835.85 275.06H829.644C826.27 275.06 823.693 275.638 821.913 276.793C820.133 277.926 819.244 279.555 819.244 281.681C819.244 283.322 819.798 284.709 820.908 285.842C822.04 286.974 823.658 287.54 825.761 287.54C827.61 287.54 829.228 287.159 830.615 286.396C832.001 285.634 833.099 284.698 833.908 283.588C834.717 282.456 835.145 281.381 835.191 280.364L837.93 283.796C837.722 284.744 837.271 285.784 836.578 286.916C835.884 288.049 834.971 289.135 833.839 290.175C832.706 291.192 831.354 292.036 829.783 292.706C828.234 293.353 826.478 293.677 824.513 293.677C821.994 293.677 819.775 293.191 817.857 292.22C815.962 291.227 814.471 289.886 813.385 288.199C812.322 286.512 811.79 284.628 811.79 282.548C811.79 278.527 813.292 275.464 816.297 273.361C819.325 271.258 823.496 270.206 828.812 270.206H835.78L835.85 275.06ZM831.343 239.733H840.01L830.615 250.03H824.583L831.343 239.733ZM866.783 292.983H859.33V255.472H866.506L866.783 262.025V292.983ZM878.293 262.198C877.761 262.106 877.23 262.036 876.698 261.99C876.167 261.944 875.612 261.921 875.034 261.921C873.093 261.921 871.463 262.302 870.146 263.065C868.852 263.804 867.846 264.844 867.13 266.185C866.436 267.525 866.02 269.085 865.882 270.865L863.975 271.454C863.975 268.357 864.379 265.561 865.188 263.065C866.02 260.545 867.28 258.535 868.967 257.032C870.654 255.53 872.804 254.779 875.415 254.779C875.878 254.779 876.409 254.825 877.01 254.918C877.634 255.01 878.073 255.126 878.328 255.264L878.293 262.198ZM899.762 292.983H892.308V255.472H899.762V292.983ZM891.788 245.557C891.788 244.402 892.158 243.431 892.898 242.645C893.637 241.859 894.701 241.467 896.087 241.467C897.451 241.467 898.514 241.859 899.277 242.645C900.039 243.431 900.421 244.402 900.421 245.557C900.421 246.69 900.039 247.649 899.277 248.435C898.514 249.221 897.451 249.614 896.087 249.614C894.701 249.614 893.637 249.221 892.898 248.435C892.158 247.649 891.788 246.69 891.788 245.557ZM938.877 267.433C938.877 265.33 938.265 263.654 937.04 262.406C935.838 261.158 934.035 260.534 931.632 260.534C930.176 260.534 928.893 260.788 927.784 261.297C926.697 261.805 925.854 262.475 925.253 263.307C924.652 264.139 924.351 265.075 924.351 266.115H916.863C916.863 264.197 917.487 262.383 918.735 260.673C919.983 258.939 921.74 257.529 924.005 256.443C926.293 255.334 928.985 254.779 932.082 254.779C934.856 254.779 937.306 255.253 939.432 256.2C941.581 257.125 943.269 258.535 944.493 260.43C945.718 262.302 946.331 264.659 946.331 267.502V284.559C946.331 286.038 946.446 287.471 946.678 288.858C946.909 290.221 947.255 291.412 947.718 292.428V292.983H940.021C939.652 292.174 939.363 291.111 939.155 289.794C938.97 288.453 938.877 287.182 938.877 285.98V267.433ZM940.125 275.06H933.92C930.545 275.06 927.968 275.638 926.189 276.793C924.409 277.926 923.519 279.555 923.519 281.681C923.519 283.322 924.074 284.709 925.183 285.842C926.316 286.974 927.934 287.54 930.037 287.54C931.886 287.54 933.504 287.159 934.89 286.396C936.277 285.634 937.375 284.698 938.184 283.588C938.993 282.456 939.42 281.381 939.467 280.364L942.205 283.796C941.997 284.744 941.547 285.784 940.853 286.916C940.16 288.049 939.247 289.135 938.115 290.175C936.982 291.192 935.63 292.036 934.058 292.706C932.51 293.353 930.753 293.677 928.789 293.677C926.27 293.677 924.051 293.191 922.133 292.22C920.237 291.227 918.747 289.886 917.66 288.199C916.597 286.512 916.066 284.628 916.066 282.548C916.066 278.527 917.568 275.464 920.573 273.361C923.6 271.258 927.772 270.206 933.088 270.206H940.056L940.125 275.06ZM985.03 282.895C985.03 282.04 984.822 281.254 984.406 280.537C984.013 279.798 983.216 279.128 982.014 278.527C980.835 277.903 979.056 277.348 976.675 276.863C973.971 276.308 971.602 275.58 969.568 274.678C967.557 273.754 965.997 272.587 964.888 271.177C963.779 269.767 963.224 268.022 963.224 265.942C963.224 263.908 963.802 262.059 964.957 260.395C966.113 258.708 967.754 257.356 969.88 256.339C972.006 255.299 974.514 254.779 977.403 254.779C980.477 254.779 983.112 255.311 985.307 256.374C987.503 257.414 989.179 258.824 990.334 260.603C991.513 262.383 992.102 264.371 992.102 266.566H984.649C984.649 265.064 984.025 263.677 982.777 262.406C981.552 261.135 979.76 260.499 977.403 260.499C975.831 260.499 974.537 260.753 973.52 261.262C972.503 261.747 971.752 262.383 971.267 263.169C970.805 263.931 970.573 264.752 970.573 265.63C970.573 266.508 970.793 267.271 971.232 267.918C971.694 268.565 972.515 269.143 973.694 269.652C974.872 270.137 976.559 270.622 978.755 271.108C981.713 271.755 984.21 272.552 986.243 273.5C988.277 274.447 989.814 275.649 990.854 277.105C991.894 278.538 992.414 280.329 992.414 282.479C992.414 284.651 991.802 286.593 990.577 288.303C989.352 289.99 987.619 291.308 985.377 292.255C983.158 293.203 980.546 293.677 977.542 293.677C974.191 293.677 971.348 293.076 969.013 291.874C966.702 290.672 964.946 289.135 963.744 287.263C962.542 285.368 961.941 283.392 961.941 281.335H969.256C969.372 282.953 969.845 284.247 970.677 285.218C971.51 286.188 972.55 286.893 973.798 287.332C975.046 287.748 976.317 287.956 977.611 287.956C979.229 287.956 980.581 287.737 981.667 287.298C982.777 286.858 983.609 286.258 984.163 285.495C984.741 284.732 985.03 283.865 985.03 282.895Z" fill="white"/>
<path d="M103.977 78.524L103.932 78.5163C100.045 77.8313 96.1798 77.4956 92.3194 77.2942C90.9249 77.2235 89.5318 77.1846 88.1386 77.1439C88.781 76.498 89.4279 75.8566 90.0656 75.2059C92.4603 72.7559 94.8011 70.2605 96.9635 67.5558C97.2082 67.2482 97.2437 66.8328 97.0076 66.4914C96.6788 66.016 95.9561 65.8556 95.3937 66.1334C92.0164 67.8008 88.9718 69.8155 86.1026 71.9742C85.2364 72.6288 84.4116 73.3193 83.5731 73.9982C83.474 70.1483 83.3405 66.2986 83.0847 62.4496C82.7332 56.8548 82.2574 51.2606 81.3978 45.6689C81.3312 45.2329 80.9203 44.8741 80.3803 44.8218C79.7441 44.7601 79.1695 45.146 79.0964 45.6837C78.3374 51.2856 77.9613 56.8852 77.7099 62.484C77.5307 66.1838 77.4642 69.8832 77.4308 73.5823L76.762 72.9281C76.9262 72.8035 76.8731 72.8217 76.7335 72.9L76.0843 72.2646L75.5746 71.7915L75.3253 71.5596L75.271 71.51C75.271 71.5113 75.2684 71.5078 75.2669 71.5066C75.281 71.5231 75.3278 71.5838 75.4361 71.7336L75.329 71.5978L75.2053 71.4461L75.1958 71.4352C74.8798 71.3852 75.8566 71.4657 73.6378 70.6273C73.2387 70.294 72.8475 69.9549 72.4326 69.6323C70.9359 68.4403 69.407 67.2801 67.684 66.2203C67.3024 65.9866 66.7723 65.9621 66.3554 66.1943C65.8177 66.4939 65.6694 67.1053 66.0236 67.5599L66.043 67.5842L69.3573 71.8326L70.2092 72.898C69.7914 73.7199 71.4304 73.735 70.5649 73.7692L70.6925 73.9886C70.9737 74.3741 70.9168 74.268 70.9335 74.3008L70.9942 74.3783L71.0206 74.4125C71.0118 74.3935 71.0097 74.3791 71.0166 74.3696L71.0865 74.4317L71.2455 74.5775C71.1444 74.5212 71.0756 74.4759 71.046 74.4448L71.2089 74.6533L71.6297 75.1923L72.1207 75.7848C72.1728 75.7453 72.2563 75.6853 72.3672 75.6074L72.3677 75.6079C72.3903 75.6287 72.411 75.6449 72.411 75.6449L72.4125 75.6453C72.4141 75.6442 72.4146 75.644 72.4162 75.6429L72.4192 75.6464C72.3155 75.7094 72.2181 75.7673 72.1418 75.8099L73.3745 77.2965C73.3909 77.317 73.4095 77.3366 73.4259 77.3571C72.0179 77.4295 70.61 77.4986 69.2012 77.6141C65.3484 77.9131 61.4945 78.3171 57.6312 79.0451L57.5862 79.0533C57.1466 79.1367 56.7852 79.4315 56.6931 79.8288C56.5685 80.3651 56.9821 80.8851 57.6167 80.9902C61.4777 81.6301 65.3484 81.9459 69.2204 82.1566C71.0152 82.2621 72.8114 82.3205 74.6064 82.3596C73.3301 83.721 72.0948 85.1104 70.9366 86.5503C68.7616 89.2259 66.7505 92.0122 65.1615 95.0218C64.9806 95.3691 65.0418 95.7931 65.3625 96.093C65.7977 96.5006 66.5414 96.5327 67.0237 96.1649C69.8921 93.9941 72.5198 91.7118 75.1135 89.4093C75.9373 88.6861 76.7366 87.9482 77.5426 87.2139C77.6303 90.1646 77.7561 93.1151 77.9437 96.0652C78.2844 101.66 78.7833 107.254 79.6965 112.845C79.7669 113.275 80.1711 113.63 80.7049 113.685C81.341 113.751 81.9201 113.368 81.9979 112.831C82.8111 107.228 83.2103 101.629 83.4509 96.0301C83.5684 93.457 83.6334 90.884 83.6737 88.3115C84.0248 88.6485 84.3618 88.9947 84.7154 89.3296C87.4367 91.8705 90.2786 94.332 93.4692 96.5633C93.811 96.8019 94.3004 96.8672 94.7275 96.6953C95.315 96.4587 95.5644 95.8644 95.2846 95.3676C93.5033 92.2067 91.3685 89.2783 89.1147 86.429C87.9984 85.0389 86.8601 83.6634 85.6908 82.3085C87.9451 82.2272 90.1977 82.1122 92.4486 81.947C96.3129 81.6573 100.172 81.2334 104.009 80.4602C104.437 80.3734 104.79 80.0858 104.886 79.6977C105.019 79.1615 104.611 78.6359 103.977 78.524ZM75.9702 72.4081L75.8611 72.2704C75.9053 72.3102 75.9427 72.3562 75.9702 72.4081Z" fill="white"/>
<path d="M72.1419 75.81L72.1209 75.7848C71.9814 75.8905 72.0231 75.8767 72.1419 75.81Z" fill="white"/>
<path d="M71.0466 74.4445L71.0206 74.4124C71.0256 74.4218 71.0343 74.4321 71.0466 74.4445Z" fill="white"/>
<path d="M75.2675 71.507C75.2535 71.4913 75.261 71.5019 75.2675 71.507V71.507Z" fill="white"/>
<path d="M126.575 78.8565C125.468 78.3112 124.336 78.0498 123.215 77.8862C122.091 77.7158 120.97 77.6745 119.852 77.7065C118.735 77.7574 117.618 77.8528 116.51 78.086C115.402 78.3099 114.291 78.6124 113.218 79.1806C113.062 79.2634 112.936 79.3901 112.87 79.5486C112.715 79.9207 112.946 80.3284 113.386 80.4593L113.412 80.467C115.634 81.1279 117.798 81.2681 119.973 81.2569C122.147 81.2136 124.293 80.9719 126.469 80.1502L126.494 80.141C126.651 80.0814 126.79 79.981 126.883 79.845C127.121 79.5001 126.983 79.0576 126.575 78.8565Z" fill="white"/>
<path d="M48.0727 78.3133C47.2324 78.0827 46.3813 77.986 45.5289 77.9317C44.6751 77.8955 43.8174 77.9308 42.9562 78.0911C42.0973 78.2435 41.2287 78.4938 40.3844 79.0049C40.2964 79.0585 40.2152 79.1278 40.1517 79.2089C39.8726 79.567 39.9895 80.0487 40.4134 80.2848L40.4419 80.3008C41.2723 80.7634 42.08 81.0192 42.8967 81.1934C43.7115 81.3771 44.5286 81.4566 45.3492 81.4802C46.9976 81.4943 48.6302 81.3636 50.3577 80.6591L50.3765 80.6517C50.4921 80.604 50.5975 80.5347 50.6834 80.4444C50.9957 80.1162 50.9344 79.6363 50.5464 79.3723C49.7519 78.8323 48.9119 78.5333 48.0727 78.3133Z" fill="white"/>
<path d="M79.3378 41.6472C79.411 41.7632 79.5236 41.8671 79.6675 41.9388C80.0859 42.1474 80.6249 42.03 80.872 41.6767C81.4705 40.8194 81.793 39.957 82.01 39.0925C82.2373 38.2282 82.329 37.3614 82.3457 36.493C82.3336 34.7555 82.1331 33.0144 81.1518 31.2583C81.0752 31.1214 80.9474 31.0032 80.7768 30.9271C80.3583 30.7397 79.8389 30.8748 79.6177 31.2289C78.5431 32.9455 78.2493 34.6772 78.1439 36.4124C78.1139 37.2804 78.1591 38.1499 78.3392 39.0221C78.5095 39.8939 78.7858 40.7679 79.3378 41.6472Z" fill="white"/>
<path d="M80.6183 118.01C80.1997 117.83 79.6862 117.97 79.4727 118.324C78.3964 120.107 78.1008 121.904 77.9937 123.705C77.9628 124.606 78.0071 125.509 78.1868 126.414C78.3562 127.318 78.6312 128.225 79.1822 129.137C79.2567 129.261 79.3733 129.369 79.5275 129.443C79.9456 129.644 80.478 129.521 80.7164 129.167C81.3158 128.277 81.6392 127.381 81.8571 126.484C82.0852 125.587 82.1779 124.687 82.1954 123.786C82.1851 121.982 81.9864 120.176 81.0069 118.354C80.9298 118.211 80.7971 118.087 80.6183 118.01Z" fill="white"/>
<path d="M1059.98 293.395L1059.93 293.387C1056.05 292.702 1052.18 292.366 1048.32 292.165C1046.92 292.094 1045.53 292.055 1044.14 292.015C1044.78 291.369 1045.43 290.727 1046.07 290.077C1048.46 287.627 1050.8 285.131 1052.96 282.427C1053.21 282.119 1053.24 281.704 1053.01 281.362C1052.68 280.887 1051.96 280.726 1051.39 281.004C1048.02 282.672 1044.97 284.686 1042.1 286.845C1041.24 287.5 1040.41 288.19 1039.57 288.869C1039.47 285.019 1039.34 281.169 1039.08 277.32C1038.73 271.726 1038.26 266.131 1037.4 260.54C1037.33 260.104 1036.92 259.745 1036.38 259.693C1035.74 259.631 1035.17 260.017 1035.1 260.554C1034.34 266.156 1033.96 271.756 1033.71 277.355C1033.53 281.055 1033.46 284.754 1033.43 288.453L1032.76 287.799C1032.93 287.674 1032.87 287.693 1032.73 287.771L1032.08 287.135L1031.57 286.662L1031.33 286.43L1031.27 286.381C1031.27 286.382 1031.27 286.379 1031.27 286.377C1031.28 286.394 1031.33 286.455 1031.44 286.604L1031.33 286.469L1031.21 286.317L1031.2 286.306C1030.88 286.256 1031.86 286.337 1029.64 285.498C1029.24 285.165 1028.85 284.826 1028.43 284.503C1026.94 283.311 1025.41 282.151 1023.68 281.091C1023.3 280.857 1022.77 280.833 1022.36 281.065C1021.82 281.365 1021.67 281.976 1022.02 282.431L1022.04 282.455L1025.36 286.703L1026.21 287.769C1025.79 288.591 1027.43 288.606 1026.56 288.64L1026.69 288.859C1026.97 289.245 1026.92 289.139 1026.93 289.172L1026.99 289.249L1027.02 289.283C1027.01 289.264 1027.01 289.25 1027.02 289.24L1027.09 289.302L1027.25 289.448C1027.14 289.392 1027.08 289.347 1027.05 289.316L1027.21 289.524L1027.63 290.063L1028.12 290.656C1028.17 290.616 1028.26 290.556 1028.37 290.478L1028.37 290.479C1028.39 290.499 1028.41 290.516 1028.41 290.516L1028.41 290.516C1028.41 290.515 1028.41 290.515 1028.42 290.514L1028.42 290.517C1028.32 290.58 1028.22 290.638 1028.14 290.681L1029.37 292.167C1029.39 292.188 1029.41 292.207 1029.43 292.228C1028.02 292.3 1026.61 292.369 1025.2 292.485C1021.35 292.784 1017.49 293.188 1013.63 293.916L1013.59 293.924C1013.15 294.007 1012.79 294.302 1012.69 294.7C1012.57 295.236 1012.98 295.756 1013.62 295.861C1017.48 296.501 1021.35 296.817 1025.22 297.027C1027.02 297.133 1028.81 297.191 1030.61 297.23C1029.33 298.592 1028.09 299.981 1026.94 301.421C1024.76 304.097 1022.75 306.883 1021.16 309.893C1020.98 310.24 1021.04 310.664 1021.36 310.964C1021.8 311.371 1022.54 311.403 1023.02 311.036C1025.89 308.865 1028.52 306.583 1031.11 304.28C1031.94 303.557 1032.74 302.819 1033.54 302.085C1033.63 305.035 1033.76 307.986 1033.94 310.936C1034.28 316.531 1034.78 322.125 1035.7 327.716C1035.77 328.146 1036.17 328.5 1036.7 328.556C1037.34 328.622 1037.92 328.239 1038 327.702C1038.81 322.099 1039.21 316.499 1039.45 310.901C1039.57 308.328 1039.63 305.755 1039.67 303.182C1040.02 303.519 1040.36 303.865 1040.72 304.2C1043.44 306.741 1046.28 309.203 1049.47 311.434C1049.81 311.673 1050.3 311.738 1050.73 311.566C1051.32 311.329 1051.56 310.735 1051.28 310.238C1049.5 307.077 1047.37 304.149 1045.11 301.3C1044 299.91 1042.86 298.534 1041.69 297.179C1043.95 297.098 1046.2 296.983 1048.45 296.818C1052.31 296.528 1056.17 296.104 1060.01 295.331C1060.44 295.244 1060.79 294.957 1060.89 294.568C1061.02 294.032 1060.61 293.507 1059.98 293.395ZM1031.97 287.279L1031.86 287.141C1031.91 287.181 1031.94 287.227 1031.97 287.279Z" fill="white"/>
<path d="M1028.14 290.681L1028.12 290.656C1027.98 290.761 1028.02 290.747 1028.14 290.681Z" fill="white"/>
<path d="M1027.05 289.315L1027.02 289.283C1027.03 289.293 1027.03 289.303 1027.05 289.315Z" fill="white"/>
<path d="M1031.27 286.378C1031.25 286.362 1031.26 286.373 1031.27 286.378V286.378Z" fill="white"/>
<path d="M1082.58 293.727C1081.47 293.182 1080.34 292.921 1079.21 292.757C1078.09 292.587 1076.97 292.545 1075.85 292.577C1074.73 292.628 1073.62 292.724 1072.51 292.957C1071.4 293.181 1070.29 293.483 1069.22 294.051C1069.06 294.134 1068.94 294.261 1068.87 294.419C1068.71 294.792 1068.95 295.199 1069.39 295.33L1069.41 295.338C1071.63 295.999 1073.8 296.139 1075.97 296.128C1078.15 296.084 1080.29 295.843 1082.47 295.021L1082.49 295.012C1082.65 294.952 1082.79 294.852 1082.88 294.716C1083.12 294.371 1082.98 293.928 1082.58 293.727Z" fill="white"/>
<path d="M1004.07 293.184C1003.23 292.954 1002.38 292.857 1001.53 292.803C1000.68 292.766 999.817 292.802 998.956 292.962C998.097 293.114 997.229 293.365 996.384 293.876C996.296 293.929 996.215 293.999 996.152 294.08C995.873 294.438 995.989 294.919 996.413 295.156L996.442 295.172C997.272 295.634 998.08 295.89 998.897 296.064C999.712 296.248 1000.53 296.327 1001.35 296.351C1003 296.365 1004.63 296.234 1006.36 295.53L1006.38 295.523C1006.49 295.475 1006.6 295.406 1006.68 295.315C1007 294.987 1006.93 294.507 1006.55 294.243C1005.75 293.703 1004.91 293.404 1004.07 293.184Z" fill="white"/>
<path d="M1035.34 256.518C1035.41 256.634 1035.52 256.738 1035.67 256.81C1036.09 257.018 1036.62 256.901 1036.87 256.547C1037.47 255.69 1037.79 254.828 1038.01 253.963C1038.24 253.099 1038.33 252.232 1038.35 251.364C1038.33 249.626 1038.13 247.885 1037.15 246.129C1037.08 245.992 1036.95 245.874 1036.78 245.798C1036.36 245.611 1035.84 245.746 1035.62 246.1C1034.54 247.816 1034.25 249.548 1034.14 251.283C1034.11 252.151 1034.16 253.021 1034.34 253.893C1034.51 254.765 1034.79 255.639 1035.34 256.518Z" fill="white"/>
<path d="M1036.62 332.881C1036.2 332.7 1035.69 332.841 1035.47 333.195C1034.4 334.978 1034.1 336.775 1033.99 338.576C1033.96 339.477 1034.01 340.379 1034.19 341.284C1034.36 342.189 1034.63 343.096 1035.18 344.008C1035.26 344.132 1035.37 344.24 1035.53 344.314C1035.95 344.515 1036.48 344.391 1036.72 344.038C1037.32 343.148 1037.64 342.252 1037.86 341.355C1038.09 340.458 1038.18 339.558 1038.2 338.657C1038.19 336.853 1037.99 335.046 1037.01 333.224C1036.93 333.081 1036.8 332.958 1036.62 332.881Z" fill="white"/>
<path d="M244.414 0.0850683C225.669 1.115 206.73 4.06177 187.253 8.98258C178.784 11.1283 157.998 17.737 157.998 18.3092C157.998 18.3951 160.308 17.8801 163.118 17.2221C203.42 7.40906 218.547 4.89144 242.451 3.89011C275.401 2.51686 298.497 9.24006 311.815 24.1169C321.015 34.3877 325.519 48.4063 325.519 67.0023C325.557 87.0003 320.207 103.136 307.312 122.075C302.577 129.056 299.844 132.432 290.798 142.674C282.253 152.344 279.019 156.321 275.363 161.671C268.857 171.112 265.085 180.095 263.276 190.166C262.314 195.601 261.929 200.351 261.544 211.48C261.082 225.613 260.812 229.732 260.158 235.511C256.078 271.674 247.609 299.768 234.06 322.055C231.327 326.546 225.438 334.786 222.281 338.505C214.429 347.832 205.652 353.954 196.953 356.214L195.336 356.643V351.293C195.336 348.347 195.529 344.456 195.721 342.653C196.722 334.328 197.184 331.696 201.649 309.037C204.998 292.158 205.498 287.695 205.498 275.421C205.498 265.122 205.229 261.66 203.766 253.678C200.687 236.799 194.258 223.867 183.711 213.282C181.363 210.907 171.894 203.498 171.548 203.755C171.432 203.812 172.972 205.329 174.974 207.102C181.248 212.738 185.174 217.459 188.715 223.639C193.95 232.765 196.722 241.176 198.878 254.68C199.57 258.971 199.57 281.086 198.878 286.007C196.337 304.117 194.066 314.073 188.792 330.208C186.252 337.933 185.367 341.08 184.558 345.257C182.403 356.3 184.789 362.995 191.602 365.283C194.566 366.285 199.57 366.228 202.958 365.169C207.5 363.767 211.734 361.393 218.085 356.701C229.672 348.118 239.911 337.332 248.302 324.858C260.658 306.491 269.127 284.777 275.594 254.68C278.442 241.462 279.712 232.393 281.175 215.628C283.369 190.108 284.023 185.874 286.795 178.722C289.913 170.568 294.994 162.586 306.388 147.852C314.587 137.238 318.205 132.146 321.592 126.653C330.176 112.72 334.795 100.704 337.066 86.4567C337.721 82.1939 337.721 64.0842 337.066 59.85C335.681 51.2958 334.295 45.6598 332.101 39.9665C322.67 15.5627 305.04 4.23342 270.782 0.600037C266.933 0.199506 248.841 -0.172416 244.414 0.0850683Z" fill="white"/>
<path d="M224.013 21.1415C209.656 26.8062 189.562 29.4669 167.698 28.5514C154.957 28.0364 147.143 27.407 127.589 25.2041C121.353 24.5174 113.308 23.6306 109.69 23.2586C103.955 22.6292 101.414 22.4004 94.6778 21.771C90.4051 21.399 77.587 20.7982 73.5068 20.7982C58.4946 20.7982 44.4833 22.9153 34.2442 26.7204C23.6972 30.6398 14.8439 37.878 8.41558 47.8341C4.29685 54.1853 1.98729 59.993 0.524566 67.5745C-0.168303 71.0363 -0.168303 85.2551 0.486074 88.8885C2.83413 101.734 6.6834 110.975 14.5744 123.077C20.7717 132.546 28.2008 141.73 41.9042 156.979C57.3398 174.116 62.6133 181.44 65.5003 189.708C66.3471 192.054 66.5011 193.227 66.5011 196.031C66.5011 200.207 66.0392 201.523 61.3046 210.621C59.4954 214.083 57.5708 218.06 57.0319 219.49C54.1064 227.072 51.6814 234.596 50.3726 240.089C47.0238 254.451 48.602 273.877 55.1842 298.738C55.6077 300.312 56.647 304.489 57.4938 308.036C60.5347 320.453 62.9598 326.947 66.6166 332.526C73.3143 342.768 84.0538 344.113 89.7892 335.415C92.9071 330.752 94.1389 327.09 98.3731 309.753C98.835 307.95 99.9513 303.945 100.914 300.884C110.691 269.127 122.239 245.153 136.635 226.471C151.839 206.816 171.74 191.367 195.991 180.353C198.685 179.151 200.764 178.15 200.61 178.15C200.109 178.15 195.105 180.095 189.909 182.298C159.423 195.344 135.095 216.057 116.388 244.981C103.762 264.493 93.292 287.58 82.5526 319.594C80.8589 324.601 79.4347 328.778 79.3577 328.835C79.0882 329.035 75.6239 318.164 73.8917 311.641C69.4265 294.847 67.6944 280.914 68.0408 264.035C68.3103 249.702 69.696 241.233 73.5068 229.933C75.2774 224.726 76.6632 221.836 80.32 215.943C87.0177 205.071 87.7491 203.211 87.7106 196.746C87.6721 189.164 85.709 183.671 80.0505 175.146C75.3159 168.022 69.9654 162.014 58.7256 151.171C44.5987 137.553 39.8641 132.203 32.666 121.932C14.4974 95.8692 8.53105 71.8087 16.1526 54.9578C20.5793 45.1734 30.2025 37.0197 42.7126 32.4995C48.9484 30.2679 54.4914 29.0949 63.8066 28.0364C69.8115 27.3498 92.1373 27.3498 103.339 28.065C107.688 28.3225 113.231 28.6658 115.656 28.8089C118.081 28.9519 123.817 29.2952 128.359 29.5813C138.867 30.2393 179.131 30.3251 186.675 29.7244C200.148 28.6658 208.539 27.2639 215.814 24.918C219.048 23.8594 225.168 21.2846 225.553 20.7696C225.861 20.4263 225.822 20.4263 224.013 21.1415Z" fill="white"/>
<path d="M241.758 30.8991C232.049 31.5819 222.24 33.5353 212.152 36.7975C207.766 38.2199 197 42.601 197 42.9803C197 43.0372 198.196 42.6958 199.652 42.2596C220.525 35.7543 228.361 34.0854 240.741 33.4215C257.807 32.5112 269.769 36.9681 276.667 46.8303C281.432 53.639 283.765 62.9323 283.765 75.26C283.785 88.517 281.014 99.2137 274.335 111.769C271.882 116.397 270.467 118.635 265.782 125.424C261.356 131.835 259.681 134.471 257.787 138.018C254.418 144.276 252.464 150.232 251.527 156.908C251.029 160.511 250.829 163.659 250.63 171.037C250.391 180.406 250.251 183.137 249.912 186.968C247.799 210.941 243.413 229.565 236.395 244.34C234.98 247.317 231.929 252.779 230.294 255.245C226.227 261.428 221.682 265.486 217.176 266.985L216.339 267.269V263.723C216.339 261.769 216.438 259.19 216.538 257.995C217.056 252.476 217.296 250.731 219.608 235.71C221.343 224.52 221.602 221.562 221.602 213.425C221.602 206.598 221.462 204.303 220.705 199.012C219.11 187.822 215.78 179.249 210.318 172.232C209.102 170.658 204.197 165.746 204.018 165.916C203.958 165.954 204.755 166.959 205.792 168.135C209.042 171.872 211.075 175.001 212.91 179.097C215.621 185.148 217.056 190.723 218.173 199.675C218.532 202.52 218.532 217.181 218.173 220.443C216.857 232.448 215.681 239.048 212.949 249.745C211.634 254.866 211.175 256.952 210.756 259.721C209.64 267.042 210.876 271.48 214.405 272.997C215.94 273.661 218.532 273.623 220.286 272.921C222.639 271.992 224.832 270.418 228.121 267.307C234.122 261.617 239.425 254.467 243.772 246.198C250.171 234.022 254.557 219.627 257.907 199.675C259.382 190.913 260.04 184.901 260.798 173.787C261.934 156.87 262.273 154.063 263.708 149.321C265.323 143.916 267.955 138.625 273.856 128.857C278.103 121.821 279.977 118.445 281.731 114.804C286.177 105.567 288.57 97.6016 289.746 88.1567C290.085 85.3308 290.085 73.3255 289.746 70.5186C289.028 64.8478 288.31 61.1115 287.174 57.3374C282.289 41.1596 273.158 33.6491 255.415 31.2405C253.421 30.975 244.051 30.7284 241.758 30.8991Z" fill="white"/>
<path d="M333.697 276.759C333.396 279.971 332.483 282.86 330.958 285.426C329.432 287.991 327.283 290.013 324.51 291.492C321.736 292.948 318.304 293.677 314.213 293.677C310.169 293.677 306.644 292.706 303.639 290.764C300.635 288.823 298.301 286.084 296.636 282.548C294.996 278.989 294.175 274.829 294.175 270.068V265.457C294.175 260.673 295.007 256.512 296.671 252.976C298.358 249.44 300.739 246.701 303.813 244.76C306.887 242.795 310.515 241.813 314.698 241.813C318.628 241.813 321.944 242.541 324.648 243.997C327.352 245.453 329.455 247.476 330.958 250.064C332.46 252.63 333.373 255.588 333.697 258.939H325.966C325.526 255.565 324.475 252.919 322.811 251C321.17 249.059 318.466 248.088 314.698 248.088C311.902 248.088 309.556 248.793 307.661 250.203C305.789 251.59 304.367 253.577 303.397 256.166C302.449 258.731 301.975 261.805 301.975 265.387V270.068C301.975 273.419 302.403 276.4 303.258 279.012C304.136 281.624 305.465 283.681 307.245 285.183C309.048 286.662 311.37 287.402 314.213 287.402C316.871 287.402 318.997 286.986 320.592 286.154C322.21 285.322 323.423 284.108 324.232 282.513C325.064 280.919 325.642 279 325.966 276.759H333.697ZM357.072 292.983H349.619V239.733H357.072V292.983ZM382.563 292.983H375.11V255.472H382.563V292.983ZM374.589 245.557C374.589 244.402 374.959 243.431 375.699 242.645C376.438 241.859 377.502 241.467 378.888 241.467C380.252 241.467 381.315 241.859 382.078 242.645C382.84 243.431 383.222 244.402 383.222 245.557C383.222 246.69 382.84 247.649 382.078 248.435C381.315 249.221 380.252 249.614 378.888 249.614C377.502 249.614 376.438 249.221 375.699 248.435C374.959 247.649 374.589 246.69 374.589 245.557ZM407.464 292.983H400.011V255.472H407.048L407.464 263.481V292.983ZM403.2 272.772C403.246 269.259 403.894 266.15 405.142 263.446C406.413 260.742 408.169 258.627 410.411 257.102C412.676 255.553 415.311 254.779 418.315 254.779C420.765 254.779 422.88 255.241 424.66 256.166C426.462 257.067 427.849 258.523 428.82 260.534C429.814 262.545 430.311 265.237 430.311 268.612V292.983H422.857V268.542C422.857 266.67 422.58 265.179 422.025 264.07C421.493 262.961 420.708 262.163 419.668 261.678C418.628 261.17 417.345 260.915 415.819 260.915C414.294 260.915 412.93 261.227 411.729 261.851C410.527 262.475 409.487 263.342 408.608 264.451C407.753 265.561 407.095 266.832 406.632 268.265C406.17 269.698 405.939 271.212 405.939 272.806L403.2 272.772ZM455.316 292.983H447.862V255.472H455.316V292.983ZM454.727 239.941H463.394L453.999 250.238H447.966L454.727 239.941ZM488.434 287.679C489.866 287.679 491.184 287.39 492.386 286.812C493.588 286.211 494.558 285.402 495.298 284.385C496.061 283.345 496.488 282.155 496.581 280.815H503.618C503.526 283.149 502.786 285.298 501.399 287.263C500.013 289.204 498.187 290.764 495.922 291.943C493.68 293.099 491.195 293.677 488.468 293.677C484.678 293.677 481.523 292.821 479.004 291.111C476.508 289.401 474.647 287.124 473.422 284.281C472.197 281.416 471.585 278.284 471.585 274.886V273.569C471.585 270.149 472.197 267.017 473.422 264.174C474.67 261.331 476.542 259.055 479.039 257.344C481.535 255.634 484.678 254.779 488.468 254.779C491.427 254.779 494.027 255.38 496.269 256.582C498.51 257.76 500.267 259.39 501.538 261.47C502.832 263.55 503.526 265.942 503.618 268.646H496.581C496.488 267.19 496.095 265.873 495.402 264.694C494.732 263.492 493.796 262.545 492.594 261.851C491.415 261.135 490.017 260.777 488.399 260.777C485.972 260.777 484.077 261.401 482.713 262.649C481.35 263.897 480.391 265.503 479.836 267.468C479.304 269.432 479.039 271.466 479.039 273.569V274.886C479.039 277.013 479.304 279.058 479.836 281.023C480.367 282.987 481.315 284.594 482.679 285.842C484.065 287.066 485.984 287.679 488.434 287.679ZM539.821 267.433C539.821 265.33 539.209 263.654 537.984 262.406C536.782 261.158 534.979 260.534 532.576 260.534C531.12 260.534 529.837 260.788 528.727 261.297C527.641 261.805 526.798 262.475 526.197 263.307C525.596 264.139 525.295 265.075 525.295 266.115H517.807C517.807 264.197 518.431 262.383 519.679 260.673C520.927 258.939 522.684 257.529 524.949 256.443C527.237 255.334 529.929 254.779 533.026 254.779C535.8 254.779 538.25 255.253 540.376 256.2C542.525 257.125 544.212 258.535 545.437 260.43C546.662 262.302 547.275 264.659 547.275 267.502V284.559C547.275 286.038 547.39 287.471 547.621 288.858C547.853 290.221 548.199 291.412 548.662 292.428V292.983H540.965C540.595 292.174 540.307 291.111 540.099 289.794C539.914 288.453 539.821 287.182 539.821 285.98V267.433ZM541.069 275.06H534.864C531.489 275.06 528.912 275.638 527.133 276.793C525.353 277.926 524.463 279.555 524.463 281.681C524.463 283.322 525.018 284.709 526.127 285.842C527.26 286.974 528.878 287.54 530.981 287.54C532.83 287.54 534.448 287.159 535.834 286.396C537.221 285.634 538.319 284.698 539.128 283.588C539.937 282.456 540.364 281.381 540.411 280.364L543.149 283.796C542.941 284.744 542.491 285.784 541.797 286.916C541.104 288.049 540.191 289.135 539.058 290.175C537.926 291.192 536.574 292.036 535.002 292.706C533.454 293.353 531.697 293.677 529.733 293.677C527.214 293.677 524.995 293.191 523.077 292.22C521.181 291.227 519.691 289.886 518.604 288.199C517.541 286.512 517.01 284.628 517.01 282.548C517.01 278.527 518.512 275.464 521.516 273.361C524.544 271.258 528.716 270.206 534.032 270.206H541L541.069 275.06ZM585.974 282.895C585.974 282.04 585.766 281.254 585.35 280.537C584.957 279.798 584.16 279.128 582.958 278.527C581.779 277.903 580 277.348 577.619 276.863C574.915 276.308 572.546 275.58 570.512 274.678C568.501 273.754 566.941 272.587 565.832 271.177C564.723 269.767 564.168 268.022 564.168 265.942C564.168 263.908 564.746 262.059 565.901 260.395C567.057 258.708 568.698 257.356 570.824 256.339C572.95 255.299 575.458 254.779 578.347 254.779C581.421 254.779 584.056 255.311 586.251 256.374C588.447 257.414 590.123 258.824 591.278 260.603C592.457 262.383 593.046 264.371 593.046 266.566H585.593C585.593 265.064 584.969 263.677 583.721 262.406C582.496 261.135 580.704 260.499 578.347 260.499C576.775 260.499 575.481 260.753 574.464 261.262C573.447 261.747 572.696 262.383 572.211 263.169C571.749 263.931 571.517 264.752 571.517 265.63C571.517 266.508 571.737 267.271 572.176 267.918C572.638 268.565 573.459 269.143 574.638 269.652C575.816 270.137 577.503 270.622 579.699 271.108C582.657 271.755 585.153 272.552 587.187 273.5C589.221 274.447 590.758 275.649 591.798 277.105C592.838 278.538 593.358 280.329 593.358 282.479C593.358 284.651 592.746 286.593 591.521 288.303C590.296 289.99 588.563 291.308 586.321 292.255C584.102 293.203 581.49 293.677 578.486 293.677C575.134 293.677 572.292 293.076 569.957 291.874C567.646 290.672 565.89 289.135 564.688 287.263C563.486 285.368 562.885 283.392 562.885 281.335H570.2C570.316 282.953 570.789 284.247 571.621 285.218C572.453 286.188 573.493 286.893 574.742 287.332C575.99 287.748 577.261 287.956 578.555 287.956C580.173 287.956 581.525 287.737 582.611 287.298C583.721 286.858 584.553 286.258 585.107 285.495C585.685 284.732 585.974 283.865 585.974 282.895ZM638.862 292.983L638.931 286.743H649.505C652.879 286.743 655.688 286.026 657.929 284.594C660.194 283.161 661.893 281.138 663.026 278.527C664.181 275.892 664.759 272.772 664.759 269.166V266.254C664.759 262.533 664.181 259.378 663.026 256.79C661.893 254.178 660.217 252.191 657.999 250.827C655.803 249.463 653.134 248.781 649.99 248.781H638.654V242.507H649.99C654.451 242.507 658.369 243.489 661.743 245.453C665.117 247.395 667.752 250.157 669.647 253.739C671.542 257.298 672.49 261.493 672.49 266.323V269.166C672.49 274.02 671.542 278.226 669.647 281.785C667.752 285.345 665.083 288.107 661.639 290.071C658.195 292.012 654.151 292.983 649.505 292.983H638.862ZM643.126 292.983H635.361V242.507H643.126V292.983ZM704.88 293.677C701.274 293.677 698.154 292.891 695.519 291.319C692.884 289.724 690.839 287.563 689.383 284.836C687.95 282.109 687.234 279.012 687.234 275.545V274.089C687.234 270.091 687.996 266.647 689.522 263.758C691.047 260.869 693.081 258.65 695.623 257.102C698.166 255.553 700.939 254.779 703.944 254.779C707.549 254.779 710.507 255.576 712.819 257.171C715.153 258.743 716.886 260.915 718.019 263.689C719.151 266.439 719.717 269.594 719.717 273.153V276.412H691.22V270.761H712.298V270.172C712.229 268.6 711.917 267.098 711.362 265.665C710.808 264.232 709.93 263.065 708.728 262.163C707.549 261.239 705.954 260.777 703.944 260.777C702.048 260.777 700.407 261.308 699.021 262.371C697.657 263.434 696.594 264.96 695.831 266.948C695.092 268.935 694.722 271.316 694.722 274.089V275.545C694.722 277.81 695.138 279.856 695.97 281.681C696.802 283.507 698.004 284.963 699.575 286.05C701.17 287.136 703.077 287.679 705.296 287.679C707.445 287.679 709.294 287.251 710.842 286.396C712.414 285.541 713.778 284.351 714.933 282.825L719.128 286.535C717.949 288.361 716.204 290.013 713.893 291.492C711.582 292.948 708.577 293.677 704.88 293.677ZM741.949 292.983H734.496V255.472H741.533L741.949 263.481V292.983ZM737.685 272.772C737.731 269.259 738.379 266.15 739.627 263.446C740.898 260.742 742.654 258.627 744.896 257.102C747.161 255.553 749.796 254.779 752.8 254.779C755.25 254.779 757.365 255.241 759.145 256.166C760.947 257.067 762.334 258.523 763.305 260.534C764.299 262.545 764.796 265.237 764.796 268.612V292.983H757.342V268.542C757.342 266.67 757.065 265.179 756.51 264.07C755.978 262.961 755.192 262.163 754.152 261.678C753.112 261.17 751.83 260.915 750.304 260.915C748.779 260.915 747.415 261.227 746.213 261.851C745.012 262.475 743.972 263.342 743.093 264.451C742.238 265.561 741.58 266.832 741.117 268.265C740.655 269.698 740.424 271.212 740.424 272.806L737.685 272.772ZM798.225 261.019H777.459V255.472H798.225V261.019ZM791.396 246.32V283.103C791.396 284.328 791.569 285.252 791.916 285.876C792.285 286.5 792.771 286.916 793.372 287.124C793.996 287.332 794.689 287.436 795.452 287.436C796.006 287.436 796.561 287.402 797.116 287.332C797.67 287.24 798.098 287.159 798.398 287.09L798.433 292.914C797.832 293.122 797.093 293.295 796.214 293.434C795.359 293.596 794.342 293.677 793.164 293.677C791.43 293.677 789.859 293.353 788.449 292.706C787.062 292.036 785.964 290.949 785.155 289.447C784.346 287.922 783.942 285.899 783.942 283.38V246.32H791.396ZM834.602 267.433C834.602 265.33 833.989 263.654 832.764 262.406C831.562 261.158 829.76 260.534 827.356 260.534C825.9 260.534 824.617 260.788 823.508 261.297C822.422 261.805 821.578 262.475 820.977 263.307C820.376 264.139 820.076 265.075 820.076 266.115H812.587C812.587 264.197 813.211 262.383 814.459 260.673C815.708 258.939 817.464 257.529 819.729 256.443C822.017 255.334 824.71 254.779 827.807 254.779C830.58 254.779 833.03 255.253 835.156 256.2C837.306 257.125 838.993 258.535 840.218 260.43C841.443 262.302 842.055 264.659 842.055 267.502V284.559C842.055 286.038 842.171 287.471 842.402 288.858C842.633 290.221 842.98 291.412 843.442 292.428V292.983H835.746C835.376 292.174 835.087 291.111 834.879 289.794C834.694 288.453 834.602 287.182 834.602 285.98V267.433ZM835.85 275.06H829.644C826.27 275.06 823.693 275.638 821.913 276.793C820.133 277.926 819.244 279.555 819.244 281.681C819.244 283.322 819.798 284.709 820.908 285.842C822.04 286.974 823.658 287.54 825.761 287.54C827.61 287.54 829.228 287.159 830.615 286.396C832.001 285.634 833.099 284.698 833.908 283.588C834.717 282.456 835.145 281.381 835.191 280.364L837.93 283.796C837.722 284.744 837.271 285.784 836.578 286.916C835.884 288.049 834.971 289.135 833.839 290.175C832.706 291.192 831.354 292.036 829.783 292.706C828.234 293.353 826.478 293.677 824.513 293.677C821.994 293.677 819.775 293.191 817.857 292.22C815.962 291.227 814.471 289.886 813.385 288.199C812.322 286.512 811.79 284.628 811.79 282.548C811.79 278.527 813.292 275.464 816.297 273.361C819.325 271.258 823.496 270.206 828.812 270.206H835.78L835.85 275.06ZM831.343 239.733H840.01L830.615 250.03H824.583L831.343 239.733ZM866.783 292.983H859.33V255.472H866.506L866.783 262.025V292.983ZM878.293 262.198C877.761 262.106 877.23 262.036 876.698 261.99C876.167 261.944 875.612 261.921 875.034 261.921C873.093 261.921 871.463 262.302 870.146 263.065C868.852 263.804 867.846 264.844 867.13 266.185C866.436 267.525 866.02 269.085 865.882 270.865L863.975 271.454C863.975 268.357 864.379 265.561 865.188 263.065C866.02 260.545 867.28 258.535 868.967 257.032C870.654 255.53 872.804 254.779 875.415 254.779C875.878 254.779 876.409 254.825 877.01 254.918C877.634 255.01 878.073 255.126 878.328 255.264L878.293 262.198ZM899.762 292.983H892.308V255.472H899.762V292.983ZM891.788 245.557C891.788 244.402 892.158 243.431 892.898 242.645C893.637 241.859 894.701 241.467 896.087 241.467C897.451 241.467 898.514 241.859 899.277 242.645C900.039 243.431 900.421 244.402 900.421 245.557C900.421 246.69 900.039 247.649 899.277 248.435C898.514 249.221 897.451 249.614 896.087 249.614C894.701 249.614 893.637 249.221 892.898 248.435C892.158 247.649 891.788 246.69 891.788 245.557ZM938.877 267.433C938.877 265.33 938.265 263.654 937.04 262.406C935.838 261.158 934.035 260.534 931.632 260.534C930.176 260.534 928.893 260.788 927.784 261.297C926.697 261.805 925.854 262.475 925.253 263.307C924.652 264.139 924.351 265.075 924.351 266.115H916.863C916.863 264.197 917.487 262.383 918.735 260.673C919.983 258.939 921.74 257.529 924.005 256.443C926.293 255.334 928.985 254.779 932.082 254.779C934.856 254.779 937.306 255.253 939.432 256.2C941.581 257.125 943.269 258.535 944.493 260.43C945.718 262.302 946.331 264.659 946.331 267.502V284.559C946.331 286.038 946.446 287.471 946.678 288.858C946.909 290.221 947.255 291.412 947.718 292.428V292.983H940.021C939.652 292.174 939.363 291.111 939.155 289.794C938.97 288.453 938.877 287.182 938.877 285.98V267.433ZM940.125 275.06H933.92C930.545 275.06 927.968 275.638 926.189 276.793C924.409 277.926 923.519 279.555 923.519 281.681C923.519 283.322 924.074 284.709 925.183 285.842C926.316 286.974 927.934 287.54 930.037 287.54C931.886 287.54 933.504 287.159 934.89 286.396C936.277 285.634 937.375 284.698 938.184 283.588C938.993 282.456 939.42 281.381 939.467 280.364L942.205 283.796C941.997 284.744 941.547 285.784 940.853 286.916C940.16 288.049 939.247 289.135 938.115 290.175C936.982 291.192 935.63 292.036 934.058 292.706C932.51 293.353 930.753 293.677 928.789 293.677C926.27 293.677 924.051 293.191 922.133 292.22C920.237 291.227 918.747 289.886 917.66 288.199C916.597 286.512 916.066 284.628 916.066 282.548C916.066 278.527 917.568 275.464 920.573 273.361C923.6 271.258 927.772 270.206 933.088 270.206H940.056L940.125 275.06ZM985.03 282.895C985.03 282.04 984.822 281.254 984.406 280.537C984.013 279.798 983.216 279.128 982.014 278.527C980.835 277.903 979.056 277.348 976.675 276.863C973.971 276.308 971.602 275.58 969.568 274.678C967.557 273.754 965.997 272.587 964.888 271.177C963.779 269.767 963.224 268.022 963.224 265.942C963.224 263.908 963.802 262.059 964.957 260.395C966.113 258.708 967.754 257.356 969.88 256.339C972.006 255.299 974.514 254.779 977.403 254.779C980.477 254.779 983.112 255.311 985.307 256.374C987.503 257.414 989.179 258.824 990.334 260.603C991.513 262.383 992.102 264.371 992.102 266.566H984.649C984.649 265.064 984.025 263.677 982.777 262.406C981.552 261.135 979.76 260.499 977.403 260.499C975.831 260.499 974.537 260.753 973.52 261.262C972.503 261.747 971.752 262.383 971.267 263.169C970.805 263.931 970.573 264.752 970.573 265.63C970.573 266.508 970.793 267.271 971.232 267.918C971.694 268.565 972.515 269.143 973.694 269.652C974.872 270.137 976.559 270.622 978.755 271.108C981.713 271.755 984.21 272.552 986.243 273.5C988.277 274.447 989.814 275.649 990.854 277.105C991.894 278.538 992.414 280.329 992.414 282.479C992.414 284.651 991.802 286.593 990.577 288.303C989.352 289.99 987.619 291.308 985.377 292.255C983.158 293.203 980.546 293.677 977.542 293.677C974.191 293.677 971.348 293.076 969.013 291.874C966.702 290.672 964.946 289.135 963.744 287.263C962.542 285.368 961.941 283.392 961.941 281.335H969.256C969.372 282.953 969.845 284.247 970.677 285.218C971.51 286.188 972.55 286.893 973.798 287.332C975.046 287.748 976.317 287.956 977.611 287.956C979.229 287.956 980.581 287.737 981.667 287.298C982.777 286.858 983.609 286.258 984.163 285.495C984.741 284.732 985.03 283.865 985.03 282.895Z" fill="white"/>
<path d="M103.977 78.524L103.932 78.5163C100.045 77.8313 96.1798 77.4956 92.3194 77.2942C90.9249 77.2235 89.5318 77.1846 88.1386 77.1439C88.781 76.498 89.4279 75.8566 90.0656 75.2059C92.4603 72.7559 94.8011 70.2605 96.9635 67.5558C97.2082 67.2482 97.2437 66.8328 97.0076 66.4914C96.6788 66.016 95.9561 65.8556 95.3937 66.1334C92.0164 67.8008 88.9718 69.8155 86.1026 71.9742C85.2364 72.6288 84.4116 73.3193 83.5731 73.9982C83.474 70.1483 83.3405 66.2986 83.0847 62.4496C82.7332 56.8548 82.2574 51.2606 81.3978 45.6689C81.3312 45.2329 80.9203 44.8741 80.3803 44.8218C79.7441 44.7601 79.1695 45.146 79.0964 45.6837C78.3374 51.2856 77.9613 56.8852 77.7099 62.484C77.5307 66.1838 77.4642 69.8832 77.4308 73.5823L76.762 72.9281C76.9262 72.8035 76.8731 72.8217 76.7335 72.9L76.0843 72.2646L75.5746 71.7915L75.3253 71.5596L75.271 71.51C75.271 71.5113 75.2684 71.5078 75.2669 71.5066C75.281 71.5231 75.3278 71.5838 75.4361 71.7336L75.329 71.5978L75.2053 71.4461L75.1958 71.4352C74.8798 71.3852 75.8566 71.4657 73.6378 70.6273C73.2387 70.294 72.8475 69.9549 72.4326 69.6323C70.9359 68.4403 69.407 67.2801 67.684 66.2203C67.3024 65.9866 66.7723 65.9621 66.3554 66.1943C65.8177 66.4939 65.6694 67.1053 66.0236 67.5599L66.043 67.5842L69.3573 71.8326L70.2092 72.898C69.7914 73.7199 71.4304 73.735 70.5649 73.7692L70.6925 73.9886C70.9737 74.3741 70.9168 74.268 70.9335 74.3008L70.9942 74.3783L71.0206 74.4125C71.0118 74.3935 71.0097 74.3791 71.0166 74.3696L71.0865 74.4317L71.2455 74.5775C71.1444 74.5212 71.0756 74.4759 71.046 74.4448L71.2089 74.6533L71.6297 75.1923L72.1207 75.7848C72.1728 75.7453 72.2563 75.6853 72.3672 75.6074L72.3677 75.6079C72.3903 75.6287 72.411 75.6449 72.411 75.6449L72.4125 75.6453C72.4141 75.6442 72.4146 75.644 72.4162 75.6429L72.4192 75.6464C72.3155 75.7094 72.2181 75.7673 72.1418 75.8099L73.3745 77.2965C73.3909 77.317 73.4095 77.3366 73.4259 77.3571C72.0179 77.4295 70.61 77.4986 69.2012 77.6141C65.3484 77.9131 61.4945 78.3171 57.6312 79.0451L57.5862 79.0533C57.1466 79.1367 56.7852 79.4315 56.6931 79.8288C56.5685 80.3651 56.9821 80.8851 57.6167 80.9902C61.4777 81.6301 65.3484 81.9459 69.2204 82.1566C71.0152 82.2621 72.8114 82.3205 74.6064 82.3596C73.3301 83.721 72.0948 85.1104 70.9366 86.5503C68.7616 89.2259 66.7505 92.0122 65.1615 95.0218C64.9806 95.3691 65.0418 95.7931 65.3625 96.093C65.7977 96.5006 66.5414 96.5327 67.0237 96.1649C69.8921 93.9941 72.5198 91.7118 75.1135 89.4093C75.9373 88.6861 76.7366 87.9482 77.5426 87.2139C77.6303 90.1646 77.7561 93.1151 77.9437 96.0652C78.2844 101.66 78.7833 107.254 79.6965 112.845C79.7669 113.275 80.1711 113.63 80.7049 113.685C81.341 113.751 81.9201 113.368 81.9979 112.831C82.8111 107.228 83.2103 101.629 83.4509 96.0301C83.5684 93.457 83.6334 90.884 83.6737 88.3115C84.0248 88.6485 84.3618 88.9947 84.7154 89.3296C87.4367 91.8705 90.2786 94.332 93.4692 96.5633C93.811 96.8019 94.3004 96.8672 94.7275 96.6953C95.315 96.4587 95.5644 95.8644 95.2846 95.3676C93.5033 92.2067 91.3685 89.2783 89.1147 86.429C87.9984 85.0389 86.8601 83.6634 85.6908 82.3085C87.9451 82.2272 90.1977 82.1122 92.4486 81.947C96.3129 81.6573 100.172 81.2334 104.009 80.4602C104.437 80.3734 104.79 80.0858 104.886 79.6977C105.019 79.1615 104.611 78.6359 103.977 78.524ZM75.9702 72.4081L75.8611 72.2704C75.9053 72.3102 75.9427 72.3562 75.9702 72.4081Z" fill="white"/>
<path d="M72.1419 75.81L72.1209 75.7848C71.9814 75.8905 72.0231 75.8767 72.1419 75.81Z" fill="white"/>
<path d="M71.0466 74.4445L71.0206 74.4124C71.0256 74.4218 71.0343 74.4321 71.0466 74.4445Z" fill="white"/>
<path d="M75.2675 71.507C75.2535 71.4913 75.261 71.5019 75.2675 71.507V71.507Z" fill="white"/>
<path d="M126.575 78.8565C125.468 78.3112 124.336 78.0498 123.215 77.8862C122.091 77.7158 120.97 77.6745 119.852 77.7065C118.735 77.7574 117.618 77.8528 116.51 78.086C115.402 78.3099 114.291 78.6124 113.218 79.1806C113.062 79.2634 112.936 79.3901 112.87 79.5486C112.715 79.9207 112.946 80.3284 113.386 80.4593L113.412 80.467C115.634 81.1279 117.798 81.2681 119.973 81.2569C122.147 81.2136 124.293 80.9719 126.469 80.1502L126.494 80.141C126.651 80.0814 126.79 79.981 126.883 79.845C127.121 79.5001 126.983 79.0576 126.575 78.8565Z" fill="white"/>
<path d="M48.0727 78.3133C47.2324 78.0827 46.3813 77.986 45.5289 77.9317C44.6751 77.8955 43.8174 77.9308 42.9562 78.0911C42.0973 78.2435 41.2287 78.4938 40.3844 79.0049C40.2964 79.0585 40.2152 79.1278 40.1517 79.2089C39.8726 79.567 39.9895 80.0487 40.4134 80.2848L40.4419 80.3008C41.2723 80.7634 42.08 81.0192 42.8967 81.1934C43.7115 81.3771 44.5286 81.4566 45.3492 81.4802C46.9976 81.4943 48.6302 81.3636 50.3577 80.6591L50.3765 80.6517C50.4921 80.604 50.5975 80.5347 50.6834 80.4444C50.9957 80.1162 50.9344 79.6363 50.5464 79.3723C49.7519 78.8323 48.9119 78.5333 48.0727 78.3133Z" fill="white"/>
<path d="M79.3378 41.6472C79.411 41.7632 79.5236 41.8671 79.6675 41.9388C80.0859 42.1474 80.6249 42.03 80.872 41.6767C81.4705 40.8194 81.793 39.957 82.01 39.0925C82.2373 38.2282 82.329 37.3614 82.3457 36.493C82.3336 34.7555 82.1331 33.0144 81.1518 31.2583C81.0752 31.1214 80.9474 31.0032 80.7768 30.9271C80.3583 30.7397 79.8389 30.8748 79.6177 31.2289C78.5431 32.9455 78.2493 34.6772 78.1439 36.4124C78.1139 37.2804 78.1591 38.1499 78.3392 39.0221C78.5095 39.8939 78.7858 40.7679 79.3378 41.6472Z" fill="white"/>
<path d="M80.6183 118.01C80.1997 117.83 79.6862 117.97 79.4727 118.324C78.3964 120.107 78.1008 121.904 77.9937 123.705C77.9628 124.606 78.0071 125.509 78.1868 126.414C78.3562 127.318 78.6312 128.225 79.1822 129.137C79.2567 129.261 79.3733 129.369 79.5275 129.443C79.9456 129.644 80.478 129.521 80.7164 129.167C81.3158 128.277 81.6392 127.381 81.8571 126.484C82.0852 125.587 82.1779 124.687 82.1954 123.786C82.1851 121.982 81.9864 120.176 81.0069 118.354C80.9298 118.211 80.7971 118.087 80.6183 118.01Z" fill="white"/>
<path d="M1059.98 293.395L1059.93 293.387C1056.05 292.702 1052.18 292.366 1048.32 292.165C1046.92 292.094 1045.53 292.055 1044.14 292.015C1044.78 291.369 1045.43 290.727 1046.07 290.077C1048.46 287.627 1050.8 285.131 1052.96 282.427C1053.21 282.119 1053.24 281.704 1053.01 281.362C1052.68 280.887 1051.96 280.726 1051.39 281.004C1048.02 282.672 1044.97 284.686 1042.1 286.845C1041.24 287.5 1040.41 288.19 1039.57 288.869C1039.47 285.019 1039.34 281.169 1039.08 277.32C1038.73 271.726 1038.26 266.131 1037.4 260.54C1037.33 260.104 1036.92 259.745 1036.38 259.693C1035.74 259.631 1035.17 260.017 1035.1 260.554C1034.34 266.156 1033.96 271.756 1033.71 277.355C1033.53 281.055 1033.46 284.754 1033.43 288.453L1032.76 287.799C1032.93 287.674 1032.87 287.693 1032.73 287.771L1032.08 287.135L1031.57 286.662L1031.33 286.43L1031.27 286.381C1031.27 286.382 1031.27 286.379 1031.27 286.377C1031.28 286.394 1031.33 286.455 1031.44 286.604L1031.33 286.469L1031.21 286.317L1031.2 286.306C1030.88 286.256 1031.86 286.337 1029.64 285.498C1029.24 285.165 1028.85 284.826 1028.43 284.503C1026.94 283.311 1025.41 282.151 1023.68 281.091C1023.3 280.857 1022.77 280.833 1022.36 281.065C1021.82 281.365 1021.67 281.976 1022.02 282.431L1022.04 282.455L1025.36 286.703L1026.21 287.769C1025.79 288.591 1027.43 288.606 1026.56 288.64L1026.69 288.859C1026.97 289.245 1026.92 289.139 1026.93 289.172L1026.99 289.249L1027.02 289.283C1027.01 289.264 1027.01 289.25 1027.02 289.24L1027.09 289.302L1027.25 289.448C1027.14 289.392 1027.08 289.347 1027.05 289.316L1027.21 289.524L1027.63 290.063L1028.12 290.656C1028.17 290.616 1028.26 290.556 1028.37 290.478L1028.37 290.479C1028.39 290.499 1028.41 290.516 1028.41 290.516L1028.41 290.516C1028.41 290.515 1028.41 290.515 1028.42 290.514L1028.42 290.517C1028.32 290.58 1028.22 290.638 1028.14 290.681L1029.37 292.167C1029.39 292.188 1029.41 292.207 1029.43 292.228C1028.02 292.3 1026.61 292.369 1025.2 292.485C1021.35 292.784 1017.49 293.188 1013.63 293.916L1013.59 293.924C1013.15 294.007 1012.79 294.302 1012.69 294.7C1012.57 295.236 1012.98 295.756 1013.62 295.861C1017.48 296.501 1021.35 296.817 1025.22 297.027C1027.02 297.133 1028.81 297.191 1030.61 297.23C1029.33 298.592 1028.09 299.981 1026.94 301.421C1024.76 304.097 1022.75 306.883 1021.16 309.893C1020.98 310.24 1021.04 310.664 1021.36 310.964C1021.8 311.371 1022.54 311.403 1023.02 311.036C1025.89 308.865 1028.52 306.583 1031.11 304.28C1031.94 303.557 1032.74 302.819 1033.54 302.085C1033.63 305.035 1033.76 307.986 1033.94 310.936C1034.28 316.531 1034.78 322.125 1035.7 327.716C1035.77 328.146 1036.17 328.5 1036.7 328.556C1037.34 328.622 1037.92 328.239 1038 327.702C1038.81 322.099 1039.21 316.499 1039.45 310.901C1039.57 308.328 1039.63 305.755 1039.67 303.182C1040.02 303.519 1040.36 303.865 1040.72 304.2C1043.44 306.741 1046.28 309.203 1049.47 311.434C1049.81 311.673 1050.3 311.738 1050.73 311.566C1051.32 311.329 1051.56 310.735 1051.28 310.238C1049.5 307.077 1047.37 304.149 1045.11 301.3C1044 299.91 1042.86 298.534 1041.69 297.179C1043.95 297.098 1046.2 296.983 1048.45 296.818C1052.31 296.528 1056.17 296.104 1060.01 295.331C1060.44 295.244 1060.79 294.957 1060.89 294.568C1061.02 294.032 1060.61 293.507 1059.98 293.395ZM1031.97 287.279L1031.86 287.141C1031.91 287.181 1031.94 287.227 1031.97 287.279Z" fill="white"/>
<path d="M1028.14 290.681L1028.12 290.656C1027.98 290.761 1028.02 290.747 1028.14 290.681Z" fill="white"/>
<path d="M1027.05 289.315L1027.02 289.283C1027.03 289.293 1027.03 289.303 1027.05 289.315Z" fill="white"/>
<path d="M1031.27 286.378C1031.25 286.362 1031.26 286.373 1031.27 286.378V286.378Z" fill="white"/>
<path d="M1082.58 293.727C1081.47 293.182 1080.34 292.921 1079.21 292.757C1078.09 292.587 1076.97 292.545 1075.85 292.577C1074.73 292.628 1073.62 292.724 1072.51 292.957C1071.4 293.181 1070.29 293.483 1069.22 294.051C1069.06 294.134 1068.94 294.261 1068.87 294.419C1068.71 294.792 1068.95 295.199 1069.39 295.33L1069.41 295.338C1071.63 295.999 1073.8 296.139 1075.97 296.128C1078.15 296.084 1080.29 295.843 1082.47 295.021L1082.49 295.012C1082.65 294.952 1082.79 294.852 1082.88 294.716C1083.12 294.371 1082.98 293.928 1082.58 293.727Z" fill="white"/>
<path d="M1004.07 293.184C1003.23 292.954 1002.38 292.857 1001.53 292.803C1000.68 292.766 999.817 292.802 998.956 292.962C998.097 293.114 997.229 293.365 996.384 293.876C996.296 293.929 996.215 293.999 996.152 294.08C995.873 294.438 995.989 294.919 996.413 295.156L996.442 295.172C997.272 295.634 998.08 295.89 998.897 296.064C999.712 296.248 1000.53 296.327 1001.35 296.351C1003 296.365 1004.63 296.234 1006.36 295.53L1006.38 295.523C1006.49 295.475 1006.6 295.406 1006.68 295.315C1007 294.987 1006.93 294.507 1006.55 294.243C1005.75 293.703 1004.91 293.404 1004.07 293.184Z" fill="white"/>
<path d="M1035.34 256.518C1035.41 256.634 1035.52 256.738 1035.67 256.81C1036.09 257.018 1036.62 256.901 1036.87 256.547C1037.47 255.69 1037.79 254.828 1038.01 253.963C1038.24 253.099 1038.33 252.232 1038.35 251.364C1038.33 249.626 1038.13 247.885 1037.15 246.129C1037.08 245.992 1036.95 245.874 1036.78 245.798C1036.36 245.611 1035.84 245.746 1035.62 246.1C1034.54 247.816 1034.25 249.548 1034.14 251.283C1034.11 252.151 1034.16 253.021 1034.34 253.893C1034.51 254.765 1034.79 255.639 1035.34 256.518Z" fill="white"/>
<path d="M1036.62 332.881C1036.2 332.7 1035.69 332.841 1035.47 333.195C1034.4 334.978 1034.1 336.775 1033.99 338.576C1033.96 339.477 1034.01 340.379 1034.19 341.284C1034.36 342.189 1034.63 343.096 1035.18 344.008C1035.26 344.132 1035.37 344.24 1035.53 344.314C1035.95 344.515 1036.48 344.391 1036.72 344.038C1037.32 343.148 1037.64 342.252 1037.86 341.355C1038.09 340.458 1038.18 339.558 1038.2 338.657C1038.19 336.853 1037.99 335.046 1037.01 333.224C1036.93 333.081 1036.8 332.958 1036.62 332.881Z" fill="white"/>
</svg>
