<svg xmlns="http://www.w3.org/2000/svg" xmlns:xlink="http://www.w3.org/1999/xlink" xmlns:fi="http://pattern.flaticon.com/" x="0" y="0" width="1366" height="683" viewBox="0 0 1593.6666666666667 796.8333333333334"><rect x="0px" y="0px" width="100%" height="100%" opacity="0" fill="#34b9f5"/><defs><g transform="matrix(0.04083275192117287 0.04083275192117287 -0.04083275192117287 0.04083275192117287 342.1995349709224 126.21835721432686)" id="L1_0"><path d="M381.195,67.272c-6.052-33.213-31.908-57.513-69.171-64.998c-24.427-4.905-49.741-1.756-75.274,9.359    c-22.446,9.779-44.79,9.595-68.326-0.538c-13.123-5.652-26.773-9.124-41.708-10.598C90.799-3.067,55.189,12.805,38.14,39.977    c-8.755,13.942-13.03,29.778-13.471,49.853c-0.712,32.86,7.916,60.667,26.363,85.002c2.36,3.113,4.357,6.467,6.461,10.01    l1.94,3.241c3.789,6.236,5.514,12.749,5.274,19.912c-0.333,9.702,2.524,72.371,5.571,94.643    c3.41,24.888,9.656,46.249,19.103,65.29c6.016,12.124,15.176,27.387,32.722,37.857c0.21,0.123,0.43,0.241,0.661,0.328    c3.732,1.556,7.409,2.33,10.972,2.33c4.721,0,9.226-1.362,13.348-4.065c14.188-9.293,24.402-34.929,30.367-76.201    c4.332-29.932,4.818-57.728,4.823-58.092c0-12.36,9.974-22.405,22.292-22.584c12.319,0.174,22.292,10.225,22.292,22.661    c0.184,11.5,2.744,112.947,35.19,134.211c4.127,2.703,8.632,4.065,13.348,4.065c3.558,0,7.24-0.773,10.972-2.33    c0.061-0.026,0.097-0.077,0.159-0.108c0.067-0.031,0.133-0.02,0.2-0.056c21.888-11.146,43.587-63.442,48.594-87.183    c6.758-32.02,9.477-66.801,8.556-109.435l-0.077-2.135c-0.108-2.652-0.215-5.391,0.558-7.101l0.681-1.49    c3.814-8.422,7.762-17.126,13.158-24.612C380.683,142.832,388.419,106.931,381.195,67.272z M349.907,168.002    c-6.001,8.315-10.163,17.495-14.188,26.368l-0.671,1.485c-1.787,3.927-1.618,8.084-1.469,11.75l0.067,1.935    c0.906,41.841-1.746,75.868-8.335,107.11c-4.705,22.313-25.108,70.717-43.064,80.067c-5.535,2.243-10.173,1.971-14.572-0.906    c-23.649-15.498-30.08-96.077-30.566-125.732c0-17.828-14.285-32.353-32-32.814c-0.077-0.005-0.138-0.041-0.215-0.041    c-0.107,0-0.21,0.015-0.317,0.015c-0.107,0-0.21-0.015-0.317-0.015c-0.077,0-0.138,0.041-0.215,0.041    c-17.715,0.461-32,14.986-32,32.727c-0.486,29.742-6.917,110.315-30.566,125.814c-4.362,2.852-8.95,3.169-14.438,0.978    c-15.043-9.103-23.117-22.63-28.477-33.418c-8.945-18.028-14.874-38.354-18.125-62.131c-2.97-21.683-5.791-84.116-5.489-92.907    c0.312-9.088-1.961-17.7-6.753-25.58l-1.884-3.149c-2.161-3.635-4.393-7.393-7.107-10.972    c-16.998-22.421-24.945-48.123-24.284-78.592c0.394-18.14,4.173-32.323,11.899-44.636c15.037-23.956,46.756-37.898,78.904-34.724    c13.88,1.372,26.527,4.582,38.671,9.81c26.276,11.336,51.277,11.51,76.452,0.543c23.905-10.414,46.52-13.266,69.166-8.709    c32.998,6.625,55.844,27.858,61.123,56.796C377.929,106.445,370.986,138.788,349.907,168.002z"/><path d="M266.876,152.207c-2.652-0.968-5.601,0.399-6.564,3.057c-8.571,23.511-31.104,39.306-56.064,39.306    s-47.493-15.795-56.064-39.306c-0.968-2.657-3.917-4.019-6.564-3.057c-2.657,0.968-4.024,3.907-3.057,6.564    c10.04,27.535,36.434,46.034,65.685,46.034s55.644-18.499,65.685-46.034C270.9,156.109,269.533,153.175,266.876,152.207z"/><path d="M147.288,69.98c-15.759,0-28.585,12.826-28.585,28.585c0,2.831,2.289,5.12,5.12,5.12s5.12-2.289,5.12-5.12    c0-10.117,8.228-18.345,18.345-18.345s18.345,8.228,18.345,18.345c0,2.831,2.289,5.12,5.12,5.12s5.12-2.289,5.12-5.12    C175.873,82.806,163.047,69.98,147.288,69.98z"/><path d="M261.208,69.98c-15.759,0-28.585,12.826-28.585,28.585c0,2.831,2.289,5.12,5.12,5.12c2.831,0,5.12-2.289,5.12-5.12    c0-10.117,8.228-18.345,18.345-18.345c10.117,0,18.345,8.228,18.345,18.345c0,2.831,2.289,5.12,5.12,5.12    c2.831,0,5.12-2.289,5.12-5.12C289.793,82.806,276.967,69.98,261.208,69.98z"/></g><g transform="matrix(0.05313892826605241 0.04251114391857209 -0.04251114391857209 0.05313892826605241 198.00454086011314 28.36183291049359)"><path d="M381.195,67.272c-6.052-33.213-31.908-57.513-69.171-64.998c-24.427-4.905-49.741-1.756-75.274,9.359    c-22.446,9.779-44.79,9.595-68.326-0.538c-13.123-5.652-26.773-9.124-41.708-10.598C90.799-3.067,55.189,12.805,38.14,39.977    c-8.755,13.942-13.03,29.778-13.471,49.853c-0.712,32.86,7.916,60.667,26.363,85.002c2.36,3.113,4.357,6.467,6.461,10.01    l1.94,3.241c3.789,6.236,5.514,12.749,5.274,19.912c-0.333,9.702,2.524,72.371,5.571,94.643    c3.41,24.888,9.656,46.249,19.103,65.29c6.016,12.124,15.176,27.387,32.722,37.857c0.21,0.123,0.43,0.241,0.661,0.328    c3.732,1.556,7.409,2.33,10.972,2.33c4.721,0,9.226-1.362,13.348-4.065c14.188-9.293,24.402-34.929,30.367-76.201    c4.332-29.932,4.818-57.728,4.823-58.092c0-12.36,9.974-22.405,22.292-22.584c12.319,0.174,22.292,10.225,22.292,22.661    c0.184,11.5,2.744,112.947,35.19,134.211c4.127,2.703,8.632,4.065,13.348,4.065c3.558,0,7.24-0.773,10.972-2.33    c0.061-0.026,0.097-0.077,0.159-0.108c0.067-0.031,0.133-0.02,0.2-0.056c21.888-11.146,43.587-63.442,48.594-87.183    c6.758-32.02,9.477-66.801,8.556-109.435l-0.077-2.135c-0.108-2.652-0.215-5.391,0.558-7.101l0.681-1.49    c3.814-8.422,7.762-17.126,13.158-24.612C380.683,142.832,388.419,106.931,381.195,67.272z M349.907,168.002    c-6.001,8.315-10.163,17.495-14.188,26.368l-0.671,1.485c-1.787,3.927-1.618,8.084-1.469,11.75l0.067,1.935    c0.906,41.841-1.746,75.868-8.335,107.11c-4.705,22.313-25.108,70.717-43.064,80.067c-5.535,2.243-10.173,1.971-14.572-0.906    c-23.649-15.498-30.08-96.077-30.566-125.732c0-17.828-14.285-32.353-32-32.814c-0.077-0.005-0.138-0.041-0.215-0.041    c-0.107,0-0.21,0.015-0.317,0.015c-0.107,0-0.21-0.015-0.317-0.015c-0.077,0-0.138,0.041-0.215,0.041    c-17.715,0.461-32,14.986-32,32.727c-0.486,29.742-6.917,110.315-30.566,125.814c-4.362,2.852-8.95,3.169-14.438,0.978    c-15.043-9.103-23.117-22.63-28.477-33.418c-8.945-18.028-14.874-38.354-18.125-62.131c-2.97-21.683-5.791-84.116-5.489-92.907    c0.312-9.088-1.961-17.7-6.753-25.58l-1.884-3.149c-2.161-3.635-4.393-7.393-7.107-10.972    c-16.998-22.421-24.945-48.123-24.284-78.592c0.394-18.14,4.173-32.323,11.899-44.636c15.037-23.956,46.756-37.898,78.904-34.724    c13.88,1.372,26.527,4.582,38.671,9.81c26.276,11.336,51.277,11.51,76.452,0.543c23.905-10.414,46.52-13.266,69.166-8.709    c32.998,6.625,55.844,27.858,61.123,56.796C377.929,106.445,370.986,138.788,349.907,168.002z"/><path d="M266.876,152.207c-2.652-0.968-5.601,0.399-6.564,3.057c-8.571,23.511-31.104,39.306-56.064,39.306    s-47.493-15.795-56.064-39.306c-0.968-2.657-3.917-4.019-6.564-3.057c-2.657,0.968-4.024,3.907-3.057,6.564    c10.04,27.535,36.434,46.034,65.685,46.034s55.644-18.499,65.685-46.034C270.9,156.109,269.533,153.175,266.876,152.207z"/><path d="M147.288,69.98c-15.759,0-28.585,12.826-28.585,28.585c0,2.831,2.289,5.12,5.12,5.12s5.12-2.289,5.12-5.12    c0-10.117,8.228-18.345,18.345-18.345s18.345,8.228,18.345,18.345c0,2.831,2.289,5.12,5.12,5.12s5.12-2.289,5.12-5.12    C175.873,82.806,163.047,69.98,147.288,69.98z"/><path d="M261.208,69.98c-15.759,0-28.585,12.826-28.585,28.585c0,2.831,2.289,5.12,5.12,5.12c2.831,0,5.12-2.289,5.12-5.12    c0-10.117,8.228-18.345,18.345-18.345c10.117,0,18.345,8.228,18.345,18.345c0,2.831,2.289,5.12,5.12,5.12    c2.831,0,5.12-2.289,5.12-5.12C289.793,82.806,276.967,69.98,261.208,69.98z"/></g><g transform="matrix(0.06087911452160452 0.03551281700094675 -0.03551281700094675 0.06087911452160452 99.75294971851316 299.2637203821269)" id="L1_1"><path d="M406.318,270.207l-10.076-5.509c-9.195-5.033-16.717-12.549-21.74-21.74l-5.509-10.076c-1.797-3.292-7.188-3.292-8.986,0    l-5.509,10.076c-2.749,5.033-6.308,9.498-10.419,13.394c0.778-14.5,1.014-29.855,0.645-46.756l-0.072-2.109    c-0.107-2.657-0.22-5.407,0.558-7.117l0.712-1.572c3.804-8.392,7.741-17.07,13.128-24.535    c22.487-31.155,30.223-67.062,22.999-106.716c-6.052-33.219-31.908-57.518-69.171-64.998c-24.417-4.9-49.746-1.751-75.274,9.359    c-22.431,9.774-44.779,9.6-68.326-0.538C156.155,5.718,142.51,2.246,127.57,0.772C91.648-2.802,56.033,13.075,38.979,40.247    C30.234,54.189,25.953,70.03,25.518,90.1c-0.717,32.855,7.905,60.662,26.363,85.002c2.36,3.113,4.352,6.467,6.461,10.01    l1.94,3.241c3.794,6.236,5.519,12.749,5.268,19.912c-0.328,9.713,2.534,72.397,5.576,94.643    c3.41,24.893,9.656,46.249,19.103,65.29c6.016,12.124,15.171,27.382,32.722,37.857c0.215,0.123,0.43,0.241,0.655,0.328    c3.732,1.556,7.414,2.33,10.977,2.33c4.716,0,9.221-1.362,13.348-4.065c14.182-9.293,24.402-34.929,30.367-76.201    c4.326-29.932,4.818-57.728,4.823-58.091c0-12.472,10.143-22.615,22.615-22.615c11.704,0,21.975,10.568,21.975,22.697    c0.184,11.5,2.749,112.947,35.19,134.211c4.127,2.703,8.632,4.065,13.348,4.065c3.564,0,7.245-0.773,10.977-2.33    c0.036-0.015,0.061-0.051,0.097-0.067c0.082-0.036,0.174-0.051,0.256-0.092c21.888-11.141,43.581-63.437,48.594-87.178    c1.946-9.206,3.487-18.883,4.777-28.718c5.478,4.449,10.127,9.851,13.558,16.113l5.509,10.076c0.896,1.644,2.621,2.668,4.49,2.668    s3.594-1.019,4.49-2.668l5.509-10.076c5.028-9.195,12.549-16.717,21.74-21.74l10.076-5.509c1.643-0.896,2.662-2.621,2.662-4.49    S407.962,271.103,406.318,270.207z M333.338,264.313c-0.205,0.113-0.379,0.266-0.584,0.379l-10.076,5.509    c-1.644,0.896-2.662,2.621-2.662,4.49s1.019,3.594,2.662,4.49l8.796,4.813c-1.336,11.336-3.113,22.415-5.335,32.927    c-4.705,22.318-25.103,70.728-43.059,80.072c-5.535,2.248-10.173,1.966-14.571-0.906c-23.649-15.498-30.08-96.077-30.566-125.732    c0-17.813-14.751-32.855-32.215-32.855c-18.115,0-32.855,14.74-32.855,32.768c-0.481,29.742-6.917,110.315-30.566,125.814    c-4.362,2.857-8.96,3.169-14.438,0.978c-15.053-9.109-23.122-22.63-28.472-33.418c-8.95-18.028-14.879-38.349-18.135-62.131    c-2.964-21.658-5.786-84.106-5.489-92.907c0.312-9.088-1.961-17.695-6.753-25.58l-1.889-3.149    c-2.161-3.635-4.393-7.393-7.101-10.972c-17.003-22.426-24.95-48.128-24.284-78.592c0.394-18.14,4.173-32.323,11.899-44.636    C62.679,21.718,94.397,7.791,126.551,10.95c13.875,1.372,26.522,4.582,38.666,9.815c26.286,11.31,51.297,11.484,76.467,0.527    c23.905-10.409,46.531-13.266,69.171-8.709c32.993,6.625,55.839,27.858,61.112,56.801c6.799,37.325-0.143,69.668-21.227,98.883    c-5.985,8.289-10.138,17.444-14.152,26.301l-0.707,1.556c-1.787,3.937-1.618,8.1-1.469,11.776l0.067,1.91    C334.914,229.8,334.536,247.627,333.338,264.313z M391.332,275.711c-10.916,5.97-19.84,14.894-25.815,25.815l-1.019,1.859    l-1.019-1.859c-5.975-10.921-14.899-19.845-25.81-25.81l-1.864-1.019l1.864-1.019c10.916-5.97,19.84-14.894,25.81-25.81    l1.019-1.859l1.019,1.859c5.97,10.916,14.894,19.84,25.81,25.81l1.864,1.019L391.332,275.711z"/><path d="M348.733,80.895c-4.26-23.393-22.415-40.494-48.568-45.747c-2.765-0.584-5.473,1.239-6.026,4.009    c-0.563,2.775,1.234,5.473,4.009,6.031c21.883,4.393,37.028,18.427,40.509,37.54c4.567,25.068-0.092,46.776-14.234,66.376    c-1.654,2.289-1.137,5.489,1.157,7.148c0.906,0.655,1.956,0.968,2.99,0.968c1.592,0,3.154-0.737,4.157-2.125    C348.37,133.426,353.751,108.461,348.733,80.895z"/><path d="M53.791,231.986l-5.914-3.241c-5.038-2.749-9.16-6.876-11.919-11.914l-3.236-5.914c-1.797-3.292-7.188-3.292-8.986,0    l-3.236,5.914c-2.76,5.038-6.881,9.16-11.924,11.919l-5.914,3.236C1.019,232.882,0,234.607,0,236.476    c0,1.869,1.019,3.594,2.662,4.49l5.914,3.236c5.043,2.76,9.17,6.886,11.924,11.924l3.236,5.914    c0.896,1.649,2.616,2.667,4.49,2.667c1.874,0,3.594-1.019,4.49-2.667l3.236-5.914c2.76-5.038,6.881-9.165,11.924-11.924    l5.914-3.236c1.643-0.896,2.662-2.621,2.662-4.49C56.453,234.607,55.434,232.882,53.791,231.986z M28.221,249.076    c-3.205-5.094-7.501-9.39-12.595-12.6c5.094-3.205,9.39-7.501,12.595-12.595c3.205,5.099,7.506,9.39,12.595,12.595    C35.722,239.686,31.432,243.982,28.221,249.076z"/><path d="M285.875,139.739l-6.784-3.712c-5.908-3.231-10.737-8.064-13.972-13.972l-3.712-6.784c-1.797-3.292-7.188-3.292-8.986,0    l-3.712,6.784c-3.231,5.903-8.064,10.737-13.972,13.972l-6.784,3.712c-1.638,0.896-2.662,2.621-2.662,4.49s1.024,3.594,2.662,4.49    l6.784,3.712c5.909,3.236,10.742,8.064,13.972,13.972l3.712,6.779c0.901,1.638,2.621,2.662,4.49,2.662    c1.869,0,3.594-1.019,4.49-2.662l3.712-6.784c3.231-5.903,8.064-10.742,13.972-13.973l6.784-3.712    c1.649-0.891,2.668-2.616,2.668-4.485C288.538,142.36,287.519,140.635,285.875,139.739z M256.922,160.111    c-3.886-6.548-9.334-12.001-15.887-15.887c6.554-3.886,12.001-9.329,15.887-15.887c3.886,6.554,9.334,12.001,15.887,15.887    C266.255,148.11,260.808,153.558,256.922,160.111z"/><path d="M51.907,307.91h-6.717v-6.717c0-2.831-2.294-5.12-5.12-5.12s-5.12,2.289-5.12,5.12v6.717h-6.717    c-2.826,0-5.12,2.289-5.12,5.12s2.294,5.12,5.12,5.12h6.717v6.717c0,2.831,2.294,5.12,5.12,5.12s5.12-2.289,5.12-5.12v-6.717    h6.717c2.826,0,5.12-2.289,5.12-5.12S54.733,307.91,51.907,307.91z"/><path d="M310.994,193.023h-6.717v-6.717c0-2.831-2.294-5.12-5.12-5.12c-2.826,0-5.12,2.289-5.12,5.12v6.717h-6.717    c-2.826,0-5.12,2.289-5.12,5.12s2.294,5.12,5.12,5.12h6.717v6.717c0,2.831,2.294,5.12,5.12,5.12c2.826,0,5.12-2.289,5.12-5.12    v-6.717h6.717c2.826,0,5.12-2.289,5.12-5.12S313.82,193.023,310.994,193.023z"/><path d="M396.114,337.622h-6.717v-6.717c0-2.831-2.294-5.12-5.12-5.12c-2.826,0-5.12,2.289-5.12,5.12v6.717h-6.717    c-2.826,0-5.12,2.289-5.12,5.12s2.294,5.12,5.12,5.12h6.717v6.717c0,2.831,2.294,5.12,5.12,5.12c2.826,0,5.12-2.289,5.12-5.12    v-6.717h6.717c2.826,0,5.12-2.289,5.12-5.12S398.94,337.622,396.114,337.622z"/></g><g transform="matrix(0.058796585539171664 0.02421035818800855 -0.02421035818800855 0.058796585539171664 265.8927454025994 254.97895848905327)" id="L1_2"><path d="M397.368,158.229c7.526-5.361,12.017-14.075,12.017-23.316V95.483c0-14.556-11.843-26.399-26.399-26.399H324.04V5.724    c0-2.831-2.289-5.12-5.12-5.12h-76.16c-2.831,0-5.12,2.289-5.12,5.12v63.36h-58.941c-14.556,0-26.399,11.843-26.399,26.399v39.429    c0,9.242,4.49,17.956,12.017,23.316l8.238,5.867v150.789l-8.238,5.868c-7.526,5.361-12.017,14.075-12.017,23.316v31.918    c0,18.524,15.073,33.597,33.597,33.597h189.885c18.524,0,33.597-15.073,33.597-33.597v-31.918c0-9.242-4.49-17.956-12.017-23.316    l-8.243-5.868V164.101L397.368,158.229z M247.88,10.844h65.92v58.24h-65.92V10.844z M391.429,329.098    c4.828,3.441,7.716,9.042,7.716,14.976v31.918c0,12.882-10.481,23.357-23.357,23.357H185.902    c-12.882,0-23.357-10.481-23.357-23.357v-31.918c0-5.934,2.883-11.535,7.716-14.976l9.057-6.451h203.059L391.429,329.098z     M182.794,312.407V166.579h196.091v145.828H182.794z M382.362,156.339H179.302l-9.047-6.451    c-4.828-3.441-7.716-9.042-7.716-14.976V95.483c0-8.909,7.25-16.159,16.159-16.159h204.283c8.909,0,16.159,7.25,16.159,16.159    v39.429c0,5.934-2.883,11.535-7.716,14.976L382.362,156.339z" fill="#000000"/><path d="M137.59,5.12c0-2.831-2.289-5.12-5.12-5.12H5.33C2.499,0,0.21,2.289,0.21,5.12v30.715c0,0.031,0.021,0.061,0.021,0.092    c0,0.031-0.015,0.056-0.015,0.082l9.626,278.257c0.44,12.785,10.803,22.794,23.588,22.794h1.69l4.782,67.773    c0.184,2.678,2.417,4.762,5.105,4.762h47.79c2.688,0,4.92-2.079,5.105-4.762l4.782-67.773h1.69    c12.785,0,23.148-10.01,23.588-22.794l9.626-278.257c0-0.026-0.015-0.051-0.015-0.082s0.02-0.061,0.02-0.092V5.12z     M88.028,399.355H49.782l-4.393-62.295h47.043L88.028,399.355z M117.74,313.912c-0.256,7.235-6.118,12.907-13.358,12.907H97.92    H39.89h-6.461c-7.24,0-13.107-5.668-13.358-12.907L10.629,40.955h116.552L117.74,313.912z M127.36,30.715H10.45V10.24h116.91    V30.715z" fill="#000000"/><path d="M324.04,239.283c1.065-2.324,2.058-4.526,3.379-6.359c6.979-9.672,9.385-20.782,7.148-33.029    c-1.966-10.778-10.578-18.959-22.477-21.35c-7.665-1.546-15.58-0.568-23.511,2.883c-5.443,2.376-10.67,2.314-16.44-0.164    c-4.009-1.725-8.346-2.826-12.897-3.282c-11.571-1.147-23.009,4.035-28.559,12.882c-2.847,4.531-4.234,9.61-4.378,15.995    c-0.22,10.163,2.468,18.79,8.213,26.363c0.614,0.809,1.121,1.679,1.628,2.545l0.538,0.906c0.707,1.152,1.009,2.294,0.963,3.604    c-0.102,2.877,0.701,20.782,1.608,27.428c1.024,7.46,2.903,13.88,5.76,19.62c1.93,3.891,4.884,8.796,10.675,12.247    c0.21,0.123,0.43,0.235,0.655,0.323c1.505,0.63,3.031,0.942,4.521,0.942c2.038,0,4.014-0.584,5.791-1.751    c10.281-6.733,11.494-33.101,11.628-41.098c0-1.48,1.178-2.662,2.642-2.719c1.464,0.051,2.642,1.239,2.642,2.801    c0.128,7.916,1.347,34.278,11.628,41.016c1.777,1.167,3.748,1.751,5.791,1.751c1.49,0,3.016-0.312,4.521-0.942    c0.061-0.026,0.097-0.077,0.159-0.108c0.067-0.031,0.133-0.021,0.2-0.056c8.397-4.27,14.525-21.678,15.688-27.203    c1.976-9.344,2.77-19.461,2.504-31.836l-0.026-0.671c-0.01-0.246-0.026-0.492-0.015-0.732    C324.019,239.299,324.024,239.314,324.04,239.283z M319.114,226.934c-1.915,2.668-3.174,5.437-4.572,8.509    c-0.87,1.915-0.794,3.779-0.727,5.478c0.251,11.566-0.481,20.936-2.284,29.496c-1.413,6.692-6.979,18.273-10.199,20.101    c-0.282,0.082-0.425,0.077-0.522,0.005c-3.907-2.555-6.769-18.929-6.999-32.532c0-7.03-5.622-12.733-12.605-12.938    c-0.067,0-0.118-0.036-0.184-0.036c-0.031,0-0.061,0.01-0.092,0.01c-0.031,0-0.061-0.01-0.092-0.01    c-0.067,0-0.118,0.036-0.184,0.036c-6.979,0.2-12.605,5.909-12.605,12.851c-0.23,13.691-3.092,30.065-6.999,32.62    c-0.108,0.072-0.184,0.108-0.466,0.036c-2.58-1.638-4.511-3.994-6.39-7.782c-2.35-4.736-3.917-10.122-4.787-16.456    c-0.84-6.144-1.592-23.69-1.526-25.692c0.113-3.307-0.707-6.431-2.442-9.277l-0.486-0.814c-0.712-1.193-1.423-2.381-2.273-3.507    c-4.296-5.663-6.303-12.196-6.134-19.953c0.102-4.454,0.988-7.875,2.811-10.773c3.487-5.55,11.32-8.863,18.877-8.136    c3.548,0.353,6.779,1.172,9.866,2.499c8.32,3.569,16.573,3.62,24.576,0.143c6.057-2.647,11.755-3.379,17.398-2.237    c7.813,1.572,13.205,6.487,14.423,13.148C326.236,211.267,324.475,219.51,319.114,226.934z" fill="#000000"/><path d="M317.66,205.348c-0.916-5.069-4.884-8.909-10.347-10.015c-2.811-0.579-5.473,1.234-6.036,4.004    c-0.558,2.775,1.234,5.473,4.004,6.036c0.763,0.154,2.079,0.594,2.304,1.813c0.435,2.381,0.046,4.25-1.265,6.067    c-1.649,2.294-1.137,5.494,1.162,7.148c0.906,0.65,1.956,0.963,2.99,0.963c1.592,0,3.154-0.742,4.157-2.125    C317.573,215.148,318.592,210.473,317.66,205.348z" fill="#000000"/></g><g transform="matrix(-0.05549119877053827 -0.041618408034462706 0.041618408034462706 -0.05549119877053827 128.85403712663933 153.8275384076893)" id="L1_3"><path d="M288.632,5.12C288.627,2.289,286.339,0,283.507,0H126.088c-2.831,0-5.12,2.289-5.12,5.12v38.031    c0,0.041,0.026,0.077,0.026,0.123c0,0.041-0.02,0.082-0.02,0.123l11.914,249.354c0.522,15.165,12.815,27.044,27.991,27.044h3.231    l6.001,85.043c0.184,2.678,2.417,4.762,5.105,4.762h59.172c2.688,0,4.92-2.079,5.105-4.762l6.001-85.043h3.231    c15.176,0,27.469-11.878,27.991-26.977l11.914-249.426c0-0.041-0.02-0.082-0.02-0.123s0.026-0.077,0.026-0.123V5.12z     M229.614,399.36h-49.628l-5.612-79.565h60.851L229.614,399.36z M266.478,292.398c-0.333,9.62-8.136,17.157-17.761,17.157h-7.997    h-71.844h-7.997c-9.626,0-17.423-7.537-17.761-17.224l-11.658-244.06h146.678L266.478,292.398z M278.387,38.031H131.208V10.24    h147.179V38.031z"/><path d="M247.391,160.266c1.044-2.314,2.038-4.506,3.343-6.318c6.979-9.661,9.385-20.777,7.148-33.024    c-1.961-10.778-10.568-18.964-22.482-21.356c-7.665-1.526-15.575-0.558-23.506,2.883c-5.448,2.376-10.675,2.319-16.435-0.164    c-4.009-1.72-8.346-2.826-12.902-3.282c-11.479-1.132-22.999,4.029-28.564,12.887c-2.847,4.541-4.234,9.62-4.372,15.99    c-0.22,10.163,2.463,18.79,8.213,26.373c0.604,0.783,1.091,1.628,1.587,2.463l0.589,0.978c0.701,1.152,1.004,2.299,0.963,3.604    c-0.102,2.893,0.701,20.813,1.603,27.428c1.019,7.439,2.898,13.855,5.76,19.625c1.93,3.886,4.89,8.786,10.675,12.242    c0.21,0.123,0.43,0.241,0.66,0.333c1.51,0.625,3.031,0.937,4.516,0.937c2.043,0,4.019-0.584,5.796-1.751    c10.281-6.738,11.489-33.106,11.622-41.103c0-1.48,1.178-2.668,2.647-2.719c1.464,0.051,2.647,1.239,2.647,2.801    c0.128,7.916,1.347,34.278,11.628,41.021c1.777,1.167,3.743,1.751,5.791,1.751c1.485,0,3.011-0.312,4.516-0.942    c0.061-0.026,0.102-0.082,0.164-0.107c0.061-0.031,0.133-0.021,0.195-0.056c8.397-4.275,14.525-21.683,15.688-27.203    c1.976-9.359,2.77-19.477,2.499-31.816l-0.026-0.696c-0.01-0.241-0.026-0.486-0.01-0.727    C247.345,160.328,247.35,160.348,247.391,160.266z M242.424,147.953c-1.905,2.652-3.159,5.412-4.567,8.509    c-0.865,1.9-0.794,3.753-0.732,5.478c0.256,11.556-0.471,20.925-2.278,29.496c-1.413,6.687-6.973,18.263-10.204,20.106    c-0.282,0.082-0.42,0.077-0.517,0.005c-3.907-2.555-6.769-18.934-6.999-32.538c0-7.03-5.627-12.744-12.616-12.938    c-0.061,0-0.118-0.036-0.179-0.036c-0.031,0-0.061,0.01-0.092,0.01c-0.031,0-0.061-0.01-0.092-0.01    c-0.067,0-0.118,0.036-0.179,0.036c-6.984,0.195-12.616,5.908-12.616,12.851c-0.225,13.691-3.092,30.07-6.994,32.625    c-0.108,0.067-0.169,0.107-0.466,0.036c-2.586-1.643-4.516-3.999-6.395-7.788c-2.355-4.751-3.922-10.132-4.782-16.461    c-0.84-6.113-1.592-23.675-1.526-25.697c0.107-3.307-0.717-6.42-2.447-9.277l-0.532-0.886c-0.696-1.172-1.398-2.335-2.227-3.42    c-4.296-5.668-6.298-12.201-6.129-19.963c0.108-4.429,0.998-7.854,2.816-10.752c3.487-5.545,11.274-8.878,18.877-8.141    c3.553,0.353,6.784,1.172,9.866,2.499c8.32,3.574,16.579,3.62,24.576,0.143c6.057-2.647,11.761-3.374,17.398-2.237    c7.818,1.572,13.21,6.487,14.423,13.143C249.546,132.285,247.785,140.534,242.424,147.953z"/><path d="M240.98,126.377c-0.927-5.074-4.89-8.914-10.347-10.015c-2.801-0.568-5.473,1.234-6.036,4.004    c-0.558,2.775,1.234,5.473,4.004,6.036c0.763,0.154,2.079,0.594,2.299,1.813c0.435,2.386,0.046,4.26-1.26,6.067    c-1.654,2.294-1.142,5.494,1.152,7.148c0.911,0.655,1.956,0.968,2.995,0.968c1.592,0,3.154-0.737,4.157-2.12    C240.888,136.197,241.912,131.523,240.98,126.377z"/></g></defs><g fi:class="KUsePattern" opacity="0.5"><pattern id="pattern_L1_0" width="350" height="350" patternUnits="userSpaceOnUse"><use xlink:href="#L1_0" x="-350" y="-350"/><use xlink:href="#L1_0" x="0" y="-350"/><use xlink:href="#L1_0" x="350" y="-350"/><use xlink:href="#L1_0" x="-350" y="0"/><use xlink:href="#L1_0" x="0" y="0"/><use xlink:href="#L1_0" x="350" y="0"/><use xlink:href="#L1_0" x="-350" y="350"/><use xlink:href="#L1_0" x="0" y="350"/><use xlink:href="#L1_0" x="350" y="350"/></pattern><rect x="0" y="0" width="100%" height="100%" fill="url(#pattern_L1_0)"/></g><g fi:class="KUsePattern" transform="matrix(1 0 0 1 20 20)" opacity="0.45"><pattern id="pattern_UNKNOWN" width="350" height="350" patternUnits="userSpaceOnUse"><use xlink:href="#UNKNOWN" x="-350" y="-350"/><use xlink:href="#UNKNOWN" x="0" y="-350"/><use xlink:href="#UNKNOWN" x="350" y="-350"/><use xlink:href="#UNKNOWN" x="-350" y="0"/><use xlink:href="#UNKNOWN" x="0" y="0"/><use xlink:href="#UNKNOWN" x="350" y="0"/><use xlink:href="#UNKNOWN" x="-350" y="350"/><use xlink:href="#UNKNOWN" x="0" y="350"/><use xlink:href="#UNKNOWN" x="350" y="350"/></pattern><rect x="0" y="0" width="100%" height="100%" fill="url(#pattern_UNKNOWN)"/></g><g fi:class="KUsePattern" opacity="0.45"><pattern id="pattern_L1_1" width="350" height="350" patternUnits="userSpaceOnUse"><use xlink:href="#L1_1" x="-350" y="-350"/><use xlink:href="#L1_1" x="0" y="-350"/><use xlink:href="#L1_1" x="350" y="-350"/><use xlink:href="#L1_1" x="-350" y="0"/><use xlink:href="#L1_1" x="0" y="0"/><use xlink:href="#L1_1" x="350" y="0"/><use xlink:href="#L1_1" x="-350" y="350"/><use xlink:href="#L1_1" x="0" y="350"/><use xlink:href="#L1_1" x="350" y="350"/></pattern><rect x="0" y="0" width="100%" height="100%" fill="url(#pattern_L1_1)"/></g><g fi:class="KUsePattern" opacity="0.45"><pattern id="pattern_L1_2" width="350" height="350" patternUnits="userSpaceOnUse"><use xlink:href="#L1_2" x="-350" y="-350"/><use xlink:href="#L1_2" x="0" y="-350"/><use xlink:href="#L1_2" x="350" y="-350"/><use xlink:href="#L1_2" x="-350" y="0"/><use xlink:href="#L1_2" x="0" y="0"/><use xlink:href="#L1_2" x="350" y="0"/><use xlink:href="#L1_2" x="-350" y="350"/><use xlink:href="#L1_2" x="0" y="350"/><use xlink:href="#L1_2" x="350" y="350"/></pattern><rect x="0" y="0" width="100%" height="100%" fill="url(#pattern_L1_2)"/></g><g fi:class="KUsePattern" opacity="0.44"><pattern id="pattern_L1_3" width="350" height="350" patternUnits="userSpaceOnUse"><use xlink:href="#L1_3" x="-350" y="-350"/><use xlink:href="#L1_3" x="0" y="-350"/><use xlink:href="#L1_3" x="350" y="-350"/><use xlink:href="#L1_3" x="-350" y="0"/><use xlink:href="#L1_3" x="0" y="0"/><use xlink:href="#L1_3" x="350" y="0"/><use xlink:href="#L1_3" x="-350" y="350"/><use xlink:href="#L1_3" x="0" y="350"/><use xlink:href="#L1_3" x="350" y="350"/></pattern><rect x="0" y="0" width="100%" height="100%" fill="url(#pattern_L1_3)"/></g></svg>